# MagicaVoxel @ Ephtracy

# group
o 

# material
mtllib penguin.vox.mtl
usemtl palette

# normals
vn -1 0 0
vn 1 0 0
vn 0 0 1
vn 0 0 -1
vn 0 -1 0
vn 0 1 0

# texcoords
vt 0.138672 0.5
vt 0.275391 0.5
vt 0.517578 0.5
vt 0.556641 0.5
vt 0.705078 0.5
vt 0.958984 0.5
vt 0.962891 0.5
vt 0.966797 0.5
vt 0.990234 0.5

# verts
v -1.2 0.4 0.3
v -1.2 0.4 -0.3
v -1.2 1.1 0.3
v -1.2 1.1 -0.3
v -1 0.2 0.9
v -1 0.2 -1.1
v -1 0.4 0.3
v -1 0.4 -0.3
v -1 0.7 0.9
v -1 0.7 0.5
v -1 1.1 0.9
v -1 1.1 0.5
v -1 1.1 0.3
v -1 1.1 -0.3
v -1 2 0.9
v -1 2 -1.1
v -0.8 0 0.5
v -0.8 0 -0.7
v -0.8 0.2 0.5
v -0.8 0.2 -0.7
v -0.3 0.8 1
v -0.3 0.8 0.9
v -0.3 1 0.9
v -0.3 1.2 1
v -0.3 1.2 0.9
v 0.4 0 0.5
v 0.4 0 -0.7
v 0.4 0.2 0.5
v 0.4 0.2 -0.7
v -0.4 0 0.5
v -0.4 0 -0.7
v -0.4 0.2 0.5
v -0.4 0.2 -0.7
v 0.3 0.8 1
v 0.3 0.8 0.9
v 0.3 1 0.9
v 0.3 1.2 1
v 0.3 1.2 0.9
v 0.8 0 0.5
v 0.8 0 -0.7
v 0.8 0.2 0.5
v 0.8 0.2 -0.7
v 1 0.2 0.9
v 1 0.2 -1.1
v 1 0.4 0.3
v 1 0.4 -0.3
v 1 0.7 0.9
v 1 0.7 0.5
v 1 1.1 0.9
v 1 1.1 0.5
v 1 1.1 0.3
v 1 1.1 -0.3
v 1 2 0.9
v 1 2 -1.1
v 1.2 0.4 0.3
v 1.2 0.4 -0.3
v 1.2 1.1 0.3
v 1.2 1.1 -0.3
v -0.3 0.8 1
v -0.3 1.2 1
v 0.3 0.8 1
v 0.3 1.2 1
v -1 0.2 0.9
v -1 0.7 0.9
v -1 1.1 0.9
v -1 2 0.9
v -0.8 0.4 0.9
v -0.8 0.7 0.9
v -0.8 1.1 0.9
v -0.8 1.8 0.9
v -0.6 0.7 0.9
v -0.6 1 0.9
v -0.6 1.1 0.9
v -0.6 1.4 0.9
v -0.3 0.8 0.9
v -0.3 1 0.9
v -0.3 1.2 0.9
v -0.3 1.4 0.9
v -0.1 1.5 0.9
v -0.1 1.8 0.9
v 0.0999999 1.5 0.9
v 0.0999999 1.8 0.9
v 0.3 0.8 0.9
v 0.3 1 0.9
v 0.3 1.2 0.9
v 0.3 1.4 0.9
v 0.6 0.7 0.9
v 0.6 1 0.9
v 0.6 1.1 0.9
v 0.6 1.4 0.9
v 0.8 0.4 0.9
v 0.8 0.7 0.9
v 0.8 1.1 0.9
v 0.8 1.8 0.9
v 1 0.2 0.9
v 1 0.7 0.9
v 1 1.1 0.9
v 1 2 0.9
v -0.8 0 0.5
v -0.8 0.2 0.5
v -0.4 0 0.5
v -0.4 0.2 0.5
v 0.4 0 0.5
v 0.4 0.2 0.5
v 0.8 0 0.5
v 0.8 0.2 0.5
v -1.2 0.4 0.3
v -1.2 1.1 0.3
v -1 0.4 0.3
v -1 1.1 0.3
v 1 0.4 0.3
v 1 1.1 0.3
v 1.2 0.4 0.3
v 1.2 1.1 0.3
v -1.2 0.4 -0.3
v -1.2 1.1 -0.3
v -1 0.4 -0.3
v -1 1.1 -0.3
v 1 0.4 -0.3
v 1 1.1 -0.3
v 1.2 0.4 -0.3
v 1.2 1.1 -0.3
v -0.8 0 -0.7
v -0.8 0.2 -0.7
v -0.4 0 -0.7
v -0.4 0.2 -0.7
v 0.4 0 -0.7
v 0.4 0.2 -0.7
v 0.8 0 -0.7
v 0.8 0.2 -0.7
v -1 0.2 -1.1
v -1 2 -1.1
v 1 0.2 -1.1
v 1 2 -1.1
v -0.8 0 0.5
v -0.4 0 0.5
v 0.4 0 0.5
v 0.8 0 0.5
v -0.8 0 -0.7
v -0.4 0 -0.7
v 0.4 0 -0.7
v 0.8 0 -0.7
v -1 0.2 0.9
v 1 0.2 0.9
v -0.8 0.2 0.5
v -0.4 0.2 0.5
v 0.4 0.2 0.5
v 0.8 0.2 0.5
v -0.8 0.2 -0.7
v -0.4 0.2 -0.7
v 0.4 0.2 -0.7
v 0.8 0.2 -0.7
v -1 0.2 -1.1
v 1 0.2 -1.1
v -1.2 0.4 0.3
v -1 0.4 0.3
v 1 0.4 0.3
v 1.2 0.4 0.3
v -1.2 0.4 -0.3
v -1 0.4 -0.3
v 1 0.4 -0.3
v 1.2 0.4 -0.3
v -0.3 0.8 1
v 0.3 0.8 1
v -0.3 0.8 0.9
v 0.3 0.8 0.9
v -1.2 1.1 0.3
v -1 1.1 0.3
v 1 1.1 0.3
v 1.2 1.1 0.3
v -1.2 1.1 -0.3
v -1 1.1 -0.3
v 1 1.1 -0.3
v 1.2 1.1 -0.3
v -0.3 1.2 1
v 0.3 1.2 1
v -0.3 1.2 0.9
v 0.3 1.2 0.9
v -1 2 0.9
v 1 2 0.9
v -1 2 -1.1
v 1 2 -1.1

# faces
f 3/1/1 2/1/1 1/1/1
f 4/1/1 2/1/1 3/1/1
f 7/1/1 6/1/1 5/1/1
f 8/1/1 6/1/1 7/1/1
f 9/1/1 7/1/1 5/1/1
f 10/1/1 7/1/1 9/1/1
f 11/8/1 10/8/1 9/8/1
f 12/1/1 7/1/1 10/1/1
f 12/8/1 10/8/1 11/8/1
f 13/1/1 7/1/1 12/1/1
f 14/1/1 6/1/1 8/1/1
f 15/1/1 13/1/1 12/1/1
f 15/1/1 14/1/1 13/1/1
f 15/1/1 12/1/1 11/1/1
f 16/1/1 6/1/1 14/1/1
f 16/1/1 14/1/1 15/1/1
f 19/2/1 18/2/1 17/2/1
f 20/2/1 18/2/1 19/2/1
f 23/2/1 22/2/1 21/2/1
f 24/2/1 23/2/1 21/2/1
f 25/2/1 23/2/1 24/2/1
f 28/2/1 27/2/1 26/2/1
f 29/2/1 27/2/1 28/2/1
f 30/2/2 31/2/2 32/2/2
f 32/2/2 31/2/2 33/2/2
f 34/2/2 35/2/2 36/2/2
f 34/2/2 36/2/2 37/2/2
f 37/2/2 36/2/2 38/2/2
f 39/2/2 40/2/2 41/2/2
f 41/2/2 40/2/2 42/2/2
f 43/1/2 44/1/2 45/1/2
f 45/1/2 44/1/2 46/1/2
f 43/1/2 45/1/2 47/1/2
f 47/1/2 45/1/2 48/1/2
f 47/8/2 48/8/2 49/8/2
f 48/1/2 45/1/2 50/1/2
f 49/8/2 48/8/2 50/8/2
f 50/1/2 45/1/2 51/1/2
f 46/1/2 44/1/2 52/1/2
f 50/1/2 51/1/2 53/1/2
f 51/1/2 52/1/2 53/1/2
f 49/1/2 50/1/2 53/1/2
f 52/1/2 44/1/2 54/1/2
f 53/1/2 52/1/2 54/1/2
f 55/1/2 56/1/2 57/1/2
f 57/1/2 56/1/2 58/1/2
f 61/2/3 60/2/3 59/2/3
f 62/2/3 60/2/3 61/2/3
f 67/1/3 64/1/3 63/1/3
f 68/8/3 65/8/3 64/8/3
f 68/1/3 64/1/3 67/1/3
f 69/1/3 66/1/3 65/1/3
f 69/8/3 65/8/3 68/8/3
f 70/1/3 66/1/3 69/1/3
f 71/6/3 68/6/3 67/6/3
f 71/8/3 69/8/3 68/8/3
f 72/8/3 69/8/3 71/8/3
f 73/6/3 70/6/3 69/6/3
f 73/8/3 69/8/3 72/8/3
f 74/6/3 70/6/3 73/6/3
f 75/6/3 72/6/3 71/6/3
f 76/9/3 73/9/3 72/9/3
f 76/6/3 72/6/3 75/6/3
f 76/9/3 74/9/3 73/9/3
f 77/9/3 74/9/3 76/9/3
f 78/6/3 70/6/3 74/6/3
f 78/9/3 74/9/3 77/9/3
f 79/6/3 70/6/3 78/6/3
f 79/6/3 78/6/3 77/6/3
f 80/1/3 66/1/3 70/1/3
f 80/6/3 70/6/3 79/6/3
f 81/6/3 79/6/3 77/6/3
f 81/1/3 80/1/3 79/1/3
f 82/1/3 66/1/3 80/1/3
f 82/1/3 80/1/3 81/1/3
f 83/6/3 75/6/3 71/6/3
f 85/6/3 81/6/3 77/6/3
f 85/6/3 82/6/3 81/6/3
f 86/6/3 82/6/3 85/6/3
f 87/6/3 84/6/3 83/6/3
f 87/6/3 71/6/3 67/6/3
f 87/6/3 83/6/3 71/6/3
f 88/9/3 86/9/3 85/9/3
f 88/6/3 84/6/3 87/6/3
f 88/9/3 85/9/3 84/9/3
f 89/9/3 86/9/3 88/9/3
f 90/6/3 82/6/3 86/6/3
f 90/9/3 86/9/3 89/9/3
f 91/1/3 67/1/3 63/1/3
f 91/6/3 87/6/3 67/6/3
f 92/8/3 89/8/3 88/8/3
f 92/6/3 87/6/3 91/6/3
f 92/8/3 88/8/3 87/8/3
f 93/6/3 90/6/3 89/6/3
f 93/8/3 89/8/3 92/8/3
f 94/6/3 82/6/3 90/6/3
f 94/6/3 90/6/3 93/6/3
f 94/1/3 66/1/3 82/1/3
f 95/1/3 91/1/3 63/1/3
f 95/1/3 92/1/3 91/1/3
f 96/8/3 93/8/3 92/8/3
f 96/1/3 92/1/3 95/1/3
f 97/1/3 94/1/3 93/1/3
f 97/8/3 93/8/3 96/8/3
f 98/1/3 66/1/3 94/1/3
f 98/1/3 94/1/3 97/1/3
f 101/2/3 100/2/3 99/2/3
f 102/2/3 100/2/3 101/2/3
f 105/2/3 104/2/3 103/2/3
f 106/2/3 104/2/3 105/2/3
f 109/1/3 108/1/3 107/1/3
f 110/1/3 108/1/3 109/1/3
f 113/1/3 112/1/3 111/1/3
f 114/1/3 112/1/3 113/1/3
f 115/1/4 116/1/4 117/1/4
f 117/1/4 116/1/4 118/1/4
f 119/1/4 120/1/4 121/1/4
f 121/1/4 120/1/4 122/1/4
f 123/2/4 124/2/4 125/2/4
f 125/2/4 124/2/4 126/2/4
f 127/2/4 128/2/4 129/2/4
f 129/2/4 128/2/4 130/2/4
f 131/1/4 132/1/4 133/1/4
f 133/1/4 132/1/4 134/1/4
f 139/2/5 136/2/5 135/2/5
f 140/2/5 136/2/5 139/2/5
f 141/2/5 138/2/5 137/2/5
f 142/2/5 138/2/5 141/2/5
f 145/1/5 144/1/5 143/1/5
f 146/1/5 144/1/5 145/1/5
f 147/1/5 144/1/5 146/1/5
f 148/1/5 144/1/5 147/1/5
f 149/1/5 145/1/5 143/1/5
f 150/1/5 147/1/5 146/1/5
f 151/1/5 147/1/5 150/1/5
f 152/1/5 144/1/5 148/1/5
f 153/1/5 151/1/5 150/1/5
f 153/1/5 152/1/5 151/1/5
f 153/1/5 149/1/5 143/1/5
f 153/1/5 150/1/5 149/1/5
f 154/1/5 144/1/5 152/1/5
f 154/1/5 152/1/5 153/1/5
f 159/1/5 156/1/5 155/1/5
f 160/1/5 156/1/5 159/1/5
f 161/1/5 158/1/5 157/1/5
f 162/1/5 158/1/5 161/1/5
f 165/2/5 164/2/5 163/2/5
f 166/2/5 164/2/5 165/2/5
f 167/1/6 168/1/6 171/1/6
f 171/1/6 168/1/6 172/1/6
f 169/1/6 170/1/6 173/1/6
f 173/1/6 170/1/6 174/1/6
f 175/2/6 176/2/6 177/2/6
f 177/2/6 176/2/6 178/2/6
f 179/1/6 180/1/6 181/1/6
f 181/1/6 180/1/6 182/1/6
