# MagicaVoxel @ Ephtracy

# group
o 

# material
mtllib chicken.vox.mtl
usemtl palette

# normals
vn -1 0 0
vn 1 0 0
vn 0 0 1
vn 0 0 -1
vn 0 -1 0
vn 0 1 0

# texcoords
vt 0.517578 0.5
vt 0.556641 0.5
vt 0.634766 0.5
vt 0.837891 0.5
vt 0.958984 0.5
vt 0.962891 0.5
vt 0.966797 0.5
vt 0.990234 0.5

# verts
v -1 0.4 0.6
v -1 0.4 -0.4
v -1 1 0.6
v -1 1 -0.4
v -0.9 0.2 0.9
v -0.9 0.2 -1.1
v -0.9 0.4 0.6
v -0.9 0.4 -0.4
v -0.9 0.7 0.9
v -0.9 0.7 0.6
v -0.9 1 0.6
v -0.9 1 0.5
v -0.9 1 -0.4
v -0.9 1.1 0.9
v -0.9 1.1 0.5
v -0.9 1.2 -0.8
v -0.9 1.2 -1.1
v -0.9 2 0.9
v -0.9 2 -0.8
v -0.6 0 0.6
v -0.6 0 -0.6
v -0.6 0.2 0.6
v -0.6 0.2 -0.6
v -0.3 2 0.5
v -0.3 2 -0.3
v -0.3 2.4 0.5
v -0.3 2.4 -0.3
v -0.2 0.8 1
v -0.2 0.8 0.9
v -0.2 1 0.9
v -0.2 1.1 1
v -0.2 1.1 0.9
v 0.2 0 0.6
v 0.2 0 -0.6
v 0.2 0.2 0.6
v 0.2 0.2 -0.6
v -0.2 0 0.6
v -0.2 0 -0.6
v -0.2 0.2 0.6
v -0.2 0.2 -0.6
v 0.2 0.8 1
v 0.2 0.8 0.9
v 0.2 1 0.9
v 0.2 1.1 1
v 0.2 1.1 0.9
v 0.3 2 0.5
v 0.3 2 -0.3
v 0.3 2.4 0.5
v 0.3 2.4 -0.3
v 0.6 0 0.6
v 0.6 0 -0.6
v 0.6 0.2 0.6
v 0.6 0.2 -0.6
v 0.9 0.2 0.9
v 0.9 0.2 -1.1
v 0.9 0.4 0.6
v 0.9 0.4 -0.4
v 0.9 0.7 0.9
v 0.9 0.7 0.6
v 0.9 1 0.6
v 0.9 1 0.5
v 0.9 1 -0.4
v 0.9 1.1 0.9
v 0.9 1.1 0.5
v 0.9 1.2 -0.8
v 0.9 1.2 -1.1
v 0.9 2 0.9
v 0.9 2 -0.8
v 1 0.4 0.6
v 1 0.4 -0.4
v 1 1 0.6
v 1 1 -0.4
v -0.2 0.8 1
v -0.2 1.1 1
v 0.2 0.8 1
v 0.2 1.1 1
v -0.9 0.2 0.9
v -0.9 0.7 0.9
v -0.9 1.1 0.9
v -0.9 2 0.9
v -0.5 0.7 0.9
v -0.5 1 0.9
v -0.5 1.1 0.9
v -0.5 1.4 0.9
v -0.2 0.8 0.9
v -0.2 1 0.9
v -0.2 1.1 0.9
v -0.2 1.4 0.9
v 0.2 0.8 0.9
v 0.2 1 0.9
v 0.2 1.1 0.9
v 0.2 1.4 0.9
v 0.5 0.7 0.9
v 0.5 1 0.9
v 0.5 1.1 0.9
v 0.5 1.4 0.9
v 0.9 0.2 0.9
v 0.9 0.7 0.9
v 0.9 1.1 0.9
v 0.9 2 0.9
v -1 0.4 0.6
v -1 1 0.6
v -0.9 0.4 0.6
v -0.9 0.7 0.6
v -0.9 1 0.6
v -0.6 0 0.6
v -0.6 0.2 0.6
v -0.2 0 0.6
v -0.2 0.2 0.6
v 0.2 0 0.6
v 0.2 0.2 0.6
v 0.6 0 0.6
v 0.6 0.2 0.6
v 0.9 0.4 0.6
v 0.9 0.7 0.6
v 0.9 1 0.6
v 1 0.4 0.6
v 1 1 0.6
v -0.3 2 0.5
v -0.3 2.4 0.5
v 0.3 2 0.5
v 0.3 2.4 0.5
v -0.3 2 -0.3
v -0.3 2.4 -0.3
v 0.3 2 -0.3
v 0.3 2.4 -0.3
v -1 0.4 -0.4
v -1 1 -0.4
v -0.9 0.4 -0.4
v -0.9 1 -0.4
v 0.9 0.4 -0.4
v 0.9 1 -0.4
v 1 0.4 -0.4
v 1 1 -0.4
v -0.6 0 -0.6
v -0.6 0.2 -0.6
v -0.2 0 -0.6
v -0.2 0.2 -0.6
v 0.2 0 -0.6
v 0.2 0.2 -0.6
v 0.6 0 -0.6
v 0.6 0.2 -0.6
v -0.9 1.2 -0.8
v -0.9 2 -0.8
v 0.9 1.2 -0.8
v 0.9 2 -0.8
v -0.9 0.2 -1.1
v -0.9 1.2 -1.1
v 0.9 0.2 -1.1
v 0.9 1.2 -1.1
v -0.6 0 0.6
v -0.2 0 0.6
v 0.2 0 0.6
v 0.6 0 0.6
v -0.6 0 -0.6
v -0.2 0 -0.6
v 0.2 0 -0.6
v 0.6 0 -0.6
v -0.9 0.2 0.9
v 0.9 0.2 0.9
v -0.6 0.2 0.6
v -0.2 0.2 0.6
v 0.2 0.2 0.6
v 0.6 0.2 0.6
v -0.6 0.2 -0.6
v -0.2 0.2 -0.6
v 0.2 0.2 -0.6
v 0.6 0.2 -0.6
v -0.9 0.2 -1.1
v 0.9 0.2 -1.1
v -1 0.4 0.6
v -0.9 0.4 0.6
v 0.9 0.4 0.6
v 1 0.4 0.6
v -1 0.4 -0.4
v -0.9 0.4 -0.4
v 0.9 0.4 -0.4
v 1 0.4 -0.4
v -0.2 0.8 1
v 0.2 0.8 1
v -0.2 0.8 0.9
v 0.2 0.8 0.9
v -1 1 0.6
v -0.9 1 0.6
v 0.9 1 0.6
v 1 1 0.6
v -0.9 1 0.5
v 0.9 1 0.5
v -1 1 -0.4
v -0.9 1 -0.4
v 0.9 1 -0.4
v 1 1 -0.4
v -0.2 1.1 1
v 0.2 1.1 1
v -0.2 1.1 0.9
v 0.2 1.1 0.9
v -0.9 1.2 -0.8
v 0.9 1.2 -0.8
v -0.9 1.2 -1.1
v 0.9 1.2 -1.1
v -0.9 2 0.9
v 0.9 2 0.9
v -0.3 2 0.5
v 0.3 2 0.5
v -0.3 2 -0.3
v 0.3 2 -0.3
v -0.9 2 -0.8
v 0.9 2 -0.8
v -0.3 2.4 0.5
v 0.3 2.4 0.5
v -0.3 2.4 -0.3
v 0.3 2.4 -0.3

# faces
f 3/6/1 2/6/1 1/6/1
f 4/6/1 2/6/1 3/6/1
f 7/6/1 6/6/1 5/6/1
f 8/6/1 6/6/1 7/6/1
f 9/6/1 7/6/1 5/6/1
f 10/6/1 7/6/1 9/6/1
f 11/7/1 10/7/1 9/7/1
f 13/6/1 6/6/1 8/6/1
f 14/7/1 12/7/1 11/7/1
f 14/7/1 11/7/1 9/7/1
f 15/6/1 13/6/1 12/6/1
f 15/7/1 12/7/1 14/7/1
f 16/6/1 6/6/1 13/6/1
f 16/6/1 13/6/1 15/6/1
f 16/6/1 15/6/1 14/6/1
f 17/6/1 6/6/1 16/6/1
f 18/6/1 16/6/1 14/6/1
f 19/6/1 16/6/1 18/6/1
f 22/3/1 21/3/1 20/3/1
f 23/3/1 21/3/1 22/3/1
f 26/4/1 25/4/1 24/4/1
f 27/4/1 25/4/1 26/4/1
f 30/4/1 29/4/1 28/4/1
f 31/4/1 30/4/1 28/4/1
f 32/4/1 30/4/1 31/4/1
f 35/3/1 34/3/1 33/3/1
f 36/3/1 34/3/1 35/3/1
f 37/3/2 38/3/2 39/3/2
f 39/3/2 38/3/2 40/3/2
f 41/4/2 42/4/2 43/4/2
f 41/4/2 43/4/2 44/4/2
f 44/4/2 43/4/2 45/4/2
f 46/4/2 47/4/2 48/4/2
f 48/4/2 47/4/2 49/4/2
f 50/3/2 51/3/2 52/3/2
f 52/3/2 51/3/2 53/3/2
f 54/6/2 55/6/2 56/6/2
f 56/6/2 55/6/2 57/6/2
f 54/6/2 56/6/2 58/6/2
f 58/6/2 56/6/2 59/6/2
f 58/7/2 59/7/2 60/7/2
f 57/6/2 55/6/2 62/6/2
f 60/7/2 61/7/2 63/7/2
f 58/7/2 60/7/2 63/7/2
f 61/6/2 62/6/2 64/6/2
f 63/7/2 61/7/2 64/7/2
f 62/6/2 55/6/2 65/6/2
f 64/6/2 62/6/2 65/6/2
f 63/6/2 64/6/2 65/6/2
f 65/6/2 55/6/2 66/6/2
f 63/6/2 65/6/2 67/6/2
f 67/6/2 65/6/2 68/6/2
f 69/6/2 70/6/2 71/6/2
f 71/6/2 70/6/2 72/6/2
f 75/4/3 74/4/3 73/4/3
f 76/4/3 74/4/3 75/4/3
f 81/6/3 78/6/3 77/6/3
f 81/7/3 79/7/3 78/7/3
f 82/7/3 79/7/3 81/7/3
f 83/6/3 80/6/3 79/6/3
f 83/7/3 79/7/3 82/7/3
f 84/6/3 80/6/3 83/6/3
f 85/6/3 82/6/3 81/6/3
f 86/8/3 83/8/3 82/8/3
f 86/6/3 82/6/3 85/6/3
f 86/8/3 84/8/3 83/8/3
f 87/8/3 84/8/3 86/8/3
f 88/6/3 80/6/3 84/6/3
f 88/8/3 84/8/3 87/8/3
f 89/6/3 85/6/3 81/6/3
f 91/6/3 88/6/3 87/6/3
f 92/6/3 80/6/3 88/6/3
f 92/6/3 88/6/3 91/6/3
f 93/6/3 81/6/3 77/6/3
f 93/6/3 90/6/3 89/6/3
f 93/6/3 89/6/3 81/6/3
f 94/8/3 91/8/3 90/8/3
f 94/6/3 90/6/3 93/6/3
f 94/8/3 92/8/3 91/8/3
f 95/8/3 92/8/3 94/8/3
f 96/6/3 80/6/3 92/6/3
f 96/8/3 92/8/3 95/8/3
f 97/6/3 93/6/3 77/6/3
f 98/7/3 95/7/3 94/7/3
f 98/6/3 93/6/3 97/6/3
f 98/7/3 94/7/3 93/7/3
f 99/6/3 96/6/3 95/6/3
f 99/7/3 95/7/3 98/7/3
f 100/6/3 80/6/3 96/6/3
f 100/6/3 96/6/3 99/6/3
f 103/6/3 102/6/3 101/6/3
f 104/6/3 102/6/3 103/6/3
f 105/6/3 102/6/3 104/6/3
f 108/3/3 107/3/3 106/3/3
f 109/3/3 107/3/3 108/3/3
f 112/3/3 111/3/3 110/3/3
f 113/3/3 111/3/3 112/3/3
f 117/6/3 115/6/3 114/6/3
f 117/6/3 116/6/3 115/6/3
f 118/6/3 116/6/3 117/6/3
f 121/4/3 120/4/3 119/4/3
f 122/4/3 120/4/3 121/4/3
f 123/4/4 124/4/4 125/4/4
f 125/4/4 124/4/4 126/4/4
f 127/6/4 128/6/4 129/6/4
f 129/6/4 128/6/4 130/6/4
f 131/6/4 132/6/4 133/6/4
f 133/6/4 132/6/4 134/6/4
f 135/3/4 136/3/4 137/3/4
f 137/3/4 136/3/4 138/3/4
f 139/3/4 140/3/4 141/3/4
f 141/3/4 140/3/4 142/3/4
f 143/6/4 144/6/4 145/6/4
f 145/6/4 144/6/4 146/6/4
f 147/6/4 148/6/4 149/6/4
f 149/6/4 148/6/4 150/6/4
f 155/3/5 152/3/5 151/3/5
f 156/3/5 152/3/5 155/3/5
f 157/3/5 154/3/5 153/3/5
f 158/3/5 154/3/5 157/3/5
f 161/6/5 160/6/5 159/6/5
f 162/6/5 160/6/5 161/6/5
f 163/6/5 160/6/5 162/6/5
f 164/6/5 160/6/5 163/6/5
f 165/6/5 161/6/5 159/6/5
f 166/6/5 163/6/5 162/6/5
f 167/6/5 163/6/5 166/6/5
f 168/6/5 160/6/5 164/6/5
f 169/6/5 167/6/5 166/6/5
f 169/6/5 168/6/5 167/6/5
f 169/6/5 165/6/5 159/6/5
f 169/6/5 166/6/5 165/6/5
f 170/6/5 160/6/5 168/6/5
f 170/6/5 168/6/5 169/6/5
f 175/6/5 172/6/5 171/6/5
f 176/6/5 172/6/5 175/6/5
f 177/6/5 174/6/5 173/6/5
f 178/6/5 174/6/5 177/6/5
f 181/4/5 180/4/5 179/4/5
f 182/4/5 180/4/5 181/4/5
f 183/6/6 184/6/6 187/6/6
f 185/6/6 186/6/6 188/6/6
f 183/6/6 187/6/6 189/6/6
f 189/6/6 187/6/6 190/6/6
f 188/6/6 186/6/6 191/6/6
f 191/6/6 186/6/6 192/6/6
f 193/4/6 194/4/6 195/4/6
f 195/4/6 194/4/6 196/4/6
f 197/6/6 198/6/6 199/6/6
f 199/6/6 198/6/6 200/6/6
f 201/6/6 202/6/6 203/6/6
f 203/6/6 202/6/6 204/6/6
f 201/6/6 203/6/6 205/6/6
f 204/6/6 202/6/6 206/6/6
f 201/6/6 205/6/6 207/6/6
f 205/6/6 206/6/6 207/6/6
f 206/6/6 202/6/6 208/6/6
f 207/6/6 206/6/6 208/6/6
f 209/4/6 210/4/6 211/4/6
f 211/4/6 210/4/6 212/4/6
