# MagicaVoxel @ Ephtracy

# group
o 

# material
mtllib grass3.vox.mtl
usemtl palette

# normals
vn -1 0 0
vn 1 0 0
vn 0 0 1
vn 0 0 -1
vn 0 -1 0
vn 0 1 0

# texcoords
vt 0.423828 0.5
vt 0.427734 0.5
vt 0.916016 0.5
vt 0.939453 0.5

# verts
v -1 0 1
v -1 0 -1
v -1 1.2 1
v -1 1.2 -1
v -1 2 1
v -1 2 -1
v -0.6 2 0
v -0.6 2 -0.2
v -0.6 2.2 0
v -0.6 2.2 -0.2
v 0.2 2 0.8
v 0.2 2 0.6
v 0.2 2 -0.4
v 0.2 2 -0.6
v 0.2 2.2 0.8
v 0.2 2.2 0.6
v 0.2 2.2 -0.4
v 0.2 2.2 -0.6
v 0.4 2.2 -0.4
v 0.4 2.2 -0.6
v 0.4 2.4 -0.4
v 0.4 2.4 -0.6
v -0.4 2 0
v -0.4 2 -0.2
v -0.4 2.2 0
v -0.4 2.2 -0.2
v 0.4 2 0.8
v 0.4 2 0.6
v 0.4 2.2 0.8
v 0.4 2.2 0.6
v 0.6 2 -0.4
v 0.6 2 -0.6
v 0.6 2.4 -0.4
v 0.6 2.4 -0.6
v 1 0 1
v 1 0 -1
v 1 1.2 1
v 1 1.2 -1
v 1 2 1
v 1 2 -1
v -1 0 1
v -1 1.2 1
v -1 2 1
v 1 0 1
v 1 1.2 1
v 1 2 1
v 0.2 2 0.8
v 0.2 2.2 0.8
v 0.4 2 0.8
v 0.4 2.2 0.8
v -0.6 2 0
v -0.6 2.2 0
v -0.4 2 0
v -0.4 2.2 0
v 0.2 2 -0.4
v 0.2 2.2 -0.4
v 0.4 2.2 -0.4
v 0.4 2.4 -0.4
v 0.6 2 -0.4
v 0.6 2.4 -0.4
v 0.2 2 0.6
v 0.2 2.2 0.6
v 0.4 2 0.6
v 0.4 2.2 0.6
v -0.6 2 -0.2
v -0.6 2.2 -0.2
v -0.4 2 -0.2
v -0.4 2.2 -0.2
v 0.2 2 -0.6
v 0.2 2.2 -0.6
v 0.4 2.2 -0.6
v 0.4 2.4 -0.6
v 0.6 2 -0.6
v 0.6 2.4 -0.6
v -1 0 -1
v -1 1.2 -1
v -1 2 -1
v 1 0 -1
v 1 1.2 -1
v 1 2 -1
v -1 0 1
v 1 0 1
v -1 0 -1
v 1 0 -1
v -1 2 1
v 1 2 1
v 0.2 2 0.8
v 0.4 2 0.8
v 0.2 2 0.6
v 0.4 2 0.6
v -0.6 2 0
v -0.4 2 0
v -0.6 2 -0.2
v -0.4 2 -0.2
v 0.2 2 -0.4
v 0.6 2 -0.4
v 0.2 2 -0.6
v 0.6 2 -0.6
v -1 2 -1
v 1 2 -1
v 0.2 2.2 0.8
v 0.4 2.2 0.8
v 0.2 2.2 0.6
v 0.4 2.2 0.6
v -0.6 2.2 0
v -0.4 2.2 0
v -0.6 2.2 -0.2
v -0.4 2.2 -0.2
v 0.2 2.2 -0.4
v 0.4 2.2 -0.4
v 0.2 2.2 -0.6
v 0.4 2.2 -0.6
v 0.4 2.4 -0.4
v 0.6 2.4 -0.4
v 0.4 2.4 -0.6
v 0.6 2.4 -0.6

# faces
f 3/4/1 2/4/1 1/4/1
f 4/4/1 2/4/1 3/4/1
f 5/3/1 4/3/1 3/3/1
f 6/3/1 4/3/1 5/3/1
f 9/3/1 8/3/1 7/3/1
f 10/3/1 8/3/1 9/3/1
f 15/3/1 12/3/1 11/3/1
f 16/3/1 12/3/1 15/3/1
f 17/3/1 14/3/1 13/3/1
f 18/3/1 14/3/1 17/3/1
f 21/3/1 20/3/1 19/3/1
f 22/3/1 20/3/1 21/3/1
f 23/3/2 24/3/2 25/3/2
f 25/3/2 24/3/2 26/3/2
f 27/3/2 28/3/2 29/3/2
f 29/3/2 28/3/2 30/3/2
f 31/3/2 32/3/2 33/3/2
f 33/3/2 32/3/2 34/3/2
f 35/4/2 36/4/2 37/4/2
f 37/4/2 36/4/2 38/4/2
f 37/3/2 38/3/2 39/3/2
f 39/3/2 38/3/2 40/3/2
f 44/4/3 42/4/3 41/4/3
f 45/3/3 43/3/3 42/3/3
f 45/4/3 42/4/3 44/4/3
f 46/3/3 43/3/3 45/3/3
f 49/3/3 48/3/3 47/3/3
f 50/3/3 48/3/3 49/3/3
f 53/3/3 52/3/3 51/3/3
f 54/3/3 52/3/3 53/3/3
f 57/3/3 56/3/3 55/3/3
f 59/3/3 57/3/3 55/3/3
f 59/3/3 58/3/3 57/3/3
f 60/3/3 58/3/3 59/3/3
f 61/3/4 62/3/4 63/3/4
f 63/3/4 62/3/4 64/3/4
f 65/3/4 66/3/4 67/3/4
f 67/3/4 66/3/4 68/3/4
f 69/3/4 70/3/4 71/3/4
f 69/3/4 71/3/4 73/3/4
f 71/3/4 72/3/4 73/3/4
f 73/3/4 72/3/4 74/3/4
f 75/4/4 76/4/4 78/4/4
f 76/3/4 77/3/4 79/3/4
f 78/4/4 76/4/4 79/4/4
f 79/3/4 77/3/4 80/3/4
f 83/4/5 82/4/5 81/4/5
f 84/4/5 82/4/5 83/4/5
f 85/3/6 86/3/6 87/3/6
f 87/3/6 86/3/6 88/3/6
f 85/3/6 87/3/6 89/3/6
f 88/3/6 86/3/6 90/3/6
f 85/3/6 89/3/6 91/3/6
f 89/3/6 90/3/6 91/3/6
f 91/3/6 90/3/6 92/3/6
f 85/3/6 91/3/6 93/3/6
f 92/3/6 90/3/6 94/3/6
f 94/3/6 90/3/6 95/3/6
f 93/3/6 94/3/6 95/3/6
f 90/3/6 86/3/6 96/3/6
f 95/3/6 90/3/6 96/3/6
f 93/3/6 95/3/6 97/3/6
f 96/3/6 86/3/6 98/3/6
f 93/3/6 97/3/6 99/3/6
f 97/3/6 98/3/6 99/3/6
f 85/3/6 93/3/6 99/3/6
f 98/3/6 86/3/6 100/3/6
f 99/3/6 98/3/6 100/3/6
f 101/3/6 102/3/6 103/3/6
f 103/3/6 102/3/6 104/3/6
f 105/3/6 106/3/6 107/3/6
f 107/3/6 106/3/6 108/3/6
f 109/3/6 110/3/6 111/3/6
f 111/3/6 110/3/6 112/3/6
f 113/3/6 114/3/6 115/3/6
f 115/3/6 114/3/6 116/3/6
