# MagicaVoxel @ Ephtracy

# group
o 

# material
mtllib carrot.vox.mtl
usemtl palette

# normals
vn -1 0 0
vn 1 0 0
vn 0 0 1
vn 0 0 -1
vn 0 -1 0
vn 0 1 0

# texcoords
vt 0.666016 0.5
vt 0.896484 0.5

# verts
v -0.4 0.2 0.4
v -0.4 0.2 -0.4
v -0.4 0.8 0.4
v -0.4 0.8 -0.4
v -0.3 0 0.3
v -0.3 0 -0.3
v -0.3 0.2 0.3
v -0.3 0.2 -0.3
v -0.2 0.8 0.2
v -0.2 0.8 0
v -0.2 1 0.2
v -0.2 1 0
v 0 0.8 0
v 0 0.8 -0.2
v 0 1 0
v 0 1.2 0
v 0 1.2 -0.2
v 0 0.8 0.2
v 0 0.8 0
v 0 1 0.2
v 0 1 0
v 0.2 0.8 0
v 0.2 0.8 -0.2
v 0.2 1.2 0
v 0.2 1.2 -0.2
v 0.3 0 0.3
v 0.3 0 -0.3
v 0.3 0.2 0.3
v 0.3 0.2 -0.3
v 0.4 0.2 0.4
v 0.4 0.2 -0.4
v 0.4 0.8 0.4
v 0.4 0.8 -0.4
v -0.4 0.2 0.4
v -0.4 0.8 0.4
v 0.4 0.2 0.4
v 0.4 0.8 0.4
v -0.3 0 0.3
v -0.3 0.2 0.3
v 0.3 0 0.3
v 0.3 0.2 0.3
v -0.2 0.8 0.2
v -0.2 1 0.2
v 0 0.8 0.2
v 0 1 0.2
v 0 0.8 0
v 0 1 0
v 0 1.2 0
v 0.2 0.8 0
v 0.2 1.2 0
v -0.2 0.8 0
v -0.2 1 0
v 0 0.8 0
v 0 1 0
v 0 0.8 -0.2
v 0 1.2 -0.2
v 0.2 0.8 -0.2
v 0.2 1.2 -0.2
v -0.3 0 -0.3
v -0.3 0.2 -0.3
v 0.3 0 -0.3
v 0.3 0.2 -0.3
v -0.4 0.2 -0.4
v -0.4 0.8 -0.4
v 0.4 0.2 -0.4
v 0.4 0.8 -0.4
v -0.3 0 0.3
v 0.3 0 0.3
v -0.3 0 -0.3
v 0.3 0 -0.3
v -0.4 0.2 0.4
v 0.4 0.2 0.4
v -0.3 0.2 0.3
v 0.3 0.2 0.3
v -0.3 0.2 -0.3
v 0.3 0.2 -0.3
v -0.4 0.2 -0.4
v 0.4 0.2 -0.4
v -0.4 0.8 0.4
v 0.4 0.8 0.4
v -0.2 0.8 0.2
v 0 0.8 0.2
v -0.2 0.8 0
v 0 0.8 0
v 0.2 0.8 0
v 0 0.8 -0.2
v 0.2 0.8 -0.2
v -0.4 0.8 -0.4
v 0.4 0.8 -0.4
v -0.2 1 0.2
v 0 1 0.2
v -0.2 1 0
v 0 1 0
v 0 1.2 0
v 0.2 1.2 0
v 0 1.2 -0.2
v 0.2 1.2 -0.2

# faces
f 3/1/1 2/1/1 1/1/1
f 4/1/1 2/1/1 3/1/1
f 7/1/1 6/1/1 5/1/1
f 8/1/1 6/1/1 7/1/1
f 11/2/1 10/2/1 9/2/1
f 12/2/1 10/2/1 11/2/1
f 15/2/1 14/2/1 13/2/1
f 16/2/1 14/2/1 15/2/1
f 17/2/1 14/2/1 16/2/1
f 18/2/2 19/2/2 20/2/2
f 20/2/2 19/2/2 21/2/2
f 22/2/2 23/2/2 24/2/2
f 24/2/2 23/2/2 25/2/2
f 26/1/2 27/1/2 28/1/2
f 28/1/2 27/1/2 29/1/2
f 30/1/2 31/1/2 32/1/2
f 32/1/2 31/1/2 33/1/2
f 36/1/3 35/1/3 34/1/3
f 37/1/3 35/1/3 36/1/3
f 40/1/3 39/1/3 38/1/3
f 41/1/3 39/1/3 40/1/3
f 44/2/3 43/2/3 42/2/3
f 45/2/3 43/2/3 44/2/3
f 49/2/3 47/2/3 46/2/3
f 49/2/3 48/2/3 47/2/3
f 50/2/3 48/2/3 49/2/3
f 51/2/4 52/2/4 53/2/4
f 53/2/4 52/2/4 54/2/4
f 55/2/4 56/2/4 57/2/4
f 57/2/4 56/2/4 58/2/4
f 59/1/4 60/1/4 61/1/4
f 61/1/4 60/1/4 62/1/4
f 63/1/4 64/1/4 65/1/4
f 65/1/4 64/1/4 66/1/4
f 69/1/5 68/1/5 67/1/5
f 70/1/5 68/1/5 69/1/5
f 73/1/5 72/1/5 71/1/5
f 74/1/5 72/1/5 73/1/5
f 75/1/5 73/1/5 71/1/5
f 76/1/5 72/1/5 74/1/5
f 77/1/5 75/1/5 71/1/5
f 77/1/5 76/1/5 75/1/5
f 78/1/5 72/1/5 76/1/5
f 78/1/5 76/1/5 77/1/5
f 79/1/6 80/1/6 81/1/6
f 81/1/6 80/1/6 82/1/6
f 79/1/6 81/1/6 83/1/6
f 82/1/6 80/1/6 84/1/6
f 84/1/6 80/1/6 85/1/6
f 83/1/6 84/1/6 86/1/6
f 85/1/6 80/1/6 87/1/6
f 79/1/6 83/1/6 88/1/6
f 86/1/6 87/1/6 88/1/6
f 83/1/6 86/1/6 88/1/6
f 87/1/6 80/1/6 89/1/6
f 88/1/6 87/1/6 89/1/6
f 90/2/6 91/2/6 92/2/6
f 92/2/6 91/2/6 93/2/6
f 94/2/6 95/2/6 96/2/6
f 96/2/6 95/2/6 97/2/6
