# MagicaVoxel @ Ephtracy

# group
o 

# material
mtllib turtle.vox.mtl
usemtl palette

# normals
vn -1 0 0
vn 1 0 0
vn 0 0 1
vn 0 0 -1
vn 0 -1 0
vn 0 1 0

# texcoords
vt 0.0800781 0.5
vt 0.353516 0.5
vt 0.517578 0.5
vt 0.556641 0.5
vt 0.931641 0.5
vt 0.958984 0.5
vt 0.962891 0.5
vt 0.966797 0.5
vt 0.974609 0.5
vt 0.978516 0.5
vt 0.990234 0.5

# verts
v -1.1 0.2 0.9
v -1.1 0.2 -0.3
v -1.1 0.2 -0.7
v -1.1 0.2 -1.3
v -1.1 0.5 0.9
v -1.1 0.5 -0.3
v -1.1 0.5 -0.7
v -1.1 0.5 -1.3
v -1 0.5 0.8
v -1 0.5 -0.3
v -1 0.5 -0.7
v -1 0.5 -1.2
v -1 2 0.8
v -1 2 -0.3
v -1 2 -0.7
v -1 2 -1.2
v -0.8 0 0.6
v -0.8 0 0.2
v -0.8 0 -0.6
v -0.8 0 -1
v -0.8 0.2 0.6
v -0.8 0.2 0.2
v -0.8 0.2 -0.6
v -0.8 0.2 -1
v -0.7 0.6 1.2
v -0.7 0.6 0.8
v -0.7 1.7 1.2
v -0.7 1.7 0.8
v 0.4 0 0.6
v 0.4 0 0.2
v 0.4 0 -0.6
v 0.4 0 -1
v 0.4 0.2 0.6
v 0.4 0.2 0.2
v 0.4 0.2 -0.6
v 0.4 0.2 -1
v -0.4 0 0.6
v -0.4 0 0.2
v -0.4 0 -0.6
v -0.4 0 -1
v -0.4 0.2 0.6
v -0.4 0.2 0.2
v -0.4 0.2 -0.6
v -0.4 0.2 -1
v 0.7 0.6 1.2
v 0.7 0.6 0.8
v 0.7 1.7 1.2
v 0.7 1.7 0.8
v 0.8 0 0.6
v 0.8 0 0.2
v 0.8 0 -0.6
v 0.8 0 -1
v 0.8 0.2 0.6
v 0.8 0.2 0.2
v 0.8 0.2 -0.6
v 0.8 0.2 -1
v 1 0.5 0.8
v 1 0.5 0.1
v 1 0.5 -0.3
v 1 0.5 -1.2
v 1 2 0.8
v 1 2 0.1
v 1 2 -0.3
v 1 2 -1.2
v 1.1 0.2 0.9
v 1.1 0.2 0.1
v 1.1 0.2 -0.3
v 1.1 0.2 -1.3
v 1.1 0.5 0.9
v 1.1 0.5 0.1
v 1.1 0.5 -0.3
v 1.1 0.5 -1.3
v -0.7 0.6 1.2
v -0.7 1.7 1.2
v -0.5 0.9 1.2
v -0.5 1.3 1.2
v -0.2 0.9 1.2
v -0.2 1.3 1.2
v 0.2 0.9 1.2
v 0.2 1.3 1.2
v 0.5 0.9 1.2
v 0.5 1.3 1.2
v 0.7 0.6 1.2
v 0.7 1.7 1.2
v -1.1 0.2 0.9
v -1.1 0.5 0.9
v -0.7 0.2 0.9
v -0.7 0.5 0.9
v -0.3 0.2 0.9
v -0.3 0.5 0.9
v 1.1 0.2 0.9
v 1.1 0.5 0.9
v -1 0.5 0.8
v -1 2 0.8
v -0.7 0.5 0.8
v -0.7 0.6 0.8
v -0.7 1.7 0.8
v -0.7 2 0.8
v -0.3 0.5 0.8
v -0.3 0.6 0.8
v -0.3 1.7 0.8
v -0.3 2 0.8
v 0.7 0.6 0.8
v 0.7 1.7 0.8
v 1 0.5 0.8
v 1 2 0.8
v -0.8 0 0.6
v -0.8 0.2 0.6
v -0.4 0 0.6
v -0.4 0.2 0.6
v 0.4 0 0.6
v 0.4 0.2 0.6
v 0.8 0 0.6
v 0.8 0.2 0.6
v -0.8 0 -0.6
v -0.8 0.2 -0.6
v -0.4 0 -0.6
v -0.4 0.2 -0.6
v 0.4 0 -0.6
v 0.4 0.2 -0.6
v 0.8 0 -0.6
v 0.8 0.2 -0.6
v -0.8 0 0.2
v -0.8 0.2 0.2
v -0.4 0 0.2
v -0.4 0.2 0.2
v 0.4 0 0.2
v 0.4 0.2 0.2
v 0.8 0 0.2
v 0.8 0.2 0.2
v -0.8 0 -1
v -0.8 0.2 -1
v -0.4 0 -1
v -0.4 0.2 -1
v 0.4 0 -1
v 0.4 0.2 -1
v 0.8 0 -1
v 0.8 0.2 -1
v -1 0.5 -1.2
v -1 2 -1.2
v 0.2 0.5 -1.2
v 0.2 2 -1.2
v 0.6 0.5 -1.2
v 0.6 2 -1.2
v 1 0.5 -1.2
v 1 2 -1.2
v -1.1 0.2 -1.3
v -1.1 0.5 -1.3
v 0.2 0.2 -1.3
v 0.2 0.5 -1.3
v 0.6 0.2 -1.3
v 0.6 0.5 -1.3
v 1.1 0.2 -1.3
v 1.1 0.5 -1.3
v -0.8 0 0.6
v -0.4 0 0.6
v 0.4 0 0.6
v 0.8 0 0.6
v -0.8 0 0.2
v -0.4 0 0.2
v 0.4 0 0.2
v 0.8 0 0.2
v -0.8 0 -0.6
v -0.4 0 -0.6
v 0.4 0 -0.6
v 0.8 0 -0.6
v -0.8 0 -1
v -0.4 0 -1
v 0.4 0 -1
v 0.8 0 -1
v -1.1 0.2 0.9
v -0.7 0.2 0.9
v -0.3 0.2 0.9
v 1.1 0.2 0.9
v -0.7 0.2 0.7
v -0.3 0.2 0.7
v -0.8 0.2 0.6
v -0.4 0.2 0.6
v 0.4 0.2 0.6
v 0.8 0.2 0.6
v -0.8 0.2 0.2
v -0.4 0.2 0.2
v 0.4 0.2 0.2
v 0.8 0.2 0.2
v 0.9 0.2 0.1
v 1.1 0.2 0.1
v -1.1 0.2 -0.3
v -0.9 0.2 -0.3
v 0.9 0.2 -0.3
v 1.1 0.2 -0.3
v -0.8 0.2 -0.6
v -0.4 0.2 -0.6
v 0.4 0.2 -0.6
v 0.8 0.2 -0.6
v -1.1 0.2 -0.7
v -0.9 0.2 -0.7
v -0.8 0.2 -1
v -0.4 0.2 -1
v 0.4 0.2 -1
v 0.8 0.2 -1
v 0.2 0.2 -1.1
v 0.6 0.2 -1.1
v -1.1 0.2 -1.3
v 0.2 0.2 -1.3
v 0.6 0.2 -1.3
v 1.1 0.2 -1.3
v -0.7 0.6 1.2
v 0.7 0.6 1.2
v -0.7 0.6 0.8
v -0.3 0.6 0.8
v 0.7 0.6 0.8
v -1.1 0.5 0.9
v -0.7 0.5 0.9
v -0.3 0.5 0.9
v 1.1 0.5 0.9
v -1 0.5 0.8
v -0.7 0.5 0.8
v -0.3 0.5 0.8
v 1 0.5 0.8
v 1 0.5 0.1
v 1.1 0.5 0.1
v -1.1 0.5 -0.3
v -1 0.5 -0.3
v 1 0.5 -0.3
v 1.1 0.5 -0.3
v -1.1 0.5 -0.7
v -1 0.5 -0.7
v -1 0.5 -1.2
v 0.2 0.5 -1.2
v 0.6 0.5 -1.2
v 1 0.5 -1.2
v -1.1 0.5 -1.3
v 0.2 0.5 -1.3
v 0.6 0.5 -1.3
v 1.1 0.5 -1.3
v -0.7 1.7 1.2
v 0.7 1.7 1.2
v -0.7 1.7 0.8
v -0.3 1.7 0.8
v 0.7 1.7 0.8
v -1 2 0.8
v -0.7 2 0.8
v -0.3 2 0.8
v 1 2 0.8
v 0.2 2 0.1
v 1 2 0.1
v -1 2 -0.3
v -0.7 2 -0.3
v 0.6 2 -0.3
v 1 2 -0.3
v -1 2 -0.7
v -0.3 2 -0.7
v -1 2 -1.2
v 0.2 2 -1.2
v 0.6 2 -1.2
v 1 2 -1.2

# faces
f 5/5/1 2/5/1 1/5/1
f 6/1/1 3/1/1 2/1/1
f 6/5/1 2/5/1 5/5/1
f 7/5/1 4/5/1 3/5/1
f 7/1/1 3/1/1 6/1/1
f 8/5/1 4/5/1 7/5/1
f 13/5/1 10/5/1 9/5/1
f 14/1/1 11/1/1 10/1/1
f 14/5/1 10/5/1 13/5/1
f 15/5/1 12/5/1 11/5/1
f 15/1/1 11/1/1 14/1/1
f 16/5/1 12/5/1 15/5/1
f 21/2/1 18/2/1 17/2/1
f 22/2/1 18/2/1 21/2/1
f 23/2/1 20/2/1 19/2/1
f 24/2/1 20/2/1 23/2/1
f 27/2/1 26/2/1 25/2/1
f 28/2/1 26/2/1 27/2/1
f 33/2/1 30/2/1 29/2/1
f 34/2/1 30/2/1 33/2/1
f 35/2/1 32/2/1 31/2/1
f 36/2/1 32/2/1 35/2/1
f 37/2/2 38/2/2 41/2/2
f 41/2/2 38/2/2 42/2/2
f 39/2/2 40/2/2 43/2/2
f 43/2/2 40/2/2 44/2/2
f 45/2/2 46/2/2 47/2/2
f 47/2/2 46/2/2 48/2/2
f 49/2/2 50/2/2 53/2/2
f 53/2/2 50/2/2 54/2/2
f 51/2/2 52/2/2 55/2/2
f 55/2/2 52/2/2 56/2/2
f 57/5/2 58/5/2 61/5/2
f 58/1/2 59/1/2 62/1/2
f 61/5/2 58/5/2 62/5/2
f 59/5/2 60/5/2 63/5/2
f 62/1/2 59/1/2 63/1/2
f 63/5/2 60/5/2 64/5/2
f 65/5/2 66/5/2 69/5/2
f 66/1/2 67/1/2 70/1/2
f 69/5/2 66/5/2 70/5/2
f 67/5/2 68/5/2 71/5/2
f 70/1/2 67/1/2 71/1/2
f 71/5/2 68/5/2 72/5/2
f 75/2/3 74/2/3 73/2/3
f 76/2/3 74/2/3 75/2/3
f 77/2/3 75/2/3 73/2/3
f 77/11/3 76/11/3 75/11/3
f 78/2/3 74/2/3 76/2/3
f 78/11/3 76/11/3 77/11/3
f 79/2/3 77/2/3 73/2/3
f 79/2/3 78/2/3 77/2/3
f 80/2/3 74/2/3 78/2/3
f 80/2/3 78/2/3 79/2/3
f 81/2/3 79/2/3 73/2/3
f 81/11/3 80/11/3 79/11/3
f 82/2/3 74/2/3 80/2/3
f 82/11/3 80/11/3 81/11/3
f 83/2/3 81/2/3 73/2/3
f 83/2/3 82/2/3 81/2/3
f 84/2/3 74/2/3 82/2/3
f 84/2/3 82/2/3 83/2/3
f 87/5/3 86/5/3 85/5/3
f 88/5/3 86/5/3 87/5/3
f 89/1/3 88/1/3 87/1/3
f 90/1/3 88/1/3 89/1/3
f 91/5/3 90/5/3 89/5/3
f 92/5/3 90/5/3 91/5/3
f 95/5/3 94/5/3 93/5/3
f 96/5/3 94/5/3 95/5/3
f 97/5/3 94/5/3 96/5/3
f 98/5/3 94/5/3 97/5/3
f 99/1/3 96/1/3 95/1/3
f 100/1/3 96/1/3 99/1/3
f 101/1/3 98/1/3 97/1/3
f 102/1/3 98/1/3 101/1/3
f 103/5/3 100/5/3 99/5/3
f 104/5/3 102/5/3 101/5/3
f 105/5/3 103/5/3 99/5/3
f 105/5/3 104/5/3 103/5/3
f 106/5/3 102/5/3 104/5/3
f 106/5/3 104/5/3 105/5/3
f 109/2/3 108/2/3 107/2/3
f 110/2/3 108/2/3 109/2/3
f 113/2/3 112/2/3 111/2/3
f 114/2/3 112/2/3 113/2/3
f 117/2/3 116/2/3 115/2/3
f 118/2/3 116/2/3 117/2/3
f 121/2/3 120/2/3 119/2/3
f 122/2/3 120/2/3 121/2/3
f 123/2/4 124/2/4 125/2/4
f 125/2/4 124/2/4 126/2/4
f 127/2/4 128/2/4 129/2/4
f 129/2/4 128/2/4 130/2/4
f 131/2/4 132/2/4 133/2/4
f 133/2/4 132/2/4 134/2/4
f 135/2/4 136/2/4 137/2/4
f 137/2/4 136/2/4 138/2/4
f 139/5/4 140/5/4 141/5/4
f 141/5/4 140/5/4 142/5/4
f 141/1/4 142/1/4 143/1/4
f 143/1/4 142/1/4 144/1/4
f 143/5/4 144/5/4 145/5/4
f 145/5/4 144/5/4 146/5/4
f 147/5/4 148/5/4 149/5/4
f 149/5/4 148/5/4 150/5/4
f 149/1/4 150/1/4 151/1/4
f 151/1/4 150/1/4 152/1/4
f 151/5/4 152/5/4 153/5/4
f 153/5/4 152/5/4 154/5/4
f 159/2/5 156/2/5 155/2/5
f 160/2/5 156/2/5 159/2/5
f 161/2/5 158/2/5 157/2/5
f 162/2/5 158/2/5 161/2/5
f 167/2/5 164/2/5 163/2/5
f 168/2/5 164/2/5 167/2/5
f 169/2/5 166/2/5 165/2/5
f 170/2/5 166/2/5 169/2/5
f 175/5/5 172/5/5 171/5/5
f 175/1/5 173/1/5 172/1/5
f 176/5/5 174/5/5 173/5/5
f 176/1/5 173/1/5 175/1/5
f 177/5/5 175/5/5 171/5/5
f 177/5/5 176/5/5 175/5/5
f 178/5/5 176/5/5 177/5/5
f 179/5/5 174/5/5 176/5/5
f 179/5/5 176/5/5 178/5/5
f 180/5/5 174/5/5 179/5/5
f 181/5/5 177/5/5 171/5/5
f 182/5/5 179/5/5 178/5/5
f 183/5/5 179/5/5 182/5/5
f 184/5/5 174/5/5 180/5/5
f 185/5/5 183/5/5 182/5/5
f 185/5/5 184/5/5 183/5/5
f 185/5/5 174/5/5 184/5/5
f 185/5/5 182/5/5 181/5/5
f 186/5/5 174/5/5 185/5/5
f 187/5/5 181/5/5 171/5/5
f 187/5/5 185/5/5 181/5/5
f 188/5/5 185/5/5 187/5/5
f 189/1/5 186/1/5 185/1/5
f 189/5/5 185/5/5 188/5/5
f 190/1/5 186/1/5 189/1/5
f 191/5/5 189/5/5 188/5/5
f 191/5/5 190/5/5 189/5/5
f 192/5/5 190/5/5 191/5/5
f 193/5/5 190/5/5 192/5/5
f 194/5/5 190/5/5 193/5/5
f 195/1/5 188/1/5 187/1/5
f 196/5/5 191/5/5 188/5/5
f 196/1/5 188/1/5 195/1/5
f 197/5/5 196/5/5 195/5/5
f 197/5/5 191/5/5 196/5/5
f 198/5/5 193/5/5 192/5/5
f 199/5/5 193/5/5 198/5/5
f 200/5/5 190/5/5 194/5/5
f 201/5/5 199/5/5 198/5/5
f 201/5/5 200/5/5 199/5/5
f 201/5/5 198/5/5 197/5/5
f 202/5/5 200/5/5 201/5/5
f 203/5/5 197/5/5 195/5/5
f 203/5/5 201/5/5 197/5/5
f 204/1/5 202/1/5 201/1/5
f 204/5/5 201/5/5 203/5/5
f 205/5/5 200/5/5 202/5/5
f 205/1/5 202/1/5 204/1/5
f 206/5/5 190/5/5 200/5/5
f 206/5/5 200/5/5 205/5/5
f 209/2/5 208/2/5 207/2/5
f 210/2/5 208/2/5 209/2/5
f 211/2/5 208/2/5 210/2/5
f 212/5/6 213/5/6 216/5/6
f 213/1/6 214/1/6 217/1/6
f 216/5/6 213/5/6 217/5/6
f 214/5/6 215/5/6 218/5/6
f 217/1/6 214/1/6 218/1/6
f 218/5/6 215/5/6 219/5/6
f 219/5/6 215/5/6 220/5/6
f 220/5/6 215/5/6 221/5/6
f 212/5/6 216/5/6 222/5/6
f 222/5/6 216/5/6 223/5/6
f 220/1/6 221/1/6 224/1/6
f 224/1/6 221/1/6 225/1/6
f 222/1/6 223/1/6 226/1/6
f 226/1/6 223/1/6 227/1/6
f 226/5/6 227/5/6 228/5/6
f 224/5/6 225/5/6 231/5/6
f 226/5/6 228/5/6 232/5/6
f 228/5/6 229/5/6 232/5/6
f 229/1/6 230/1/6 233/1/6
f 232/5/6 229/5/6 233/5/6
f 230/5/6 231/5/6 234/5/6
f 233/1/6 230/1/6 234/1/6
f 231/5/6 225/5/6 235/5/6
f 234/5/6 231/5/6 235/5/6
f 236/2/6 237/2/6 238/2/6
f 238/2/6 237/2/6 239/2/6
f 239/2/6 237/2/6 240/2/6
f 243/5/6 244/5/6 245/5/6
f 245/5/6 244/5/6 246/5/6
f 241/5/6 242/5/6 247/5/6
f 242/1/6 243/1/6 248/1/6
f 247/5/6 242/5/6 248/5/6
f 245/1/6 246/1/6 249/1/6
f 249/1/6 246/1/6 250/1/6
f 247/1/6 248/1/6 251/1/6
f 243/5/6 245/5/6 252/5/6
f 251/1/6 248/1/6 252/1/6
f 248/1/6 243/1/6 252/1/6
f 251/5/6 252/5/6 253/5/6
f 245/1/6 249/1/6 254/1/6
f 253/5/6 252/5/6 254/5/6
f 252/5/6 245/5/6 254/5/6
f 249/5/6 250/5/6 255/5/6
f 254/1/6 249/1/6 255/1/6
f 255/5/6 250/5/6 256/5/6
