# MagicaVoxel @ Ephtracy

# group
o 

# material
mtllib walktile.vox.mtl
usemtl palette

# normals
vn -1 0 0
vn 1 0 0
vn 0 0 1
vn 0 0 -1
vn 0 -1 0
vn 0 1 0

# texcoords
vt 0.427734 0.5
vt 0.541016 0.5
vt 0.939453 0.5
vt 0.943359 0.5

# verts
v -1 0 1
v -1 0 0.8
v -1 0 -0.8
v -1 0 -1
v -1 1.4 0.8
v -1 1.4 -0.8
v -1 1.6 1
v -1 1.6 -1
v 1 0 1
v 1 0 0.8
v 1 0 -0.8
v 1 0 -1
v 1 1.4 0.8
v 1 1.4 -0.8
v 1 1.6 1
v 1 1.6 -1
v -1 0 1
v -1 1.6 1
v -0.8 0 1
v -0.8 1.4 1
v 0.8 0 1
v 0.8 1.4 1
v 1 0 1
v 1 1.6 1
v -1 0 -1
v -1 1.6 -1
v -0.8 0 -1
v -0.8 1.4 -1
v 0.8 0 -1
v 0.8 1.4 -1
v 1 0 -1
v 1 1.6 -1
v -1 0 1
v -0.8 0 1
v 0.8 0 1
v 1 0 1
v -0.9 0 0.9
v -0.8 0 0.9
v 0.8 0 0.9
v 0.9 0 0.9
v -1 0 0.8
v -0.9 0 0.8
v -0.8 0 0.8
v 0.8 0 0.8
v 0.9 0 0.8
v 1 0 0.8
v -1 0 -0.8
v -0.9 0 -0.8
v -0.8 0 -0.8
v 0.8 0 -0.8
v 0.9 0 -0.8
v 1 0 -0.8
v -0.9 0 -0.9
v -0.8 0 -0.9
v 0.8 0 -0.9
v 0.9 0 -0.9
v -1 0 -1
v -0.8 0 -1
v 0.8 0 -1
v 1 0 -1
v -1 1.6 1
v 1 1.6 1
v -0.8 1.6 0.8
v 0.8 1.6 0.8
v -0.8 1.6 -0.8
v 0.8 1.6 -0.8
v -1 1.6 -1
v 1 1.6 -1

# faces
f 5/3/1 2/3/1 1/3/1
f 5/4/1 3/4/1 2/4/1
f 6/3/1 4/3/1 3/3/1
f 6/4/1 3/4/1 5/4/1
f 7/3/1 5/3/1 1/3/1
f 7/3/1 6/3/1 5/3/1
f 8/3/1 4/3/1 6/3/1
f 8/3/1 6/3/1 7/3/1
f 9/3/2 10/3/2 13/3/2
f 10/4/2 11/4/2 13/4/2
f 11/3/2 12/3/2 14/3/2
f 13/4/2 11/4/2 14/4/2
f 9/3/2 13/3/2 15/3/2
f 13/3/2 14/3/2 15/3/2
f 14/3/2 12/3/2 16/3/2
f 15/3/2 14/3/2 16/3/2
f 19/3/3 18/3/3 17/3/3
f 20/3/3 18/3/3 19/3/3
f 21/4/3 20/4/3 19/4/3
f 22/3/3 18/3/3 20/3/3
f 22/4/3 20/4/3 21/4/3
f 23/3/3 22/3/3 21/3/3
f 24/3/3 18/3/3 22/3/3
f 24/3/3 22/3/3 23/3/3
f 25/3/4 26/3/4 27/3/4
f 27/3/4 26/3/4 28/3/4
f 27/4/4 28/4/4 29/4/4
f 28/3/4 26/3/4 30/3/4
f 29/4/4 28/4/4 30/4/4
f 29/3/4 30/3/4 31/3/4
f 30/3/4 26/3/4 32/3/4
f 31/3/4 30/3/4 32/3/4
f 37/3/5 34/3/5 33/3/5
f 38/4/5 35/4/5 34/4/5
f 38/3/5 34/3/5 37/3/5
f 39/3/5 36/3/5 35/3/5
f 39/4/5 35/4/5 38/4/5
f 40/3/5 36/3/5 39/3/5
f 41/3/5 37/3/5 33/3/5
f 42/1/5 38/1/5 37/1/5
f 42/3/5 37/3/5 41/3/5
f 43/2/5 39/2/5 38/2/5
f 43/1/5 38/1/5 42/1/5
f 44/1/5 40/1/5 39/1/5
f 44/2/5 39/2/5 43/2/5
f 45/3/5 36/3/5 40/3/5
f 45/1/5 40/1/5 44/1/5
f 46/3/5 36/3/5 45/3/5
f 47/4/5 42/4/5 41/4/5
f 48/2/5 44/2/5 43/2/5
f 48/4/5 42/4/5 47/4/5
f 48/2/5 43/2/5 42/2/5
f 48/2/5 45/2/5 44/2/5
f 49/2/5 45/2/5 48/2/5
f 50/2/5 45/2/5 49/2/5
f 51/4/5 46/4/5 45/4/5
f 51/2/5 45/2/5 50/2/5
f 52/4/5 46/4/5 51/4/5
f 53/3/5 48/3/5 47/3/5
f 53/1/5 49/1/5 48/1/5
f 54/2/5 50/2/5 49/2/5
f 54/1/5 49/1/5 53/1/5
f 55/1/5 51/1/5 50/1/5
f 55/2/5 50/2/5 54/2/5
f 56/3/5 52/3/5 51/3/5
f 56/1/5 51/1/5 55/1/5
f 57/3/5 53/3/5 47/3/5
f 57/3/5 54/3/5 53/3/5
f 58/4/5 55/4/5 54/4/5
f 58/3/5 54/3/5 57/3/5
f 59/3/5 56/3/5 55/3/5
f 59/4/5 55/4/5 58/4/5
f 60/3/5 52/3/5 56/3/5
f 60/3/5 56/3/5 59/3/5
f 61/3/6 62/3/6 63/3/6
f 63/3/6 62/3/6 64/3/6
f 61/3/6 63/3/6 65/3/6
f 63/4/6 64/4/6 65/4/6
f 64/3/6 62/3/6 66/3/6
f 65/4/6 64/4/6 66/4/6
f 61/3/6 65/3/6 67/3/6
f 65/3/6 66/3/6 67/3/6
f 66/3/6 62/3/6 68/3/6
f 67/3/6 66/3/6 68/3/6
