# MagicaVoxel @ Ephtracy

# group
o 

# material
mtllib candy.vox.mtl
usemtl palette

# normals
vn -1 0 0
vn 1 0 0
vn 0 0 1
vn 0 0 -1
vn 0 -1 0
vn 0 1 0

# texcoords
vt 0.369141 0.5
vt 0.705078 0.5
vt 0.958984 0.5

# verts
v -0.4 1 0.2
v -0.4 1 -0.2
v -0.4 1.4 0.2
v -0.4 1.4 -0.2
v -0.3 0.9 0.2
v -0.3 0.9 -0.2
v -0.3 1 0.2
v -0.3 1 -0.2
v -0.3 1.4 0.2
v -0.3 1.4 -0.2
v -0.3 1.5 0.2
v -0.3 1.5 -0.2
v -0.2 0.8 0.2
v -0.2 0.8 0.1
v -0.2 0.8 -0.1
v -0.2 0.8 -0.2
v -0.2 0.9 0.2
v -0.2 0.9 0.1
v -0.2 0.9 -0.1
v -0.2 0.9 -0.2
v -0.2 1.1 0.1
v -0.2 1.1 -0.1
v -0.2 1.4 0.1
v -0.2 1.4 -0.1
v -0.2 1.5 0.2
v -0.2 1.5 -0.2
v -0.2 1.6 0.2
v -0.2 1.6 -0.2
v -0.1 0 0.1
v -0.1 0 -0.1
v -0.1 0.8 0.1
v -0.1 0.8 -0.1
v -0.1 1.4 0.1
v -0.1 1.4 -0.1
v -0.1 1.5 0.1
v -0.1 1.5 -0.1
v 0 1.2 0.1
v 0 1.2 -0.1
v 0 1.3 0.1
v 0 1.3 -0.1
v 0.1 1 0.1
v 0.1 1 -0.1
v 0.1 1.1 0.1
v 0.1 1.1 -0.1
v 0.1 1.3 0.1
v 0.1 1.3 -0.1
v 0.1 1.4 0.1
v 0.1 1.4 -0.1
v 0.2 1.1 0.1
v 0.2 1.1 -0.1
v 0.2 1.3 0.1
v 0.2 1.3 -0.1
v -0.3 1.1 0.1
v -0.3 1.1 -0.1
v -0.3 1.4 0.1
v -0.3 1.4 -0.1
v -0.2 1 0.1
v -0.2 1 -0.1
v -0.2 1.1 0.1
v -0.2 1.1 -0.1
v -0.2 1.4 0.1
v -0.2 1.4 -0.1
v -0.2 1.5 0.1
v -0.2 1.5 -0.1
v -0.1 1.2 0.1
v -0.1 1.2 -0.1
v -0.1 1.3 0.1
v -0.1 1.3 -0.1
v 0 1.3 0.1
v 0 1.3 -0.1
v 0 1.4 0.1
v 0 1.4 -0.1
v 0.1 0 0.1
v 0.1 0 -0.1
v 0.1 0.8 0.1
v 0.1 0.8 -0.1
v 0.1 1.1 0.1
v 0.1 1.1 -0.1
v 0.1 1.3 0.1
v 0.1 1.3 -0.1
v 0.2 0.8 0.2
v 0.2 0.8 0.1
v 0.2 0.8 -0.1
v 0.2 0.8 -0.2
v 0.2 0.9 0.2
v 0.2 0.9 0.1
v 0.2 0.9 -0.1
v 0.2 0.9 -0.2
v 0.2 1 0.1
v 0.2 1 -0.1
v 0.2 1.5 0.2
v 0.2 1.5 0.1
v 0.2 1.5 -0.1
v 0.2 1.5 -0.2
v 0.2 1.6 0.2
v 0.2 1.6 0.1
v 0.2 1.6 -0.1
v 0.2 1.6 -0.2
v 0.3 0.9 0.2
v 0.3 0.9 0.1
v 0.3 0.9 -0.1
v 0.3 0.9 -0.2
v 0.3 1 0.2
v 0.3 1 0.1
v 0.3 1 -0.1
v 0.3 1 -0.2
v 0.3 1.4 0.2
v 0.3 1.4 0.1
v 0.3 1.4 -0.1
v 0.3 1.4 -0.2
v 0.3 1.5 0.2
v 0.3 1.5 0.1
v 0.3 1.5 -0.1
v 0.3 1.5 -0.2
v 0.4 1 0.2
v 0.4 1 0.1
v 0.4 1 -0.1
v 0.4 1 -0.2
v 0.4 1.4 0.2
v 0.4 1.4 0.1
v 0.4 1.4 -0.1
v 0.4 1.4 -0.2
v -0.4 1 0.2
v -0.4 1.4 0.2
v -0.3 0.9 0.2
v -0.3 1 0.2
v -0.3 1.1 0.2
v -0.3 1.4 0.2
v -0.3 1.5 0.2
v -0.2 0.8 0.2
v -0.2 0.9 0.2
v -0.2 1 0.2
v -0.2 1.1 0.2
v -0.2 1.4 0.2
v -0.2 1.5 0.2
v -0.2 1.6 0.2
v -0.1 1.2 0.2
v -0.1 1.3 0.2
v -0.1 1.4 0.2
v -0.1 1.5 0.2
v -0.1 1.6 0.2
v 0 1.2 0.2
v 0 1.3 0.2
v 0 1.4 0.2
v 0.1 1 0.2
v 0.1 1.1 0.2
v 0.1 1.3 0.2
v 0.1 1.4 0.2
v 0.2 0.8 0.2
v 0.2 0.9 0.2
v 0.2 1 0.2
v 0.2 1.1 0.2
v 0.2 1.3 0.2
v 0.2 1.4 0.2
v 0.2 1.5 0.2
v 0.2 1.6 0.2
v 0.3 0.9 0.2
v 0.3 1 0.2
v 0.3 1.4 0.2
v 0.3 1.5 0.2
v 0.4 1 0.2
v 0.4 1.4 0.2
v -0.1 0 0.1
v -0.1 0.8 0.1
v 0.1 0 0.1
v 0.1 0.8 0.1
v -0.3 1.1 -0.1
v -0.3 1.4 -0.1
v -0.2 1 -0.1
v -0.2 1.1 -0.1
v -0.2 1.4 -0.1
v -0.2 1.5 -0.1
v -0.1 1.2 -0.1
v -0.1 1.3 -0.1
v -0.1 1.4 -0.1
v -0.1 1.5 -0.1
v 0 1.2 -0.1
v 0 1.3 -0.1
v 0 1.4 -0.1
v 0.1 1 -0.1
v 0.1 1.1 -0.1
v 0.1 1.3 -0.1
v 0.1 1.4 -0.1
v 0.2 0.9 -0.1
v 0.2 1 -0.1
v 0.2 1.1 -0.1
v 0.2 1.3 -0.1
v 0.3 0.9 -0.1
v 0.3 1 -0.1
v -0.3 1.1 0.1
v -0.3 1.4 0.1
v -0.2 1 0.1
v -0.2 1.1 0.1
v -0.2 1.4 0.1
v -0.2 1.5 0.1
v -0.1 1.2 0.1
v -0.1 1.3 0.1
v -0.1 1.4 0.1
v -0.1 1.5 0.1
v 0 1.2 0.1
v 0 1.3 0.1
v 0 1.4 0.1
v 0.1 1 0.1
v 0.1 1.1 0.1
v 0.1 1.3 0.1
v 0.1 1.4 0.1
v 0.2 0.9 0.1
v 0.2 1 0.1
v 0.2 1.1 0.1
v 0.2 1.3 0.1
v 0.3 0.9 0.1
v 0.3 1 0.1
v -0.1 0 -0.1
v -0.1 0.8 -0.1
v 0.1 0 -0.1
v 0.1 0.8 -0.1
v -0.4 1 -0.2
v -0.4 1.4 -0.2
v -0.3 0.9 -0.2
v -0.3 1 -0.2
v -0.3 1.1 -0.2
v -0.3 1.4 -0.2
v -0.3 1.5 -0.2
v -0.2 0.8 -0.2
v -0.2 0.9 -0.2
v -0.2 1 -0.2
v -0.2 1.1 -0.2
v -0.2 1.4 -0.2
v -0.2 1.5 -0.2
v -0.2 1.6 -0.2
v -0.1 1.2 -0.2
v -0.1 1.3 -0.2
v -0.1 1.4 -0.2
v -0.1 1.5 -0.2
v -0.1 1.6 -0.2
v 0 1.2 -0.2
v 0 1.3 -0.2
v 0 1.4 -0.2
v 0.1 1 -0.2
v 0.1 1.1 -0.2
v 0.1 1.3 -0.2
v 0.1 1.4 -0.2
v 0.2 0.8 -0.2
v 0.2 0.9 -0.2
v 0.2 1 -0.2
v 0.2 1.1 -0.2
v 0.2 1.3 -0.2
v 0.2 1.4 -0.2
v 0.2 1.5 -0.2
v 0.2 1.6 -0.2
v 0.3 0.9 -0.2
v 0.3 1 -0.2
v 0.3 1.4 -0.2
v 0.3 1.5 -0.2
v 0.4 1 -0.2
v 0.4 1.4 -0.2
v -0.1 0 0.1
v 0.1 0 0.1
v -0.1 0 -0.1
v 0.1 0 -0.1
v -0.2 0.8 0.2
v 0.2 0.8 0.2
v -0.2 0.8 0.1
v -0.1 0.8 0.1
v 0.1 0.8 0.1
v 0.2 0.8 0.1
v -0.2 0.8 -0.1
v -0.1 0.8 -0.1
v 0.1 0.8 -0.1
v 0.2 0.8 -0.1
v -0.2 0.8 -0.2
v 0.2 0.8 -0.2
v -0.3 0.9 0.2
v -0.2 0.9 0.2
v 0.2 0.9 0.2
v 0.3 0.9 0.2
v -0.2 0.9 0.1
v 0.2 0.9 0.1
v 0.3 0.9 0.1
v -0.2 0.9 -0.1
v 0.2 0.9 -0.1
v 0.3 0.9 -0.1
v -0.3 0.9 -0.2
v -0.2 0.9 -0.2
v 0.2 0.9 -0.2
v 0.3 0.9 -0.2
v -0.4 1 0.2
v -0.3 1 0.2
v 0.3 1 0.2
v 0.4 1 0.2
v 0.2 1 0.1
v 0.3 1 0.1
v 0.4 1 0.1
v 0.2 1 -0.1
v 0.3 1 -0.1
v 0.4 1 -0.1
v -0.4 1 -0.2
v -0.3 1 -0.2
v 0.3 1 -0.2
v 0.4 1 -0.2
v -0.2 1.1 0.1
v 0.1 1.1 0.1
v -0.2 1.1 -0.1
v 0.1 1.1 -0.1
v -0.1 1.3 0.1
v 0 1.3 0.1
v 0.1 1.3 0.1
v 0.2 1.3 0.1
v -0.1 1.3 -0.1
v 0 1.3 -0.1
v 0.1 1.3 -0.1
v 0.2 1.3 -0.1
v -0.3 1.4 0.1
v -0.2 1.4 0.1
v 0 1.4 0.1
v 0.1 1.4 0.1
v -0.3 1.4 -0.1
v -0.2 1.4 -0.1
v 0 1.4 -0.1
v 0.1 1.4 -0.1
v -0.2 1.5 0.1
v -0.1 1.5 0.1
v -0.2 1.5 -0.1
v -0.1 1.5 -0.1
v -0.2 1 0.1
v 0.1 1 0.1
v -0.2 1 -0.1
v 0.1 1 -0.1
v -0.3 1.1 0.1
v -0.2 1.1 0.1
v 0.1 1.1 0.1
v 0.2 1.1 0.1
v -0.3 1.1 -0.1
v -0.2 1.1 -0.1
v 0.1 1.1 -0.1
v 0.2 1.1 -0.1
v -0.1 1.2 0.1
v 0 1.2 0.1
v -0.1 1.2 -0.1
v 0 1.2 -0.1
v 0 1.3 0.1
v 0.1 1.3 0.1
v 0 1.3 -0.1
v 0.1 1.3 -0.1
v -0.4 1.4 0.2
v -0.3 1.4 0.2
v 0.3 1.4 0.2
v 0.4 1.4 0.2
v -0.2 1.4 0.1
v -0.1 1.4 0.1
v 0.3 1.4 0.1
v 0.4 1.4 0.1
v -0.2 1.4 -0.1
v -0.1 1.4 -0.1
v 0.3 1.4 -0.1
v 0.4 1.4 -0.1
v -0.4 1.4 -0.2
v -0.3 1.4 -0.2
v 0.3 1.4 -0.2
v 0.4 1.4 -0.2
v -0.3 1.5 0.2
v -0.2 1.5 0.2
v 0.2 1.5 0.2
v 0.3 1.5 0.2
v 0.2 1.5 0.1
v 0.3 1.5 0.1
v 0.2 1.5 -0.1
v 0.3 1.5 -0.1
v -0.3 1.5 -0.2
v -0.2 1.5 -0.2
v 0.2 1.5 -0.2
v 0.3 1.5 -0.2
v -0.2 1.6 0.2
v -0.1 1.6 0.2
v 0.2 1.6 0.2
v -0.1 1.6 0.1
v 0.2 1.6 0.1
v -0.1 1.6 -0.1
v 0.2 1.6 -0.1
v -0.2 1.6 -0.2
v -0.1 1.6 -0.2
v 0.2 1.6 -0.2

# faces
f 3/3/1 2/3/1 1/3/1
f 4/3/1 2/3/1 3/3/1
f 7/3/1 6/3/1 5/3/1
f 8/3/1 6/3/1 7/3/1
f 11/3/1 10/3/1 9/3/1
f 12/3/1 10/3/1 11/3/1
f 17/2/1 14/2/1 13/2/1
f 18/3/1 15/3/1 14/3/1
f 18/2/1 14/2/1 17/2/1
f 19/2/1 16/2/1 15/2/1
f 19/3/1 15/3/1 18/3/1
f 20/2/1 16/2/1 19/2/1
f 23/3/1 22/3/1 21/3/1
f 24/3/1 22/3/1 23/3/1
f 27/3/1 26/3/1 25/3/1
f 28/3/1 26/3/1 27/3/1
f 31/1/1 30/1/1 29/1/1
f 32/1/1 30/1/1 31/1/1
f 35/3/1 34/3/1 33/3/1
f 36/3/1 34/3/1 35/3/1
f 39/3/1 38/3/1 37/3/1
f 40/3/1 38/3/1 39/3/1
f 43/3/1 42/3/1 41/3/1
f 44/3/1 42/3/1 43/3/1
f 47/3/1 46/3/1 45/3/1
f 48/3/1 46/3/1 47/3/1
f 51/3/1 50/3/1 49/3/1
f 52/3/1 50/3/1 51/3/1
f 53/3/2 54/3/2 55/3/2
f 55/3/2 54/3/2 56/3/2
f 57/3/2 58/3/2 59/3/2
f 59/3/2 58/3/2 60/3/2
f 61/3/2 62/3/2 63/3/2
f 63/3/2 62/3/2 64/3/2
f 65/3/2 66/3/2 67/3/2
f 67/3/2 66/3/2 68/3/2
f 69/3/2 70/3/2 71/3/2
f 71/3/2 70/3/2 72/3/2
f 73/1/2 74/1/2 75/1/2
f 75/1/2 74/1/2 76/1/2
f 77/3/2 78/3/2 79/3/2
f 79/3/2 78/3/2 80/3/2
f 81/2/2 82/2/2 85/2/2
f 82/3/2 83/3/2 86/3/2
f 85/2/2 82/2/2 86/2/2
f 83/2/2 84/2/2 87/2/2
f 86/3/2 83/3/2 87/3/2
f 87/2/2 84/2/2 88/2/2
f 86/3/2 87/3/2 89/3/2
f 89/3/2 87/3/2 90/3/2
f 91/2/2 92/2/2 95/2/2
f 92/3/2 93/3/2 96/3/2
f 95/2/2 92/2/2 96/2/2
f 93/2/2 94/2/2 97/2/2
f 96/3/2 93/3/2 97/3/2
f 97/2/2 94/2/2 98/2/2
f 99/2/2 100/2/2 103/2/2
f 103/2/2 100/2/2 104/2/2
f 101/2/2 102/2/2 105/2/2
f 105/2/2 102/2/2 106/2/2
f 107/2/2 108/2/2 111/2/2
f 108/3/2 109/3/2 112/3/2
f 111/2/2 108/2/2 112/2/2
f 109/2/2 110/2/2 113/2/2
f 112/3/2 109/3/2 113/3/2
f 113/2/2 110/2/2 114/2/2
f 115/2/2 116/2/2 119/2/2
f 116/3/2 117/3/2 120/3/2
f 119/2/2 116/2/2 120/2/2
f 117/2/2 118/2/2 121/2/2
f 120/3/2 117/3/2 121/3/2
f 121/2/2 118/2/2 122/2/2
f 126/3/3 124/3/3 123/3/3
f 127/3/3 124/3/3 126/3/3
f 128/3/3 124/3/3 127/3/3
f 131/3/3 126/3/3 125/3/3
f 131/3/3 127/3/3 126/3/3
f 132/3/3 127/3/3 131/3/3
f 133/2/3 128/2/3 127/2/3
f 133/3/3 127/3/3 132/3/3
f 134/3/3 129/3/3 128/3/3
f 134/2/3 128/2/3 133/2/3
f 135/3/3 129/3/3 134/3/3
f 137/3/3 134/3/3 133/3/3
f 138/3/3 134/3/3 137/3/3
f 139/2/3 135/2/3 134/2/3
f 139/3/3 134/3/3 138/3/3
f 140/3/3 136/3/3 135/3/3
f 140/2/3 135/2/3 139/2/3
f 141/3/3 136/3/3 140/3/3
f 142/2/3 138/2/3 137/2/3
f 142/3/3 137/3/3 133/3/3
f 143/3/3 139/3/3 138/3/3
f 143/2/3 138/2/3 142/2/3
f 143/3/3 140/3/3 139/3/3
f 144/3/3 140/3/3 143/3/3
f 145/2/3 133/2/3 132/2/3
f 145/3/3 132/3/3 131/3/3
f 146/3/3 142/3/3 133/3/3
f 146/2/3 133/2/3 145/2/3
f 146/3/3 143/3/3 142/3/3
f 147/2/3 144/2/3 143/2/3
f 147/3/3 143/3/3 146/3/3
f 148/3/3 140/3/3 144/3/3
f 148/2/3 144/2/3 147/2/3
f 149/2/3 131/2/3 130/2/3
f 150/3/3 146/3/3 145/3/3
f 150/2/3 131/2/3 149/2/3
f 150/3/3 145/3/3 131/3/3
f 151/3/3 146/3/3 150/3/3
f 152/2/3 147/2/3 146/2/3
f 152/3/3 146/3/3 151/3/3
f 153/3/3 148/3/3 147/3/3
f 153/2/3 147/2/3 152/2/3
f 154/3/3 140/3/3 148/3/3
f 154/3/3 148/3/3 153/3/3
f 155/2/3 141/2/3 140/2/3
f 155/3/3 140/3/3 154/3/3
f 156/2/3 141/2/3 155/2/3
f 157/2/3 151/2/3 150/2/3
f 158/3/3 153/3/3 152/3/3
f 158/2/3 151/2/3 157/2/3
f 158/3/3 152/3/3 151/3/3
f 158/3/3 154/3/3 153/3/3
f 159/2/3 155/2/3 154/2/3
f 159/3/3 154/3/3 158/3/3
f 160/2/3 155/2/3 159/2/3
f 161/2/3 159/2/3 158/2/3
f 162/2/3 159/2/3 161/2/3
f 165/1/3 164/1/3 163/1/3
f 166/1/3 164/1/3 165/1/3
f 170/2/3 168/2/3 167/2/3
f 171/2/3 168/2/3 170/2/3
f 175/2/3 172/2/3 171/2/3
f 176/2/3 172/2/3 175/2/3
f 177/2/3 174/2/3 173/2/3
f 178/2/3 174/2/3 177/2/3
f 180/2/3 170/2/3 169/2/3
f 181/2/3 170/2/3 180/2/3
f 182/2/3 179/2/3 178/2/3
f 183/2/3 179/2/3 182/2/3
f 186/2/3 182/2/3 181/2/3
f 187/2/3 182/2/3 186/2/3
f 188/2/3 185/2/3 184/2/3
f 189/2/3 185/2/3 188/2/3
f 190/2/4 191/2/4 193/2/4
f 193/2/4 191/2/4 194/2/4
f 194/2/4 195/2/4 198/2/4
f 198/2/4 195/2/4 199/2/4
f 196/2/4 197/2/4 200/2/4
f 200/2/4 197/2/4 201/2/4
f 192/2/4 193/2/4 203/2/4
f 203/2/4 193/2/4 204/2/4
f 201/2/4 202/2/4 205/2/4
f 205/2/4 202/2/4 206/2/4
f 204/2/4 205/2/4 209/2/4
f 209/2/4 205/2/4 210/2/4
f 207/2/4 208/2/4 211/2/4
f 211/2/4 208/2/4 212/2/4
f 213/1/4 214/1/4 215/1/4
f 215/1/4 214/1/4 216/1/4
f 217/3/4 218/3/4 220/3/4
f 220/3/4 218/3/4 221/3/4
f 221/3/4 218/3/4 222/3/4
f 219/3/4 220/3/4 225/3/4
f 220/3/4 221/3/4 225/3/4
f 225/3/4 221/3/4 226/3/4
f 221/2/4 222/2/4 227/2/4
f 226/3/4 221/3/4 227/3/4
f 222/3/4 223/3/4 228/3/4
f 227/2/4 222/2/4 228/2/4
f 228/3/4 223/3/4 229/3/4
f 227/3/4 228/3/4 231/3/4
f 231/3/4 228/3/4 232/3/4
f 228/2/4 229/2/4 233/2/4
f 232/3/4 228/3/4 233/3/4
f 229/3/4 230/3/4 234/3/4
f 233/2/4 229/2/4 234/2/4
f 234/3/4 230/3/4 235/3/4
f 231/2/4 232/2/4 236/2/4
f 227/3/4 231/3/4 236/3/4
f 232/3/4 233/3/4 237/3/4
f 236/2/4 232/2/4 237/2/4
f 233/3/4 234/3/4 237/3/4
f 237/3/4 234/3/4 238/3/4
f 226/2/4 227/2/4 239/2/4
f 225/3/4 226/3/4 239/3/4
f 227/3/4 236/3/4 240/3/4
f 239/2/4 227/2/4 240/2/4
f 236/3/4 237/3/4 240/3/4
f 237/2/4 238/2/4 241/2/4
f 240/3/4 237/3/4 241/3/4
f 238/3/4 234/3/4 242/3/4
f 241/2/4 238/2/4 242/2/4
f 224/2/4 225/2/4 243/2/4
f 239/3/4 240/3/4 244/3/4
f 243/2/4 225/2/4 244/2/4
f 225/3/4 239/3/4 244/3/4
f 244/3/4 240/3/4 245/3/4
f 240/2/4 241/2/4 246/2/4
f 245/3/4 240/3/4 246/3/4
f 241/3/4 242/3/4 247/3/4
f 246/2/4 241/2/4 247/2/4
f 242/3/4 234/3/4 248/3/4
f 247/3/4 242/3/4 248/3/4
f 234/2/4 235/2/4 249/2/4
f 248/3/4 234/3/4 249/3/4
f 249/2/4 235/2/4 250/2/4
f 244/2/4 245/2/4 251/2/4
f 246/3/4 247/3/4 252/3/4
f 251/2/4 245/2/4 252/2/4
f 245/3/4 246/3/4 252/3/4
f 247/3/4 248/3/4 252/3/4
f 248/2/4 249/2/4 253/2/4
f 252/3/4 248/3/4 253/3/4
f 253/2/4 249/2/4 254/2/4
f 252/2/4 253/2/4 255/2/4
f 255/2/4 253/2/4 256/2/4
f 259/1/5 258/1/5 257/1/5
f 260/1/5 258/1/5 259/1/5
f 263/2/5 262/2/5 261/2/5
f 264/2/5 262/2/5 263/2/5
f 265/2/5 262/2/5 264/2/5
f 266/2/5 262/2/5 265/2/5
f 267/3/5 264/3/5 263/3/5
f 268/3/5 264/3/5 267/3/5
f 269/3/5 266/3/5 265/3/5
f 270/3/5 266/3/5 269/3/5
f 271/2/5 268/2/5 267/2/5
f 271/2/5 269/2/5 268/2/5
f 271/2/5 270/2/5 269/2/5
f 272/2/5 270/2/5 271/2/5
f 277/3/5 274/3/5 273/3/5
f 278/2/5 276/2/5 275/2/5
f 279/2/5 276/2/5 278/2/5
f 280/3/5 277/3/5 273/3/5
f 283/3/5 280/3/5 273/3/5
f 284/3/5 280/3/5 283/3/5
f 285/2/5 282/2/5 281/2/5
f 286/2/5 282/2/5 285/2/5
f 292/2/5 290/2/5 289/2/5
f 293/2/5 290/2/5 292/2/5
f 294/3/5 292/3/5 291/3/5
f 294/3/5 293/3/5 292/3/5
f 295/3/5 293/3/5 294/3/5
f 296/3/5 293/3/5 295/3/5
f 297/3/5 288/3/5 287/3/5
f 298/3/5 288/3/5 297/3/5
f 299/2/5 296/2/5 295/2/5
f 300/2/5 296/2/5 299/2/5
f 303/3/5 302/3/5 301/3/5
f 304/3/5 302/3/5 303/3/5
f 309/3/5 306/3/5 305/3/5
f 310/3/5 306/3/5 309/3/5
f 311/3/5 308/3/5 307/3/5
f 312/3/5 308/3/5 311/3/5
f 317/3/5 314/3/5 313/3/5
f 318/3/5 314/3/5 317/3/5
f 319/3/5 316/3/5 315/3/5
f 320/3/5 316/3/5 319/3/5
f 323/3/5 322/3/5 321/3/5
f 324/3/5 322/3/5 323/3/5
f 325/3/6 326/3/6 327/3/6
f 327/3/6 326/3/6 328/3/6
f 329/3/6 330/3/6 333/3/6
f 333/3/6 330/3/6 334/3/6
f 331/3/6 332/3/6 335/3/6
f 335/3/6 332/3/6 336/3/6
f 337/3/6 338/3/6 339/3/6
f 339/3/6 338/3/6 340/3/6
f 341/3/6 342/3/6 343/3/6
f 343/3/6 342/3/6 344/3/6
f 347/2/6 348/2/6 351/2/6
f 351/2/6 348/2/6 352/2/6
f 349/3/6 350/3/6 353/3/6
f 353/3/6 350/3/6 354/3/6
f 351/3/6 352/3/6 355/3/6
f 355/3/6 352/3/6 356/3/6
f 345/3/6 346/3/6 357/3/6
f 357/3/6 346/3/6 358/3/6
f 355/2/6 356/2/6 359/2/6
f 359/2/6 356/2/6 360/2/6
f 363/2/6 364/2/6 365/2/6
f 365/2/6 364/2/6 366/2/6
f 365/3/6 366/3/6 367/3/6
f 367/3/6 366/3/6 368/3/6
f 361/3/6 362/3/6 369/3/6
f 369/3/6 362/3/6 370/3/6
f 367/2/6 368/2/6 371/2/6
f 371/2/6 368/2/6 372/2/6
f 373/3/6 374/3/6 376/3/6
f 374/2/6 375/2/6 376/2/6
f 376/2/6 375/2/6 377/2/6
f 373/3/6 376/3/6 378/3/6
f 376/3/6 377/3/6 378/3/6
f 378/3/6 377/3/6 379/3/6
f 373/3/6 378/3/6 380/3/6
f 378/2/6 379/2/6 381/2/6
f 380/3/6 378/3/6 381/3/6
f 381/2/6 379/2/6 382/2/6
