# MagicaVoxel @ Ephtracy

# group
o 

# material
mtllib parrot.vox.mtl
usemtl palette

# normals
vn -1 0 0
vn 1 0 0
vn 0 0 1
vn 0 0 -1
vn 0 -1 0
vn 0 1 0

# texcoords
vt 0.130859 0.5
vt 0.513672 0.5
vt 0.517578 0.5
vt 0.556641 0.5
vt 0.693359 0.5
vt 0.705078 0.5
vt 0.708984 0.5
vt 0.958984 0.5
vt 0.962891 0.5
vt 0.966797 0.5
vt 0.990234 0.5

# verts
v -1.2 0.4 0.3
v -1.2 0.4 -0.3
v -1.2 0.6 0.3
v -1.2 0.6 -0.3
v -1.2 0.8 0.3
v -1.2 0.8 -0.3
v -1.2 1.1 0.3
v -1.2 1.1 -0.3
v -1 0.2 0.9
v -1 0.2 -1.1
v -1 0.4 0.3
v -1 0.4 -0.3
v -1 0.6 0.3
v -1 0.6 -0.3
v -1 0.7 0.9
v -1 0.7 0.5
v -1 0.8 0.3
v -1 0.8 -0.3
v -1 1.1 0.9
v -1 1.1 0.5
v -1 1.1 0.3
v -1 1.1 -0.3
v -1 2 0.9
v -1 2 -1.1
v -0.8 0 0.5
v -0.8 0 -0.7
v -0.8 0.2 0.5
v -0.8 0.2 -0.7
v -0.8 0.3 -1.1
v -0.8 0.3 -1.4
v -0.8 0.7 -1.1
v -0.8 0.7 -1.4
v -0.3 0.7 1
v -0.3 0.7 0.9
v -0.3 1 0.9
v -0.3 1.4 1
v -0.3 1.4 0.9
v 0.4 0 0.5
v 0.4 0 -0.7
v 0.4 0.2 0.5
v 0.4 0.2 -0.7
v -0.4 0 0.5
v -0.4 0 -0.7
v -0.4 0.2 0.5
v -0.4 0.2 -0.7
v 0.3 0.7 1
v 0.3 0.7 0.9
v 0.3 1 0.9
v 0.3 1.4 1
v 0.3 1.4 0.9
v 0.8 0 0.5
v 0.8 0 -0.7
v 0.8 0.2 0.5
v 0.8 0.2 -0.7
v 0.8 0.3 -1.1
v 0.8 0.3 -1.4
v 0.8 0.7 -1.1
v 0.8 0.7 -1.4
v 1 0.2 0.9
v 1 0.2 -1.1
v 1 0.4 0.3
v 1 0.4 -0.3
v 1 0.6 0.3
v 1 0.6 -0.3
v 1 0.7 0.9
v 1 0.7 0.5
v 1 0.8 0.3
v 1 0.8 -0.3
v 1 1.1 0.9
v 1 1.1 0.5
v 1 1.1 0.3
v 1 1.1 -0.3
v 1 2 0.9
v 1 2 -1.1
v 1.2 0.4 0.3
v 1.2 0.4 -0.3
v 1.2 0.6 0.3
v 1.2 0.6 -0.3
v 1.2 0.8 0.3
v 1.2 0.8 -0.3
v 1.2 1.1 0.3
v 1.2 1.1 -0.3
v -0.3 0.7 1
v -0.3 1.4 1
v 0.3 0.7 1
v 0.3 1.4 1
v -1 0.2 0.9
v -1 0.7 0.9
v -1 1.1 0.9
v -1 2 0.9
v -0.6 0.7 0.9
v -0.6 1 0.9
v -0.6 1.1 0.9
v -0.6 1.4 0.9
v -0.3 0.7 0.9
v -0.3 1 0.9
v -0.3 1.4 0.9
v 0.3 0.7 0.9
v 0.3 1 0.9
v 0.3 1.4 0.9
v 0.6 0.7 0.9
v 0.6 1 0.9
v 0.6 1.1 0.9
v 0.6 1.4 0.9
v 1 0.2 0.9
v 1 0.7 0.9
v 1 1.1 0.9
v 1 2 0.9
v -0.8 0 0.5
v -0.8 0.2 0.5
v -0.4 0 0.5
v -0.4 0.2 0.5
v 0.4 0 0.5
v 0.4 0.2 0.5
v 0.8 0 0.5
v 0.8 0.2 0.5
v -1.2 0.4 0.3
v -1.2 0.6 0.3
v -1.2 0.8 0.3
v -1.2 1.1 0.3
v -1 0.4 0.3
v -1 0.6 0.3
v -1 0.8 0.3
v -1 1.1 0.3
v 1 0.4 0.3
v 1 0.6 0.3
v 1 0.8 0.3
v 1 1.1 0.3
v 1.2 0.4 0.3
v 1.2 0.6 0.3
v 1.2 0.8 0.3
v 1.2 1.1 0.3
v -1.2 0.4 -0.3
v -1.2 0.6 -0.3
v -1.2 0.8 -0.3
v -1.2 1.1 -0.3
v -1 0.4 -0.3
v -1 0.6 -0.3
v -1 0.8 -0.3
v -1 1.1 -0.3
v 1 0.4 -0.3
v 1 0.6 -0.3
v 1 0.8 -0.3
v 1 1.1 -0.3
v 1.2 0.4 -0.3
v 1.2 0.6 -0.3
v 1.2 0.8 -0.3
v 1.2 1.1 -0.3
v -0.8 0 -0.7
v -0.8 0.2 -0.7
v -0.4 0 -0.7
v -0.4 0.2 -0.7
v 0.4 0 -0.7
v 0.4 0.2 -0.7
v 0.8 0 -0.7
v 0.8 0.2 -0.7
v -1 0.2 -1.1
v -1 2 -1.1
v -0.8 0.3 -1.1
v -0.8 0.7 -1.1
v 0.8 0.3 -1.1
v 0.8 0.7 -1.1
v 1 0.2 -1.1
v 1 2 -1.1
v -0.8 0.3 -1.4
v -0.8 0.7 -1.4
v 0.8 0.3 -1.4
v 0.8 0.7 -1.4
v -0.8 0 0.5
v -0.4 0 0.5
v 0.4 0 0.5
v 0.8 0 0.5
v -0.8 0 -0.7
v -0.4 0 -0.7
v 0.4 0 -0.7
v 0.8 0 -0.7
v -1 0.2 0.9
v 1 0.2 0.9
v -0.8 0.2 0.5
v -0.4 0.2 0.5
v 0.4 0.2 0.5
v 0.8 0.2 0.5
v -0.8 0.2 -0.7
v -0.4 0.2 -0.7
v 0.4 0.2 -0.7
v 0.8 0.2 -0.7
v -1 0.2 -1.1
v 1 0.2 -1.1
v -0.8 0.3 -1.1
v 0.8 0.3 -1.1
v -0.8 0.3 -1.4
v 0.8 0.3 -1.4
v -1.2 0.4 0.3
v -1 0.4 0.3
v 1 0.4 0.3
v 1.2 0.4 0.3
v -1.2 0.4 -0.3
v -1 0.4 -0.3
v 1 0.4 -0.3
v 1.2 0.4 -0.3
v -0.3 0.7 1
v 0.3 0.7 1
v -0.3 0.7 0.9
v 0.3 0.7 0.9
v -0.8 0.7 -1.1
v 0.8 0.7 -1.1
v -0.8 0.7 -1.4
v 0.8 0.7 -1.4
v -1.2 1.1 0.3
v -1 1.1 0.3
v 1 1.1 0.3
v 1.2 1.1 0.3
v -1.2 1.1 -0.3
v -1 1.1 -0.3
v 1 1.1 -0.3
v 1.2 1.1 -0.3
v -0.3 1.4 1
v 0.3 1.4 1
v -0.3 1.4 0.9
v 0.3 1.4 0.9
v -1 2 0.9
v 1 2 0.9
v -1 2 -1.1
v 1 2 -1.1

# faces
f 3/5/1 2/5/1 1/5/1
f 4/5/1 2/5/1 3/5/1
f 5/7/1 4/7/1 3/7/1
f 6/7/1 4/7/1 5/7/1
f 7/6/1 6/6/1 5/6/1
f 8/6/1 6/6/1 7/6/1
f 11/6/1 10/6/1 9/6/1
f 12/6/1 10/6/1 11/6/1
f 13/6/1 11/6/1 9/6/1
f 14/6/1 10/6/1 12/6/1
f 15/6/1 13/6/1 9/6/1
f 16/6/1 13/6/1 15/6/1
f 17/6/1 13/6/1 16/6/1
f 18/6/1 10/6/1 14/6/1
f 19/2/1 16/2/1 15/2/1
f 20/6/1 17/6/1 16/6/1
f 20/2/1 16/2/1 19/2/1
f 21/6/1 17/6/1 20/6/1
f 22/6/1 10/6/1 18/6/1
f 23/6/1 21/6/1 20/6/1
f 23/6/1 22/6/1 21/6/1
f 23/6/1 20/6/1 19/6/1
f 24/6/1 10/6/1 22/6/1
f 24/6/1 22/6/1 23/6/1
f 27/1/1 26/1/1 25/1/1
f 28/1/1 26/1/1 27/1/1
f 31/5/1 30/5/1 29/5/1
f 32/5/1 30/5/1 31/5/1
f 35/7/1 34/7/1 33/7/1
f 36/7/1 35/7/1 33/7/1
f 37/7/1 35/7/1 36/7/1
f 40/1/1 39/1/1 38/1/1
f 41/1/1 39/1/1 40/1/1
f 42/1/2 43/1/2 44/1/2
f 44/1/2 43/1/2 45/1/2
f 46/7/2 47/7/2 48/7/2
f 46/7/2 48/7/2 49/7/2
f 49/7/2 48/7/2 50/7/2
f 51/1/2 52/1/2 53/1/2
f 53/1/2 52/1/2 54/1/2
f 55/5/2 56/5/2 57/5/2
f 57/5/2 56/5/2 58/5/2
f 59/6/2 60/6/2 61/6/2
f 61/6/2 60/6/2 62/6/2
f 59/6/2 61/6/2 63/6/2
f 62/6/2 60/6/2 64/6/2
f 59/6/2 63/6/2 65/6/2
f 65/6/2 63/6/2 66/6/2
f 66/6/2 63/6/2 67/6/2
f 64/6/2 60/6/2 68/6/2
f 65/2/2 66/2/2 69/2/2
f 66/6/2 67/6/2 70/6/2
f 69/2/2 66/2/2 70/2/2
f 70/6/2 67/6/2 71/6/2
f 68/6/2 60/6/2 72/6/2
f 70/6/2 71/6/2 73/6/2
f 71/6/2 72/6/2 73/6/2
f 69/6/2 70/6/2 73/6/2
f 72/6/2 60/6/2 74/6/2
f 73/6/2 72/6/2 74/6/2
f 75/5/2 76/5/2 77/5/2
f 77/5/2 76/5/2 78/5/2
f 77/7/2 78/7/2 79/7/2
f 79/7/2 78/7/2 80/7/2
f 79/6/2 80/6/2 81/6/2
f 81/6/2 80/6/2 82/6/2
f 85/7/3 84/7/3 83/7/3
f 86/7/3 84/7/3 85/7/3
f 91/6/3 88/6/3 87/6/3
f 91/2/3 89/2/3 88/2/3
f 92/2/3 89/2/3 91/2/3
f 93/6/3 90/6/3 89/6/3
f 93/2/3 89/2/3 92/2/3
f 94/6/3 90/6/3 93/6/3
f 95/6/3 92/6/3 91/6/3
f 95/6/3 91/6/3 87/6/3
f 96/11/3 94/11/3 93/11/3
f 96/6/3 92/6/3 95/6/3
f 96/11/3 93/11/3 92/11/3
f 97/6/3 90/6/3 94/6/3
f 97/11/3 94/11/3 96/11/3
f 98/6/3 95/6/3 87/6/3
f 100/6/3 90/6/3 97/6/3
f 101/6/3 99/6/3 98/6/3
f 101/6/3 98/6/3 87/6/3
f 102/11/3 100/11/3 99/11/3
f 102/6/3 99/6/3 101/6/3
f 103/11/3 100/11/3 102/11/3
f 104/6/3 90/6/3 100/6/3
f 104/11/3 100/11/3 103/11/3
f 105/6/3 101/6/3 87/6/3
f 106/2/3 103/2/3 102/2/3
f 106/6/3 101/6/3 105/6/3
f 106/2/3 102/2/3 101/2/3
f 107/6/3 104/6/3 103/6/3
f 107/2/3 103/2/3 106/2/3
f 108/6/3 90/6/3 104/6/3
f 108/6/3 104/6/3 107/6/3
f 111/1/3 110/1/3 109/1/3
f 112/1/3 110/1/3 111/1/3
f 115/1/3 114/1/3 113/1/3
f 116/1/3 114/1/3 115/1/3
f 121/5/3 118/5/3 117/5/3
f 122/7/3 119/7/3 118/7/3
f 122/5/3 118/5/3 121/5/3
f 123/6/3 120/6/3 119/6/3
f 123/7/3 119/7/3 122/7/3
f 124/6/3 120/6/3 123/6/3
f 129/5/3 126/5/3 125/5/3
f 130/7/3 127/7/3 126/7/3
f 130/5/3 126/5/3 129/5/3
f 131/6/3 128/6/3 127/6/3
f 131/7/3 127/7/3 130/7/3
f 132/6/3 128/6/3 131/6/3
f 133/5/4 134/5/4 137/5/4
f 134/7/4 135/7/4 138/7/4
f 137/5/4 134/5/4 138/5/4
f 135/6/4 136/6/4 139/6/4
f 138/7/4 135/7/4 139/7/4
f 139/6/4 136/6/4 140/6/4
f 141/5/4 142/5/4 145/5/4
f 142/7/4 143/7/4 146/7/4
f 145/5/4 142/5/4 146/5/4
f 143/6/4 144/6/4 147/6/4
f 146/7/4 143/7/4 147/7/4
f 147/6/4 144/6/4 148/6/4
f 149/1/4 150/1/4 151/1/4
f 151/1/4 150/1/4 152/1/4
f 153/1/4 154/1/4 155/1/4
f 155/1/4 154/1/4 156/1/4
f 157/6/4 158/6/4 159/6/4
f 159/6/4 158/6/4 160/6/4
f 157/6/4 159/6/4 161/6/4
f 160/6/4 158/6/4 162/6/4
f 157/6/4 161/6/4 163/6/4
f 161/6/4 162/6/4 163/6/4
f 162/6/4 158/6/4 164/6/4
f 163/6/4 162/6/4 164/6/4
f 165/5/4 166/5/4 167/5/4
f 167/5/4 166/5/4 168/5/4
f 173/1/5 170/1/5 169/1/5
f 174/1/5 170/1/5 173/1/5
f 175/1/5 172/1/5 171/1/5
f 176/1/5 172/1/5 175/1/5
f 179/6/5 178/6/5 177/6/5
f 180/6/5 178/6/5 179/6/5
f 181/6/5 178/6/5 180/6/5
f 182/6/5 178/6/5 181/6/5
f 183/6/5 179/6/5 177/6/5
f 184/6/5 181/6/5 180/6/5
f 185/6/5 181/6/5 184/6/5
f 186/6/5 178/6/5 182/6/5
f 187/6/5 185/6/5 184/6/5
f 187/6/5 186/6/5 185/6/5
f 187/6/5 183/6/5 177/6/5
f 187/6/5 184/6/5 183/6/5
f 188/6/5 178/6/5 186/6/5
f 188/6/5 186/6/5 187/6/5
f 191/5/5 190/5/5 189/5/5
f 192/5/5 190/5/5 191/5/5
f 197/5/5 194/5/5 193/5/5
f 198/5/5 194/5/5 197/5/5
f 199/5/5 196/5/5 195/5/5
f 200/5/5 196/5/5 199/5/5
f 203/7/5 202/7/5 201/7/5
f 204/7/5 202/7/5 203/7/5
f 205/5/6 206/5/6 207/5/6
f 207/5/6 206/5/6 208/5/6
f 209/6/6 210/6/6 213/6/6
f 213/6/6 210/6/6 214/6/6
f 211/6/6 212/6/6 215/6/6
f 215/6/6 212/6/6 216/6/6
f 217/7/6 218/7/6 219/7/6
f 219/7/6 218/7/6 220/7/6
f 221/6/6 222/6/6 223/6/6
f 223/6/6 222/6/6 224/6/6
