# MagicaVoxel @ Ephtracy

# group
o 

# material
mtllib worm.vox.mtl
usemtl palette

# normals
vn -1 0 0
vn 1 0 0
vn 0 0 1
vn 0 0 -1
vn 0 -1 0
vn 0 1 0

# texcoords
vt 0.103516 0.5
vt 0.119141 0.5
vt 0.873047 0.5
vt 0.958984 0.5
vt 0.966797 0.5

# verts
v -0.4 1.6 0.4
v -0.4 1.6 0.1
v -0.4 1.8 0.4
v -0.4 1.8 0.1
v -0.3 1.2 0.3
v -0.3 1.2 -0.3
v -0.3 1.6 0.3
v -0.3 1.6 0.1
v -0.3 1.7 0.1
v -0.3 1.7 -0.3
v -0.2 0 0.2
v -0.2 0 -0.2
v -0.2 0.2 0.2
v -0.2 0.2 -0.2
v -0.2 0.3 0.2
v -0.2 0.3 -0.2
v -0.2 0.5 0.2
v -0.2 0.5 -0.2
v -0.2 0.6 0.2
v -0.2 0.6 -0.2
v -0.2 0.8 0.2
v -0.2 0.8 -0.2
v -0.2 0.9 0.2
v -0.2 0.9 -0.2
v -0.2 1.1 0.2
v -0.2 1.1 -0.2
v -0.2 1.2 0.2
v -0.2 1.2 -0.2
v 0.1 1.6 0.4
v 0.1 1.6 0.3
v 0.1 1.7 0.3
v 0.1 1.7 0.1
v 0.1 1.8 0.4
v 0.1 1.8 0.1
v -0.1 1.6 0.4
v -0.1 1.6 0.3
v -0.1 1.7 0.3
v -0.1 1.7 0.1
v -0.1 1.8 0.4
v -0.1 1.8 0.1
v 0.2 0 0.2
v 0.2 0 -0.2
v 0.2 0.2 0.2
v 0.2 0.2 -0.2
v 0.2 0.3 0.2
v 0.2 0.3 -0.2
v 0.2 0.5 0.2
v 0.2 0.5 -0.2
v 0.2 0.6 0.2
v 0.2 0.6 -0.2
v 0.2 0.8 0.2
v 0.2 0.8 -0.2
v 0.2 0.9 0.2
v 0.2 0.9 -0.2
v 0.2 1.1 0.2
v 0.2 1.1 -0.2
v 0.2 1.2 0.2
v 0.2 1.2 -0.2
v 0.3 1.2 0.3
v 0.3 1.2 -0.3
v 0.3 1.6 0.3
v 0.3 1.6 0.1
v 0.3 1.7 0.1
v 0.3 1.7 -0.3
v 0.4 1.6 0.4
v 0.4 1.6 0.1
v 0.4 1.8 0.4
v 0.4 1.8 0.1
v -0.4 1.6 0.4
v -0.4 1.8 0.4
v -0.3 1.6 0.4
v -0.3 1.7 0.4
v -0.2 1.6 0.4
v -0.2 1.7 0.4
v -0.1 1.6 0.4
v -0.1 1.8 0.4
v 0.1 1.6 0.4
v 0.1 1.8 0.4
v 0.2 1.6 0.4
v 0.2 1.7 0.4
v 0.3 1.6 0.4
v 0.3 1.7 0.4
v 0.4 1.6 0.4
v 0.4 1.8 0.4
v -0.3 1.2 0.3
v -0.3 1.6 0.3
v -0.2 1.3 0.3
v -0.2 1.4 0.3
v -0.2 1.6 0.3
v -0.1 1.3 0.3
v -0.1 1.4 0.3
v -0.1 1.5 0.3
v -0.1 1.6 0.3
v -0.1 1.7 0.3
v 0.1 1.3 0.3
v 0.1 1.4 0.3
v 0.1 1.5 0.3
v 0.1 1.6 0.3
v 0.1 1.7 0.3
v 0.2 1.3 0.3
v 0.2 1.4 0.3
v 0.2 1.6 0.3
v 0.3 1.2 0.3
v 0.3 1.6 0.3
v -0.2 0 0.2
v -0.2 0.2 0.2
v -0.2 0.3 0.2
v -0.2 0.5 0.2
v -0.2 0.6 0.2
v -0.2 0.8 0.2
v -0.2 0.9 0.2
v -0.2 1.1 0.2
v -0.2 1.2 0.2
v 0.2 0 0.2
v 0.2 0.2 0.2
v 0.2 0.3 0.2
v 0.2 0.5 0.2
v 0.2 0.6 0.2
v 0.2 0.8 0.2
v 0.2 0.9 0.2
v 0.2 1.1 0.2
v 0.2 1.2 0.2
v -0.4 1.6 0.1
v -0.4 1.8 0.1
v -0.3 1.6 0.1
v -0.3 1.7 0.1
v -0.1 1.7 0.1
v -0.1 1.8 0.1
v 0.1 1.7 0.1
v 0.1 1.8 0.1
v 0.3 1.6 0.1
v 0.3 1.7 0.1
v 0.4 1.6 0.1
v 0.4 1.8 0.1
v -0.2 0 -0.2
v -0.2 0.2 -0.2
v -0.2 0.3 -0.2
v -0.2 0.5 -0.2
v -0.2 0.6 -0.2
v -0.2 0.8 -0.2
v -0.2 0.9 -0.2
v -0.2 1.1 -0.2
v -0.2 1.2 -0.2
v 0.2 0 -0.2
v 0.2 0.2 -0.2
v 0.2 0.3 -0.2
v 0.2 0.5 -0.2
v 0.2 0.6 -0.2
v 0.2 0.8 -0.2
v 0.2 0.9 -0.2
v 0.2 1.1 -0.2
v 0.2 1.2 -0.2
v -0.3 1.2 -0.3
v -0.3 1.7 -0.3
v 0.3 1.2 -0.3
v 0.3 1.7 -0.3
v -0.2 0 0.2
v 0.2 0 0.2
v -0.2 0 -0.2
v 0.2 0 -0.2
v -0.3 1.2 0.3
v 0.3 1.2 0.3
v -0.2 1.2 0.2
v 0.2 1.2 0.2
v -0.2 1.2 -0.2
v 0.2 1.2 -0.2
v -0.3 1.2 -0.3
v 0.3 1.2 -0.3
v -0.4 1.6 0.4
v -0.3 1.6 0.4
v -0.2 1.6 0.4
v -0.1 1.6 0.4
v 0.1 1.6 0.4
v 0.2 1.6 0.4
v 0.3 1.6 0.4
v 0.4 1.6 0.4
v -0.3 1.6 0.3
v -0.2 1.6 0.3
v -0.1 1.6 0.3
v 0.1 1.6 0.3
v 0.2 1.6 0.3
v 0.3 1.6 0.3
v -0.4 1.6 0.1
v -0.3 1.6 0.1
v 0.3 1.6 0.1
v 0.4 1.6 0.1
v -0.1 1.7 0.3
v 0.1 1.7 0.3
v -0.3 1.7 0.1
v -0.1 1.7 0.1
v 0.1 1.7 0.1
v 0.3 1.7 0.1
v -0.3 1.7 -0.3
v 0.3 1.7 -0.3
v -0.4 1.8 0.4
v -0.1 1.8 0.4
v 0.1 1.8 0.4
v 0.4 1.8 0.4
v -0.4 1.8 0.1
v -0.1 1.8 0.1
v 0.1 1.8 0.1
v 0.4 1.8 0.1

# faces
f 3/4/1 2/4/1 1/4/1
f 4/4/1 2/4/1 3/4/1
f 7/2/1 6/2/1 5/2/1
f 8/2/1 6/2/1 7/2/1
f 9/2/1 6/2/1 8/2/1
f 10/2/1 6/2/1 9/2/1
f 13/2/1 12/2/1 11/2/1
f 14/2/1 12/2/1 13/2/1
f 15/1/1 14/1/1 13/1/1
f 16/1/1 14/1/1 15/1/1
f 17/2/1 16/2/1 15/2/1
f 18/2/1 16/2/1 17/2/1
f 19/1/1 18/1/1 17/1/1
f 20/1/1 18/1/1 19/1/1
f 21/2/1 20/2/1 19/2/1
f 22/2/1 20/2/1 21/2/1
f 23/1/1 22/1/1 21/1/1
f 24/1/1 22/1/1 23/1/1
f 25/2/1 24/2/1 23/2/1
f 26/2/1 24/2/1 25/2/1
f 27/1/1 26/1/1 25/1/1
f 28/1/1 26/1/1 27/1/1
f 31/4/1 30/4/1 29/4/1
f 33/4/1 31/4/1 29/4/1
f 33/4/1 32/4/1 31/4/1
f 34/4/1 32/4/1 33/4/1
f 35/4/2 36/4/2 37/4/2
f 35/4/2 37/4/2 39/4/2
f 37/4/2 38/4/2 39/4/2
f 39/4/2 38/4/2 40/4/2
f 41/2/2 42/2/2 43/2/2
f 43/2/2 42/2/2 44/2/2
f 43/1/2 44/1/2 45/1/2
f 45/1/2 44/1/2 46/1/2
f 45/2/2 46/2/2 47/2/2
f 47/2/2 46/2/2 48/2/2
f 47/1/2 48/1/2 49/1/2
f 49/1/2 48/1/2 50/1/2
f 49/2/2 50/2/2 51/2/2
f 51/2/2 50/2/2 52/2/2
f 51/1/2 52/1/2 53/1/2
f 53/1/2 52/1/2 54/1/2
f 53/2/2 54/2/2 55/2/2
f 55/2/2 54/2/2 56/2/2
f 55/1/2 56/1/2 57/1/2
f 57/1/2 56/1/2 58/1/2
f 59/2/2 60/2/2 61/2/2
f 61/2/2 60/2/2 62/2/2
f 62/2/2 60/2/2 63/2/2
f 63/2/2 60/2/2 64/2/2
f 65/4/2 66/4/2 67/4/2
f 67/4/2 66/4/2 68/4/2
f 71/4/3 70/4/3 69/4/3
f 72/4/3 70/4/3 71/4/3
f 73/3/3 72/3/3 71/3/3
f 74/4/3 70/4/3 72/4/3
f 74/3/3 72/3/3 73/3/3
f 75/4/3 74/4/3 73/4/3
f 76/4/3 70/4/3 74/4/3
f 76/4/3 74/4/3 75/4/3
f 79/4/3 78/4/3 77/4/3
f 80/4/3 78/4/3 79/4/3
f 81/3/3 80/3/3 79/3/3
f 82/4/3 78/4/3 80/4/3
f 82/3/3 80/3/3 81/3/3
f 83/4/3 82/4/3 81/4/3
f 84/4/3 78/4/3 82/4/3
f 84/4/3 82/4/3 83/4/3
f 87/2/3 86/2/3 85/2/3
f 88/2/3 86/2/3 87/2/3
f 89/2/3 86/2/3 88/2/3
f 90/2/3 87/2/3 85/2/3
f 90/3/3 88/3/3 87/3/3
f 91/2/3 89/2/3 88/2/3
f 91/3/3 88/3/3 90/3/3
f 92/2/3 89/2/3 91/2/3
f 93/2/3 89/2/3 92/2/3
f 95/2/3 90/2/3 85/2/3
f 95/2/3 91/2/3 90/2/3
f 96/3/3 92/3/3 91/3/3
f 96/2/3 91/2/3 95/2/3
f 97/2/3 93/2/3 92/2/3
f 97/3/3 92/3/3 96/3/3
f 97/2/3 94/2/3 93/2/3
f 98/2/3 94/2/3 97/2/3
f 99/2/3 94/2/3 98/2/3
f 100/3/3 96/3/3 95/3/3
f 100/2/3 95/2/3 85/2/3
f 101/2/3 98/2/3 97/2/3
f 101/3/3 96/3/3 100/3/3
f 101/2/3 97/2/3 96/2/3
f 102/2/3 98/2/3 101/2/3
f 103/2/3 100/2/3 85/2/3
f 103/2/3 101/2/3 100/2/3
f 103/2/3 102/2/3 101/2/3
f 104/2/3 102/2/3 103/2/3
f 114/2/3 106/2/3 105/2/3
f 115/1/3 107/1/3 106/1/3
f 115/2/3 106/2/3 114/2/3
f 116/2/3 108/2/3 107/2/3
f 116/1/3 107/1/3 115/1/3
f 117/1/3 109/1/3 108/1/3
f 117/2/3 108/2/3 116/2/3
f 118/2/3 110/2/3 109/2/3
f 118/1/3 109/1/3 117/1/3
f 119/1/3 111/1/3 110/1/3
f 119/2/3 110/2/3 118/2/3
f 120/2/3 112/2/3 111/2/3
f 120/1/3 111/1/3 119/1/3
f 121/1/3 113/1/3 112/1/3
f 121/2/3 112/2/3 120/2/3
f 122/1/3 113/1/3 121/1/3
f 123/4/4 124/4/4 125/4/4
f 125/4/4 124/4/4 126/4/4
f 126/4/4 124/4/4 127/4/4
f 127/4/4 124/4/4 128/4/4
f 129/4/4 130/4/4 132/4/4
f 131/4/4 132/4/4 133/4/4
f 132/4/4 130/4/4 134/4/4
f 133/4/4 132/4/4 134/4/4
f 135/2/4 136/2/4 144/2/4
f 136/1/4 137/1/4 145/1/4
f 144/2/4 136/2/4 145/2/4
f 137/2/4 138/2/4 146/2/4
f 145/1/4 137/1/4 146/1/4
f 138/1/4 139/1/4 147/1/4
f 146/2/4 138/2/4 147/2/4
f 139/2/4 140/2/4 148/2/4
f 147/1/4 139/1/4 148/1/4
f 140/1/4 141/1/4 149/1/4
f 148/2/4 140/2/4 149/2/4
f 141/2/4 142/2/4 150/2/4
f 149/1/4 141/1/4 150/1/4
f 142/1/4 143/1/4 151/1/4
f 150/2/4 142/2/4 151/2/4
f 151/1/4 143/1/4 152/1/4
f 153/2/4 154/2/4 155/2/4
f 155/2/4 154/2/4 156/2/4
f 159/2/5 158/2/5 157/2/5
f 160/2/5 158/2/5 159/2/5
f 163/2/5 162/2/5 161/2/5
f 164/2/5 162/2/5 163/2/5
f 165/2/5 163/2/5 161/2/5
f 166/2/5 162/2/5 164/2/5
f 167/2/5 165/2/5 161/2/5
f 167/2/5 166/2/5 165/2/5
f 168/2/5 162/2/5 166/2/5
f 168/2/5 166/2/5 167/2/5
f 177/4/5 170/4/5 169/4/5
f 177/3/5 171/3/5 170/3/5
f 178/4/5 172/4/5 171/4/5
f 178/3/5 171/3/5 177/3/5
f 179/4/5 172/4/5 178/4/5
f 180/4/5 174/4/5 173/4/5
f 181/3/5 175/3/5 174/3/5
f 181/4/5 174/4/5 180/4/5
f 182/4/5 176/4/5 175/4/5
f 182/3/5 175/3/5 181/3/5
f 183/4/5 177/4/5 169/4/5
f 184/4/5 177/4/5 183/4/5
f 185/4/5 176/4/5 182/4/5
f 186/4/5 176/4/5 185/4/5
f 187/2/6 188/2/6 190/2/6
f 190/2/6 188/2/6 191/2/6
f 189/2/6 190/2/6 193/2/6
f 191/2/6 192/2/6 193/2/6
f 190/2/6 191/2/6 193/2/6
f 193/2/6 192/2/6 194/2/6
f 195/4/6 196/4/6 199/4/6
f 199/4/6 196/4/6 200/4/6
f 197/4/6 198/4/6 201/4/6
f 201/4/6 198/4/6 202/4/6
