# MagicaVoxel @ Ephtracy

# group
o 

# material
mtllib box1.vox.mtl
usemtl palette

# normals
vn -1 0 0
vn 1 0 0
vn 0 0 1
vn 0 0 -1
vn 0 -1 0
vn 0 1 0

# texcoords
vt 0.607422 0.5
vt 0.611328 0.5
vt 0.615234 0.5
vt 0.619141 0.5

# verts
v -1 0 1
v -1 0 -1
v -1 0.2 0.8
v -1 0.2 -0.8
v -1 0.4 0.6
v -1 0.4 -0.6
v -1 1.6 0.6
v -1 1.6 -0.6
v -1 1.8 0.8
v -1 1.8 -0.8
v -1 2 1
v -1 2 -1
v -0.8 0.4 0.6
v -0.8 0.4 0.4
v -0.8 0.4 -0.4
v -0.8 0.4 -0.6
v -0.8 0.6 0.6
v -0.8 0.6 0.4
v -0.8 0.6 0.2
v -0.8 0.6 -0.2
v -0.8 0.6 -0.4
v -0.8 0.6 -0.6
v -0.8 0.8 0.4
v -0.8 0.8 0.2
v -0.8 0.8 -0.2
v -0.8 0.8 -0.4
v -0.8 1.2 0.4
v -0.8 1.2 0.2
v -0.8 1.2 -0.2
v -0.8 1.2 -0.4
v -0.8 1.4 0.6
v -0.8 1.4 0.4
v -0.8 1.4 0.2
v -0.8 1.4 -0.2
v -0.8 1.4 -0.4
v -0.8 1.4 -0.6
v -0.8 1.6 0.6
v -0.8 1.6 0.4
v -0.8 1.6 -0.4
v -0.8 1.6 -0.6
v 0.6 0 0.6
v 0.6 0 -0.6
v 0.6 0.2 0.6
v 0.6 0.2 0.4
v 0.6 0.2 -0.4
v 0.6 0.2 -0.6
v 0.6 0.4 1
v 0.6 0.4 0.9
v 0.6 0.4 0.8
v 0.6 0.4 -0.8
v 0.6 0.4 -0.9
v 0.6 0.4 -1
v 0.6 0.6 0.8
v 0.6 0.6 -0.8
v 0.6 1.4 0.8
v 0.6 1.4 -0.8
v 0.6 1.6 1
v 0.6 1.6 0.9
v 0.6 1.6 0.8
v 0.6 1.6 -0.8
v 0.6 1.6 -0.9
v 0.6 1.6 -1
v 0.6 1.8 0.6
v 0.6 1.8 0.4
v 0.6 1.8 -0.4
v 0.6 1.8 -0.6
v 0.6 2 0.6
v 0.6 2 -0.6
v -0.6 0 0.6
v -0.6 0 -0.6
v -0.6 0.2 0.6
v -0.6 0.2 0.4
v -0.6 0.2 -0.4
v -0.6 0.2 -0.6
v -0.6 0.4 1
v -0.6 0.4 0.9
v -0.6 0.4 0.8
v -0.6 0.4 -0.8
v -0.6 0.4 -0.9
v -0.6 0.4 -1
v -0.6 0.6 0.8
v -0.6 0.6 -0.8
v -0.6 1.4 0.8
v -0.6 1.4 -0.8
v -0.6 1.6 1
v -0.6 1.6 0.9
v -0.6 1.6 0.8
v -0.6 1.6 -0.8
v -0.6 1.6 -0.9
v -0.6 1.6 -1
v -0.6 1.8 0.6
v -0.6 1.8 0.4
v -0.6 1.8 -0.4
v -0.6 1.8 -0.6
v -0.6 2 0.6
v -0.6 2 -0.6
v 0.8 0.4 0.6
v 0.8 0.4 0.4
v 0.8 0.4 -0.4
v 0.8 0.4 -0.6
v 0.8 0.6 0.6
v 0.8 0.6 0.4
v 0.8 0.6 0.2
v 0.8 0.6 -0.2
v 0.8 0.6 -0.4
v 0.8 0.6 -0.6
v 0.8 0.8 0.4
v 0.8 0.8 0.2
v 0.8 0.8 -0.2
v 0.8 0.8 -0.4
v 0.8 1.2 0.4
v 0.8 1.2 0.2
v 0.8 1.2 -0.2
v 0.8 1.2 -0.4
v 0.8 1.4 0.6
v 0.8 1.4 0.4
v 0.8 1.4 0.2
v 0.8 1.4 -0.2
v 0.8 1.4 -0.4
v 0.8 1.4 -0.6
v 0.8 1.6 0.6
v 0.8 1.6 0.4
v 0.8 1.6 -0.4
v 0.8 1.6 -0.6
v 1 0 1
v 1 0 -1
v 1 0.2 0.8
v 1 0.2 -0.8
v 1 0.4 0.6
v 1 0.4 -0.6
v 1 1.6 0.6
v 1 1.6 -0.6
v 1 1.8 0.8
v 1 1.8 -0.8
v 1 2 1
v 1 2 -1
v -1 0 1
v -1 2 1
v -0.8 0.2 1
v -0.8 1.8 1
v -0.6 0.4 1
v -0.6 1.6 1
v 0.6 0.4 1
v 0.6 1.6 1
v 0.8 0.2 1
v 0.8 1.8 1
v 1 0 1
v 1 2 1
v -0.6 0.4 0.8
v -0.6 0.6 0.8
v -0.6 1.4 0.8
v -0.6 1.6 0.8
v -0.4 0.4 0.8
v -0.4 0.6 0.8
v -0.4 0.8 0.8
v -0.4 1.2 0.8
v -0.4 1.4 0.8
v -0.4 1.6 0.8
v -0.2 0.6 0.8
v -0.2 0.8 0.8
v -0.2 1.2 0.8
v -0.2 1.4 0.8
v 0.2 0.6 0.8
v 0.2 0.8 0.8
v 0.2 1.2 0.8
v 0.2 1.4 0.8
v 0.4 0.4 0.8
v 0.4 0.6 0.8
v 0.4 0.8 0.8
v 0.4 1.2 0.8
v 0.4 1.4 0.8
v 0.4 1.6 0.8
v 0.6 0.4 0.8
v 0.6 0.6 0.8
v 0.6 1.4 0.8
v 0.6 1.6 0.8
v -1 0.4 -0.6
v -1 1.6 -0.6
v -0.8 0.4 -0.6
v -0.8 0.6 -0.6
v -0.8 1.4 -0.6
v -0.8 1.6 -0.6
v -0.6 0 -0.6
v -0.6 0.2 -0.6
v -0.6 1.8 -0.6
v -0.6 2 -0.6
v -0.4 0.2 -0.6
v -0.4 1.8 -0.6
v 0.4 0.2 -0.6
v 0.4 1.8 -0.6
v 0.6 0 -0.6
v 0.6 0.2 -0.6
v 0.6 1.8 -0.6
v 0.6 2 -0.6
v 0.8 0.4 -0.6
v 0.8 0.6 -0.6
v 0.8 1.4 -0.6
v 0.8 1.6 -0.6
v 1 0.4 -0.6
v 1 1.6 -0.6
v -1 0.4 0.6
v -1 1.6 0.6
v -0.8 0.4 0.6
v -0.8 0.6 0.6
v -0.8 1.4 0.6
v -0.8 1.6 0.6
v -0.6 0 0.6
v -0.6 0.2 0.6
v -0.6 1.8 0.6
v -0.6 2 0.6
v -0.4 0.2 0.6
v -0.4 1.8 0.6
v 0.4 0.2 0.6
v 0.4 1.8 0.6
v 0.6 0 0.6
v 0.6 0.2 0.6
v 0.6 1.8 0.6
v 0.6 2 0.6
v 0.8 0.4 0.6
v 0.8 0.6 0.6
v 0.8 1.4 0.6
v 0.8 1.6 0.6
v 1 0.4 0.6
v 1 1.6 0.6
v -0.6 0.4 -0.8
v -0.6 0.6 -0.8
v -0.6 1.4 -0.8
v -0.6 1.6 -0.8
v -0.4 0.4 -0.8
v -0.4 0.6 -0.8
v -0.4 0.8 -0.8
v -0.4 1.2 -0.8
v -0.4 1.4 -0.8
v -0.4 1.6 -0.8
v -0.2 0.6 -0.8
v -0.2 0.8 -0.8
v -0.2 1.2 -0.8
v -0.2 1.4 -0.8
v 0.2 0.6 -0.8
v 0.2 0.8 -0.8
v 0.2 1.2 -0.8
v 0.2 1.4 -0.8
v 0.4 0.4 -0.8
v 0.4 0.6 -0.8
v 0.4 0.8 -0.8
v 0.4 1.2 -0.8
v 0.4 1.4 -0.8
v 0.4 1.6 -0.8
v 0.6 0.4 -0.8
v 0.6 0.6 -0.8
v 0.6 1.4 -0.8
v 0.6 1.6 -0.8
v -1 0 -1
v -1 2 -1
v -0.8 0.2 -1
v -0.8 1.8 -1
v -0.6 0.4 -1
v -0.6 1.6 -1
v 0.6 0.4 -1
v 0.6 1.6 -1
v 0.8 0.2 -1
v 0.8 1.8 -1
v 1 0 -1
v 1 2 -1
v -1 0 1
v 1 0 1
v -0.8 0 0.8
v 0.8 0 0.8
v -0.6 0 0.6
v 0.6 0 0.6
v -0.6 0 -0.6
v 0.6 0 -0.6
v -0.8 0 -0.8
v 0.8 0 -0.8
v -1 0 -1
v 1 0 -1
v -0.6 0.2 0.6
v -0.4 0.2 0.6
v 0.4 0.2 0.6
v 0.6 0.2 0.6
v -0.6 0.2 0.4
v -0.4 0.2 0.4
v -0.2 0.2 0.4
v 0.2 0.2 0.4
v 0.4 0.2 0.4
v 0.6 0.2 0.4
v -0.4 0.2 0.2
v -0.2 0.2 0.2
v 0.2 0.2 0.2
v 0.4 0.2 0.2
v -0.4 0.2 -0.2
v -0.2 0.2 -0.2
v 0.2 0.2 -0.2
v 0.4 0.2 -0.2
v -0.6 0.2 -0.4
v -0.4 0.2 -0.4
v -0.2 0.2 -0.4
v 0.2 0.2 -0.4
v 0.4 0.2 -0.4
v 0.6 0.2 -0.4
v -0.6 0.2 -0.6
v -0.4 0.2 -0.6
v 0.4 0.2 -0.6
v 0.6 0.2 -0.6
v -0.6 1.6 1
v 0.6 1.6 1
v -0.6 1.6 0.9
v 0.6 1.6 0.9
v -0.6 1.6 0.8
v -0.4 1.6 0.8
v 0.4 1.6 0.8
v 0.6 1.6 0.8
v -1 1.6 0.6
v -0.8 1.6 0.6
v 0.8 1.6 0.6
v 1 1.6 0.6
v -0.8 1.6 0.4
v 0.8 1.6 0.4
v -0.8 1.6 -0.4
v 0.8 1.6 -0.4
v -1 1.6 -0.6
v -0.8 1.6 -0.6
v 0.8 1.6 -0.6
v 1 1.6 -0.6
v -0.6 1.6 -0.8
v -0.4 1.6 -0.8
v 0.4 1.6 -0.8
v 0.6 1.6 -0.8
v -0.6 1.6 -0.9
v 0.6 1.6 -0.9
v -0.6 1.6 -1
v 0.6 1.6 -1
v -0.6 0.4 1
v 0.6 0.4 1
v -0.6 0.4 0.9
v 0.6 0.4 0.9
v -0.6 0.4 0.8
v -0.4 0.4 0.8
v 0.4 0.4 0.8
v 0.6 0.4 0.8
v -1 0.4 0.6
v -0.8 0.4 0.6
v 0.8 0.4 0.6
v 1 0.4 0.6
v -0.8 0.4 0.4
v 0.8 0.4 0.4
v -0.8 0.4 -0.4
v 0.8 0.4 -0.4
v -1 0.4 -0.6
v -0.8 0.4 -0.6
v 0.8 0.4 -0.6
v 1 0.4 -0.6
v -0.6 0.4 -0.8
v -0.4 0.4 -0.8
v 0.4 0.4 -0.8
v 0.6 0.4 -0.8
v -0.6 0.4 -0.9
v 0.6 0.4 -0.9
v -0.6 0.4 -1
v 0.6 0.4 -1
v -0.6 1.8 0.6
v -0.4 1.8 0.6
v 0.4 1.8 0.6
v 0.6 1.8 0.6
v -0.6 1.8 0.4
v -0.4 1.8 0.4
v -0.2 1.8 0.4
v 0.2 1.8 0.4
v 0.4 1.8 0.4
v 0.6 1.8 0.4
v -0.4 1.8 0.2
v -0.2 1.8 0.2
v 0.2 1.8 0.2
v 0.4 1.8 0.2
v -0.4 1.8 -0.2
v -0.2 1.8 -0.2
v 0.2 1.8 -0.2
v 0.4 1.8 -0.2
v -0.6 1.8 -0.4
v -0.4 1.8 -0.4
v -0.2 1.8 -0.4
v 0.2 1.8 -0.4
v 0.4 1.8 -0.4
v 0.6 1.8 -0.4
v -0.6 1.8 -0.6
v -0.4 1.8 -0.6
v 0.4 1.8 -0.6
v 0.6 1.8 -0.6
v -1 2 1
v 1 2 1
v -0.8 2 0.8
v 0.8 2 0.8
v -0.6 2 0.6
v 0.6 2 0.6
v -0.6 2 -0.6
v 0.6 2 -0.6
v -0.8 2 -0.8
v 0.8 2 -0.8
v -1 2 -1
v 1 2 -1

# faces
f 3/2/1 2/2/1 1/2/1
f 4/2/1 2/2/1 3/2/1
f 5/1/1 4/1/1 3/1/1
f 6/1/1 4/1/1 5/1/1
f 7/1/1 5/1/1 3/1/1
f 8/1/1 4/1/1 6/1/1
f 9/2/1 3/2/1 1/2/1
f 9/1/1 8/1/1 7/1/1
f 9/1/1 7/1/1 3/1/1
f 10/1/1 4/1/1 8/1/1
f 10/1/1 8/1/1 9/1/1
f 10/2/1 2/2/1 4/2/1
f 11/2/1 9/2/1 1/2/1
f 11/2/1 10/2/1 9/2/1
f 12/2/1 2/2/1 10/2/1
f 12/2/1 10/2/1 11/2/1
f 17/2/1 14/2/1 13/2/1
f 18/1/1 15/1/1 14/1/1
f 18/2/1 14/2/1 17/2/1
f 19/1/1 15/1/1 18/1/1
f 20/1/1 15/1/1 19/1/1
f 21/2/1 16/2/1 15/2/1
f 21/1/1 15/1/1 20/1/1
f 22/2/1 16/2/1 21/2/1
f 23/1/1 18/1/1 17/1/1
f 23/2/1 19/2/1 18/2/1
f 24/1/1 20/1/1 19/1/1
f 24/2/1 19/2/1 23/2/1
f 25/2/1 21/2/1 20/2/1
f 25/1/1 20/1/1 24/1/1
f 26/1/1 22/1/1 21/1/1
f 26/2/1 21/2/1 25/2/1
f 27/1/1 23/1/1 17/1/1
f 27/1/1 24/1/1 23/1/1
f 28/2/1 25/2/1 24/2/1
f 28/1/1 24/1/1 27/1/1
f 29/1/1 26/1/1 25/1/1
f 29/2/1 25/2/1 28/2/1
f 30/1/1 22/1/1 26/1/1
f 30/1/1 26/1/1 29/1/1
f 31/1/1 27/1/1 17/1/1
f 32/2/1 28/2/1 27/2/1
f 32/1/1 27/1/1 31/1/1
f 33/1/1 29/1/1 28/1/1
f 33/2/1 28/2/1 32/2/1
f 34/2/1 30/2/1 29/2/1
f 34/1/1 29/1/1 33/1/1
f 35/1/1 22/1/1 30/1/1
f 35/2/1 30/2/1 34/2/1
f 36/1/1 22/1/1 35/1/1
f 37/2/1 32/2/1 31/2/1
f 38/1/1 34/1/1 33/1/1
f 38/2/1 32/2/1 37/2/1
f 38/1/1 33/1/1 32/1/1
f 38/1/1 35/1/1 34/1/1
f 39/2/1 36/2/1 35/2/1
f 39/1/1 35/1/1 38/1/1
f 40/2/1 36/2/1 39/2/1
f 43/1/1 42/1/1 41/1/1
f 44/1/1 42/1/1 43/1/1
f 45/1/1 42/1/1 44/1/1
f 46/1/1 42/1/1 45/1/1
f 53/4/1 49/4/1 48/4/1
f 54/4/1 51/4/1 50/4/1
f 55/4/1 53/4/1 48/4/1
f 56/4/1 51/4/1 54/4/1
f 57/1/1 48/1/1 47/1/1
f 58/4/1 55/4/1 48/4/1
f 58/1/1 48/1/1 57/1/1
f 59/4/1 55/4/1 58/4/1
f 60/4/1 51/4/1 56/4/1
f 61/1/1 52/1/1 51/1/1
f 61/4/1 51/4/1 60/4/1
f 62/1/1 52/1/1 61/1/1
f 67/1/1 64/1/1 63/1/1
f 67/1/1 66/1/1 65/1/1
f 67/1/1 65/1/1 64/1/1
f 68/1/1 66/1/1 67/1/1
f 69/1/2 70/1/2 71/1/2
f 71/1/2 70/1/2 72/1/2
f 72/1/2 70/1/2 73/1/2
f 73/1/2 70/1/2 74/1/2
f 76/4/2 77/4/2 81/4/2
f 78/4/2 79/4/2 82/4/2
f 76/4/2 81/4/2 83/4/2
f 82/4/2 79/4/2 84/4/2
f 75/1/2 76/1/2 85/1/2
f 76/4/2 83/4/2 86/4/2
f 85/1/2 76/1/2 86/1/2
f 86/4/2 83/4/2 87/4/2
f 84/4/2 79/4/2 88/4/2
f 79/1/2 80/1/2 89/1/2
f 88/4/2 79/4/2 89/4/2
f 89/1/2 80/1/2 90/1/2
f 91/1/2 92/1/2 95/1/2
f 93/1/2 94/1/2 95/1/2
f 92/1/2 93/1/2 95/1/2
f 95/1/2 94/1/2 96/1/2
f 97/2/2 98/2/2 101/2/2
f 98/1/2 99/1/2 102/1/2
f 101/2/2 98/2/2 102/2/2
f 102/1/2 99/1/2 103/1/2
f 103/1/2 99/1/2 104/1/2
f 99/2/2 100/2/2 105/2/2
f 104/1/2 99/1/2 105/1/2
f 105/2/2 100/2/2 106/2/2
f 101/1/2 102/1/2 107/1/2
f 102/2/2 103/2/2 107/2/2
f 103/1/2 104/1/2 108/1/2
f 107/2/2 103/2/2 108/2/2
f 104/2/2 105/2/2 109/2/2
f 108/1/2 104/1/2 109/1/2
f 105/1/2 106/1/2 110/1/2
f 109/2/2 105/2/2 110/2/2
f 101/1/2 107/1/2 111/1/2
f 107/1/2 108/1/2 111/1/2
f 108/2/2 109/2/2 112/2/2
f 111/1/2 108/1/2 112/1/2
f 109/1/2 110/1/2 113/1/2
f 112/2/2 109/2/2 113/2/2
f 110/1/2 106/1/2 114/1/2
f 113/1/2 110/1/2 114/1/2
f 101/1/2 111/1/2 115/1/2
f 111/2/2 112/2/2 116/2/2
f 115/1/2 111/1/2 116/1/2
f 112/1/2 113/1/2 117/1/2
f 116/2/2 112/2/2 117/2/2
f 113/2/2 114/2/2 118/2/2
f 117/1/2 113/1/2 118/1/2
f 114/1/2 106/1/2 119/1/2
f 118/2/2 114/2/2 119/2/2
f 119/1/2 106/1/2 120/1/2
f 115/2/2 116/2/2 121/2/2
f 117/1/2 118/1/2 122/1/2
f 121/2/2 116/2/2 122/2/2
f 116/1/2 117/1/2 122/1/2
f 118/1/2 119/1/2 122/1/2
f 119/2/2 120/2/2 123/2/2
f 122/1/2 119/1/2 123/1/2
f 123/2/2 120/2/2 124/2/2
f 125/2/2 126/2/2 127/2/2
f 127/2/2 126/2/2 128/2/2
f 127/1/2 128/1/2 129/1/2
f 129/1/2 128/1/2 130/1/2
f 127/1/2 129/1/2 131/1/2
f 130/1/2 128/1/2 132/1/2
f 125/2/2 127/2/2 133/2/2
f 131/1/2 132/1/2 133/1/2
f 127/1/2 131/1/2 133/1/2
f 132/1/2 128/1/2 134/1/2
f 133/1/2 132/1/2 134/1/2
f 128/2/2 126/2/2 134/2/2
f 125/2/2 133/2/2 135/2/2
f 133/2/2 134/2/2 135/2/2
f 134/2/2 126/2/2 136/2/2
f 135/2/2 134/2/2 136/2/2
f 139/2/3 138/2/3 137/2/3
f 140/2/3 138/2/3 139/2/3
f 141/1/3 140/1/3 139/1/3
f 142/1/3 140/1/3 141/1/3
f 143/1/3 141/1/3 139/1/3
f 144/1/3 140/1/3 142/1/3
f 145/2/3 139/2/3 137/2/3
f 145/1/3 144/1/3 143/1/3
f 145/1/3 143/1/3 139/1/3
f 146/1/3 140/1/3 144/1/3
f 146/1/3 144/1/3 145/1/3
f 146/2/3 138/2/3 140/2/3
f 147/2/3 145/2/3 137/2/3
f 147/2/3 146/2/3 145/2/3
f 148/2/3 138/2/3 146/2/3
f 148/2/3 146/2/3 147/2/3
f 153/2/3 150/2/3 149/2/3
f 154/1/3 151/1/3 150/1/3
f 154/2/3 150/2/3 153/2/3
f 155/1/3 151/1/3 154/1/3
f 156/1/3 151/1/3 155/1/3
f 157/2/3 152/2/3 151/2/3
f 157/1/3 151/1/3 156/1/3
f 158/2/3 152/2/3 157/2/3
f 159/1/3 154/1/3 153/1/3
f 159/2/3 155/2/3 154/2/3
f 160/1/3 156/1/3 155/1/3
f 160/2/3 155/2/3 159/2/3
f 161/2/3 157/2/3 156/2/3
f 161/1/3 156/1/3 160/1/3
f 162/1/3 158/1/3 157/1/3
f 162/2/3 157/2/3 161/2/3
f 163/1/3 159/1/3 153/1/3
f 163/1/3 160/1/3 159/1/3
f 164/2/3 161/2/3 160/2/3
f 164/1/3 160/1/3 163/1/3
f 165/1/3 162/1/3 161/1/3
f 165/2/3 161/2/3 164/2/3
f 166/1/3 158/1/3 162/1/3
f 166/1/3 162/1/3 165/1/3
f 167/1/3 163/1/3 153/1/3
f 168/2/3 164/2/3 163/2/3
f 168/1/3 163/1/3 167/1/3
f 169/1/3 165/1/3 164/1/3
f 169/2/3 164/2/3 168/2/3
f 170/2/3 166/2/3 165/2/3
f 170/1/3 165/1/3 169/1/3
f 171/1/3 158/1/3 166/1/3
f 171/2/3 166/2/3 170/2/3
f 172/1/3 158/1/3 171/1/3
f 173/2/3 168/2/3 167/2/3
f 174/1/3 170/1/3 169/1/3
f 174/2/3 168/2/3 173/2/3
f 174/1/3 169/1/3 168/1/3
f 174/1/3 171/1/3 170/1/3
f 175/2/3 172/2/3 171/2/3
f 175/1/3 171/1/3 174/1/3
f 176/2/3 172/2/3 175/2/3
f 179/1/3 178/1/3 177/1/3
f 180/1/3 178/1/3 179/1/3
f 181/1/3 178/1/3 180/1/3
f 182/1/3 178/1/3 181/1/3
f 187/1/3 184/1/3 183/1/3
f 188/1/3 186/1/3 185/1/3
f 189/1/3 187/1/3 183/1/3
f 190/1/3 186/1/3 188/1/3
f 191/1/3 189/1/3 183/1/3
f 192/1/3 189/1/3 191/1/3
f 193/1/3 186/1/3 190/1/3
f 194/1/3 186/1/3 193/1/3
f 199/1/3 196/1/3 195/1/3
f 199/1/3 198/1/3 197/1/3
f 199/1/3 197/1/3 196/1/3
f 200/1/3 198/1/3 199/1/3
f 201/1/4 202/1/4 203/1/4
f 203/1/4 202/1/4 204/1/4
f 204/1/4 202/1/4 205/1/4
f 205/1/4 202/1/4 206/1/4
f 207/1/4 208/1/4 211/1/4
f 209/1/4 210/1/4 212/1/4
f 207/1/4 211/1/4 213/1/4
f 212/1/4 210/1/4 214/1/4
f 207/1/4 213/1/4 215/1/4
f 215/1/4 213/1/4 216/1/4
f 214/1/4 210/1/4 217/1/4
f 217/1/4 210/1/4 218/1/4
f 219/1/4 220/1/4 223/1/4
f 221/1/4 222/1/4 223/1/4
f 220/1/4 221/1/4 223/1/4
f 223/1/4 222/1/4 224/1/4
f 225/2/4 226/2/4 229/2/4
f 226/1/4 227/1/4 230/1/4
f 229/2/4 226/2/4 230/2/4
f 230/1/4 227/1/4 231/1/4
f 231/1/4 227/1/4 232/1/4
f 227/2/4 228/2/4 233/2/4
f 232/1/4 227/1/4 233/1/4
f 233/2/4 228/2/4 234/2/4
f 229/1/4 230/1/4 235/1/4
f 230/2/4 231/2/4 235/2/4
f 231/1/4 232/1/4 236/1/4
f 235/2/4 231/2/4 236/2/4
f 232/2/4 233/2/4 237/2/4
f 236/1/4 232/1/4 237/1/4
f 233/1/4 234/1/4 238/1/4
f 237/2/4 233/2/4 238/2/4
f 229/1/4 235/1/4 239/1/4
f 235/1/4 236/1/4 239/1/4
f 236/2/4 237/2/4 240/2/4
f 239/1/4 236/1/4 240/1/4
f 237/1/4 238/1/4 241/1/4
f 240/2/4 237/2/4 241/2/4
f 238/1/4 234/1/4 242/1/4
f 241/1/4 238/1/4 242/1/4
f 229/1/4 239/1/4 243/1/4
f 239/2/4 240/2/4 244/2/4
f 243/1/4 239/1/4 244/1/4
f 240/1/4 241/1/4 245/1/4
f 244/2/4 240/2/4 245/2/4
f 241/2/4 242/2/4 246/2/4
f 245/1/4 241/1/4 246/1/4
f 242/1/4 234/1/4 247/1/4
f 246/2/4 242/2/4 247/2/4
f 247/1/4 234/1/4 248/1/4
f 243/2/4 244/2/4 249/2/4
f 245/1/4 246/1/4 250/1/4
f 249/2/4 244/2/4 250/2/4
f 244/1/4 245/1/4 250/1/4
f 246/1/4 247/1/4 250/1/4
f 247/2/4 248/2/4 251/2/4
f 250/1/4 247/1/4 251/1/4
f 251/2/4 248/2/4 252/2/4
f 253/2/4 254/2/4 255/2/4
f 255/2/4 254/2/4 256/2/4
f 255/1/4 256/1/4 257/1/4
f 257/1/4 256/1/4 258/1/4
f 255/1/4 257/1/4 259/1/4
f 258/1/4 256/1/4 260/1/4
f 253/2/4 255/2/4 261/2/4
f 259/1/4 260/1/4 261/1/4
f 255/1/4 259/1/4 261/1/4
f 260/1/4 256/1/4 262/1/4
f 261/1/4 260/1/4 262/1/4
f 256/2/4 254/2/4 262/2/4
f 253/2/4 261/2/4 263/2/4
f 261/2/4 262/2/4 263/2/4
f 262/2/4 254/2/4 264/2/4
f 263/2/4 262/2/4 264/2/4
f 267/2/5 266/2/5 265/2/5
f 268/2/5 266/2/5 267/2/5
f 269/1/5 268/1/5 267/1/5
f 270/1/5 268/1/5 269/1/5
f 271/1/5 269/1/5 267/1/5
f 272/1/5 268/1/5 270/1/5
f 273/2/5 267/2/5 265/2/5
f 273/1/5 272/1/5 271/1/5
f 273/1/5 271/1/5 267/1/5
f 274/1/5 268/1/5 272/1/5
f 274/1/5 272/1/5 273/1/5
f 274/2/5 266/2/5 268/2/5
f 275/2/5 273/2/5 265/2/5
f 275/2/5 274/2/5 273/2/5
f 276/2/5 266/2/5 274/2/5
f 276/2/5 274/2/5 275/2/5
f 281/2/5 278/2/5 277/2/5
f 282/1/5 279/1/5 278/1/5
f 282/2/5 278/2/5 281/2/5
f 283/1/5 279/1/5 282/1/5
f 284/1/5 279/1/5 283/1/5
f 285/2/5 280/2/5 279/2/5
f 285/1/5 279/1/5 284/1/5
f 286/2/5 280/2/5 285/2/5
f 287/1/5 282/1/5 281/1/5
f 287/2/5 283/2/5 282/2/5
f 288/1/5 284/1/5 283/1/5
f 288/2/5 283/2/5 287/2/5
f 289/2/5 285/2/5 284/2/5
f 289/1/5 284/1/5 288/1/5
f 290/1/5 286/1/5 285/1/5
f 290/2/5 285/2/5 289/2/5
f 291/1/5 287/1/5 281/1/5
f 291/1/5 288/1/5 287/1/5
f 292/2/5 289/2/5 288/2/5
f 292/1/5 288/1/5 291/1/5
f 293/1/5 290/1/5 289/1/5
f 293/2/5 289/2/5 292/2/5
f 294/1/5 286/1/5 290/1/5
f 294/1/5 290/1/5 293/1/5
f 295/1/5 291/1/5 281/1/5
f 296/2/5 292/2/5 291/2/5
f 296/1/5 291/1/5 295/1/5
f 297/1/5 293/1/5 292/1/5
f 297/2/5 292/2/5 296/2/5
f 298/2/5 294/2/5 293/2/5
f 298/1/5 293/1/5 297/1/5
f 299/1/5 286/1/5 294/1/5
f 299/2/5 294/2/5 298/2/5
f 300/1/5 286/1/5 299/1/5
f 301/2/5 296/2/5 295/2/5
f 302/1/5 298/1/5 297/1/5
f 302/2/5 296/2/5 301/2/5
f 302/1/5 297/1/5 296/1/5
f 302/1/5 299/1/5 298/1/5
f 303/2/5 300/2/5 299/2/5
f 303/1/5 299/1/5 302/1/5
f 304/2/5 300/2/5 303/2/5
f 307/1/5 306/1/5 305/1/5
f 308/1/5 306/1/5 307/1/5
f 309/1/5 308/1/5 307/1/5
f 310/1/5 308/1/5 309/1/5
f 311/1/5 308/1/5 310/1/5
f 312/1/5 308/1/5 311/1/5
f 317/1/5 314/1/5 313/1/5
f 318/1/5 316/1/5 315/1/5
f 319/1/5 317/1/5 313/1/5
f 320/1/5 316/1/5 318/1/5
f 321/1/5 319/1/5 313/1/5
f 322/1/5 319/1/5 321/1/5
f 323/1/5 316/1/5 320/1/5
f 324/1/5 316/1/5 323/1/5
f 329/1/5 326/1/5 325/1/5
f 329/1/5 328/1/5 327/1/5
f 329/1/5 327/1/5 326/1/5
f 330/1/5 328/1/5 329/1/5
f 331/1/5 330/1/5 329/1/5
f 332/1/5 330/1/5 331/1/5
f 333/1/6 334/1/6 335/1/6
f 335/1/6 334/1/6 336/1/6
f 335/1/6 336/1/6 337/1/6
f 337/1/6 336/1/6 338/1/6
f 338/1/6 336/1/6 339/1/6
f 339/1/6 336/1/6 340/1/6
f 341/1/6 342/1/6 345/1/6
f 343/1/6 344/1/6 346/1/6
f 341/1/6 345/1/6 347/1/6
f 346/1/6 344/1/6 348/1/6
f 341/1/6 347/1/6 349/1/6
f 349/1/6 347/1/6 350/1/6
f 348/1/6 344/1/6 351/1/6
f 351/1/6 344/1/6 352/1/6
f 353/1/6 354/1/6 357/1/6
f 355/1/6 356/1/6 357/1/6
f 354/1/6 355/1/6 357/1/6
f 357/1/6 356/1/6 358/1/6
f 357/1/6 358/1/6 359/1/6
f 359/1/6 358/1/6 360/1/6
f 361/2/6 362/2/6 365/2/6
f 362/1/6 363/1/6 366/1/6
f 365/2/6 362/2/6 366/2/6
f 366/1/6 363/1/6 367/1/6
f 367/1/6 363/1/6 368/1/6
f 363/2/6 364/2/6 369/2/6
f 368/1/6 363/1/6 369/1/6
f 369/2/6 364/2/6 370/2/6
f 365/1/6 366/1/6 371/1/6
f 366/2/6 367/2/6 371/2/6
f 367/1/6 368/1/6 372/1/6
f 371/2/6 367/2/6 372/2/6
f 368/2/6 369/2/6 373/2/6
f 372/1/6 368/1/6 373/1/6
f 369/1/6 370/1/6 374/1/6
f 373/2/6 369/2/6 374/2/6
f 365/1/6 371/1/6 375/1/6
f 371/1/6 372/1/6 375/1/6
f 372/2/6 373/2/6 376/2/6
f 375/1/6 372/1/6 376/1/6
f 373/1/6 374/1/6 377/1/6
f 376/2/6 373/2/6 377/2/6
f 374/1/6 370/1/6 378/1/6
f 377/1/6 374/1/6 378/1/6
f 365/1/6 375/1/6 379/1/6
f 375/2/6 376/2/6 380/2/6
f 379/1/6 375/1/6 380/1/6
f 376/1/6 377/1/6 381/1/6
f 380/2/6 376/2/6 381/2/6
f 377/2/6 378/2/6 382/2/6
f 381/1/6 377/1/6 382/1/6
f 378/1/6 370/1/6 383/1/6
f 382/2/6 378/2/6 383/2/6
f 383/1/6 370/1/6 384/1/6
f 379/2/6 380/2/6 385/2/6
f 381/1/6 382/1/6 386/1/6
f 385/2/6 380/2/6 386/2/6
f 380/1/6 381/1/6 386/1/6
f 382/1/6 383/1/6 386/1/6
f 383/2/6 384/2/6 387/2/6
f 386/1/6 383/1/6 387/1/6
f 387/2/6 384/2/6 388/2/6
f 389/2/6 390/2/6 391/2/6
f 391/2/6 390/2/6 392/2/6
f 391/1/6 392/1/6 393/1/6
f 393/1/6 392/1/6 394/1/6
f 391/1/6 393/1/6 395/1/6
f 394/1/6 392/1/6 396/1/6
f 389/2/6 391/2/6 397/2/6
f 395/1/6 396/1/6 397/1/6
f 391/1/6 395/1/6 397/1/6
f 396/1/6 392/1/6 398/1/6
f 397/1/6 396/1/6 398/1/6
f 392/2/6 390/2/6 398/2/6
f 389/2/6 397/2/6 399/2/6
f 397/2/6 398/2/6 399/2/6
f 398/2/6 390/2/6 400/2/6
f 399/2/6 398/2/6 400/2/6
