# MagicaVoxel @ Ephtracy

# group
o 

# material
mtllib box2.vox.mtl
usemtl palette

# normals
vn -1 0 0
vn 1 0 0
vn 0 0 1
vn 0 0 -1
vn 0 -1 0
vn 0 1 0

# texcoords
vt 0.615234 0.5
vt 0.619141 0.5
vt 0.833984 0.5
vt 0.947266 0.5

# verts
v -1 0 1
v -1 0 -1
v -1 0.2 0.8
v -1 0.2 -0.8
v -1 0.4 0.6
v -1 0.4 -0.6
v -1 1.6 0.6
v -1 1.6 -0.6
v -1 1.8 0.8
v -1 1.8 -0.8
v -1 2 1
v -1 2 -1
v -0.8 0.4 0.6
v -0.8 0.4 0.4
v -0.8 0.4 -0.4
v -0.8 0.4 -0.6
v -0.8 0.6 0.6
v -0.8 0.6 0.4
v -0.8 0.6 0.2
v -0.8 0.6 -0.2
v -0.8 0.6 -0.4
v -0.8 0.6 -0.6
v -0.8 0.8 0.4
v -0.8 0.8 0.2
v -0.8 0.8 -0.2
v -0.8 0.8 -0.4
v -0.8 1.2 0.4
v -0.8 1.2 0.2
v -0.8 1.2 -0.2
v -0.8 1.2 -0.4
v -0.8 1.4 0.6
v -0.8 1.4 0.4
v -0.8 1.4 0.2
v -0.8 1.4 -0.2
v -0.8 1.4 -0.4
v -0.8 1.4 -0.6
v -0.8 1.6 0.6
v -0.8 1.6 0.4
v -0.8 1.6 -0.4
v -0.8 1.6 -0.6
v 0.6 0 0.6
v 0.6 0 -0.6
v 0.6 0.2 0.6
v 0.6 0.2 0.4
v 0.6 0.2 -0.4
v 0.6 0.2 -0.6
v 0.6 0.4 1
v 0.6 0.4 0.8
v 0.6 0.4 -0.8
v 0.6 0.4 -1
v 0.6 0.6 0.8
v 0.6 0.6 -0.8
v 0.6 1.4 0.8
v 0.6 1.4 -0.8
v 0.6 1.6 1
v 0.6 1.6 0.8
v 0.6 1.6 -0.8
v 0.6 1.6 -1
v 0.6 1.8 0.6
v 0.6 1.8 0.4
v 0.6 1.8 -0.4
v 0.6 1.8 -0.6
v 0.6 2 0.6
v 0.6 2 -0.6
v -0.6 0 0.6
v -0.6 0 -0.6
v -0.6 0.2 0.6
v -0.6 0.2 0.4
v -0.6 0.2 -0.4
v -0.6 0.2 -0.6
v -0.6 0.4 1
v -0.6 0.4 0.8
v -0.6 0.4 -0.8
v -0.6 0.4 -1
v -0.6 0.6 0.8
v -0.6 0.6 -0.8
v -0.6 1.4 0.8
v -0.6 1.4 -0.8
v -0.6 1.6 1
v -0.6 1.6 0.8
v -0.6 1.6 -0.8
v -0.6 1.6 -1
v -0.6 1.8 0.6
v -0.6 1.8 0.4
v -0.6 1.8 -0.4
v -0.6 1.8 -0.6
v -0.6 2 0.6
v -0.6 2 -0.6
v 0.8 0.4 0.6
v 0.8 0.4 0.4
v 0.8 0.4 -0.4
v 0.8 0.4 -0.6
v 0.8 0.6 0.6
v 0.8 0.6 0.4
v 0.8 0.6 0.2
v 0.8 0.6 -0.2
v 0.8 0.6 -0.4
v 0.8 0.6 -0.6
v 0.8 0.8 0.4
v 0.8 0.8 0.2
v 0.8 0.8 -0.2
v 0.8 0.8 -0.4
v 0.8 1.2 0.4
v 0.8 1.2 0.2
v 0.8 1.2 -0.2
v 0.8 1.2 -0.4
v 0.8 1.4 0.6
v 0.8 1.4 0.4
v 0.8 1.4 0.2
v 0.8 1.4 -0.2
v 0.8 1.4 -0.4
v 0.8 1.4 -0.6
v 0.8 1.6 0.6
v 0.8 1.6 0.4
v 0.8 1.6 -0.4
v 0.8 1.6 -0.6
v 1 0 1
v 1 0 -1
v 1 0.2 0.8
v 1 0.2 -0.8
v 1 0.4 0.6
v 1 0.4 -0.6
v 1 1.6 0.6
v 1 1.6 -0.6
v 1 1.8 0.8
v 1 1.8 -0.8
v 1 2 1
v 1 2 -1
v -1 0 1
v -1 2 1
v -0.8 0.2 1
v -0.8 1.8 1
v -0.6 0.4 1
v -0.6 1.6 1
v 0.6 0.4 1
v 0.6 1.6 1
v 0.8 0.2 1
v 0.8 1.8 1
v 1 0 1
v 1 2 1
v -0.6 0.4 0.8
v -0.6 0.6 0.8
v -0.6 1.4 0.8
v -0.6 1.6 0.8
v -0.4 0.4 0.8
v -0.4 0.6 0.8
v -0.4 0.8 0.8
v -0.4 1.2 0.8
v -0.4 1.4 0.8
v -0.4 1.6 0.8
v -0.2 0.6 0.8
v -0.2 0.8 0.8
v -0.2 1.2 0.8
v -0.2 1.4 0.8
v 0.2 0.6 0.8
v 0.2 0.8 0.8
v 0.2 1.2 0.8
v 0.2 1.4 0.8
v 0.4 0.4 0.8
v 0.4 0.6 0.8
v 0.4 0.8 0.8
v 0.4 1.2 0.8
v 0.4 1.4 0.8
v 0.4 1.6 0.8
v 0.6 0.4 0.8
v 0.6 0.6 0.8
v 0.6 1.4 0.8
v 0.6 1.6 0.8
v -1 0.4 -0.6
v -1 1.6 -0.6
v -0.8 0.4 -0.6
v -0.8 0.6 -0.6
v -0.8 1.4 -0.6
v -0.8 1.6 -0.6
v -0.6 0 -0.6
v -0.6 0.2 -0.6
v -0.6 1.8 -0.6
v -0.6 2 -0.6
v -0.4 0.2 -0.6
v -0.4 1.8 -0.6
v 0.4 0.2 -0.6
v 0.4 1.8 -0.6
v 0.6 0 -0.6
v 0.6 0.2 -0.6
v 0.6 1.8 -0.6
v 0.6 2 -0.6
v 0.8 0.4 -0.6
v 0.8 0.6 -0.6
v 0.8 1.4 -0.6
v 0.8 1.6 -0.6
v 1 0.4 -0.6
v 1 1.6 -0.6
v -1 0.4 0.6
v -1 1.6 0.6
v -0.8 0.4 0.6
v -0.8 0.6 0.6
v -0.8 1.4 0.6
v -0.8 1.6 0.6
v -0.6 0 0.6
v -0.6 0.2 0.6
v -0.6 1.8 0.6
v -0.6 2 0.6
v -0.4 0.2 0.6
v -0.4 1.8 0.6
v 0.4 0.2 0.6
v 0.4 1.8 0.6
v 0.6 0 0.6
v 0.6 0.2 0.6
v 0.6 1.8 0.6
v 0.6 2 0.6
v 0.8 0.4 0.6
v 0.8 0.6 0.6
v 0.8 1.4 0.6
v 0.8 1.6 0.6
v 1 0.4 0.6
v 1 1.6 0.6
v -0.6 0.4 -0.8
v -0.6 0.6 -0.8
v -0.6 1.4 -0.8
v -0.6 1.6 -0.8
v -0.4 0.4 -0.8
v -0.4 0.6 -0.8
v -0.4 0.8 -0.8
v -0.4 1.2 -0.8
v -0.4 1.4 -0.8
v -0.4 1.6 -0.8
v -0.2 0.6 -0.8
v -0.2 0.8 -0.8
v -0.2 1.2 -0.8
v -0.2 1.4 -0.8
v 0.2 0.6 -0.8
v 0.2 0.8 -0.8
v 0.2 1.2 -0.8
v 0.2 1.4 -0.8
v 0.4 0.4 -0.8
v 0.4 0.6 -0.8
v 0.4 0.8 -0.8
v 0.4 1.2 -0.8
v 0.4 1.4 -0.8
v 0.4 1.6 -0.8
v 0.6 0.4 -0.8
v 0.6 0.6 -0.8
v 0.6 1.4 -0.8
v 0.6 1.6 -0.8
v -1 0 -1
v -1 2 -1
v -0.8 0.2 -1
v -0.8 1.8 -1
v -0.6 0.4 -1
v -0.6 1.6 -1
v 0.6 0.4 -1
v 0.6 1.6 -1
v 0.8 0.2 -1
v 0.8 1.8 -1
v 1 0 -1
v 1 2 -1
v -1 0 1
v 1 0 1
v -0.8 0 0.8
v 0.8 0 0.8
v -0.6 0 0.6
v 0.6 0 0.6
v -0.6 0 -0.6
v 0.6 0 -0.6
v -0.8 0 -0.8
v 0.8 0 -0.8
v -1 0 -1
v 1 0 -1
v -0.6 0.2 0.6
v -0.4 0.2 0.6
v 0.4 0.2 0.6
v 0.6 0.2 0.6
v -0.6 0.2 0.4
v -0.4 0.2 0.4
v -0.2 0.2 0.4
v 0.2 0.2 0.4
v 0.4 0.2 0.4
v 0.6 0.2 0.4
v -0.4 0.2 0.2
v -0.2 0.2 0.2
v 0.2 0.2 0.2
v 0.4 0.2 0.2
v -0.4 0.2 -0.2
v -0.2 0.2 -0.2
v 0.2 0.2 -0.2
v 0.4 0.2 -0.2
v -0.6 0.2 -0.4
v -0.4 0.2 -0.4
v -0.2 0.2 -0.4
v 0.2 0.2 -0.4
v 0.4 0.2 -0.4
v 0.6 0.2 -0.4
v -0.6 0.2 -0.6
v -0.4 0.2 -0.6
v 0.4 0.2 -0.6
v 0.6 0.2 -0.6
v -0.6 1.6 1
v 0.6 1.6 1
v -0.6 1.6 0.8
v -0.4 1.6 0.8
v 0.4 1.6 0.8
v 0.6 1.6 0.8
v -1 1.6 0.6
v -0.8 1.6 0.6
v 0.8 1.6 0.6
v 1 1.6 0.6
v -0.8 1.6 0.4
v 0.8 1.6 0.4
v -0.8 1.6 -0.4
v 0.8 1.6 -0.4
v -1 1.6 -0.6
v -0.8 1.6 -0.6
v 0.8 1.6 -0.6
v 1 1.6 -0.6
v -0.6 1.6 -0.8
v -0.4 1.6 -0.8
v 0.4 1.6 -0.8
v 0.6 1.6 -0.8
v -0.6 1.6 -1
v 0.6 1.6 -1
v -0.6 0.4 1
v 0.6 0.4 1
v -0.6 0.4 0.8
v -0.4 0.4 0.8
v 0.4 0.4 0.8
v 0.6 0.4 0.8
v -1 0.4 0.6
v -0.8 0.4 0.6
v 0.8 0.4 0.6
v 1 0.4 0.6
v -0.8 0.4 0.4
v 0.8 0.4 0.4
v -0.8 0.4 -0.4
v 0.8 0.4 -0.4
v -1 0.4 -0.6
v -0.8 0.4 -0.6
v 0.8 0.4 -0.6
v 1 0.4 -0.6
v -0.6 0.4 -0.8
v -0.4 0.4 -0.8
v 0.4 0.4 -0.8
v 0.6 0.4 -0.8
v -0.6 0.4 -1
v 0.6 0.4 -1
v -0.6 1.8 0.6
v -0.4 1.8 0.6
v 0.4 1.8 0.6
v 0.6 1.8 0.6
v -0.6 1.8 0.4
v -0.4 1.8 0.4
v -0.2 1.8 0.4
v 0.2 1.8 0.4
v 0.4 1.8 0.4
v 0.6 1.8 0.4
v -0.4 1.8 0.2
v -0.2 1.8 0.2
v 0.2 1.8 0.2
v 0.4 1.8 0.2
v -0.4 1.8 -0.2
v -0.2 1.8 -0.2
v 0.2 1.8 -0.2
v 0.4 1.8 -0.2
v -0.6 1.8 -0.4
v -0.4 1.8 -0.4
v -0.2 1.8 -0.4
v 0.2 1.8 -0.4
v 0.4 1.8 -0.4
v 0.6 1.8 -0.4
v -0.6 1.8 -0.6
v -0.4 1.8 -0.6
v 0.4 1.8 -0.6
v 0.6 1.8 -0.6
v -1 2 1
v 1 2 1
v -0.8 2 0.8
v 0.8 2 0.8
v -0.6 2 0.6
v 0.6 2 0.6
v -0.6 2 -0.6
v 0.6 2 -0.6
v -0.8 2 -0.8
v 0.8 2 -0.8
v -1 2 -1
v 1 2 -1

# faces
f 3/4/1 2/4/1 1/4/1
f 4/4/1 2/4/1 3/4/1
f 5/3/1 4/3/1 3/3/1
f 6/3/1 4/3/1 5/3/1
f 7/3/1 5/3/1 3/3/1
f 8/3/1 4/3/1 6/3/1
f 9/4/1 3/4/1 1/4/1
f 9/3/1 8/3/1 7/3/1
f 9/3/1 7/3/1 3/3/1
f 10/3/1 4/3/1 8/3/1
f 10/3/1 8/3/1 9/3/1
f 10/4/1 2/4/1 4/4/1
f 11/4/1 9/4/1 1/4/1
f 11/4/1 10/4/1 9/4/1
f 12/4/1 2/4/1 10/4/1
f 12/4/1 10/4/1 11/4/1
f 17/4/1 14/4/1 13/4/1
f 18/3/1 15/3/1 14/3/1
f 18/4/1 14/4/1 17/4/1
f 19/3/1 15/3/1 18/3/1
f 20/3/1 15/3/1 19/3/1
f 21/4/1 16/4/1 15/4/1
f 21/3/1 15/3/1 20/3/1
f 22/4/1 16/4/1 21/4/1
f 23/3/1 18/3/1 17/3/1
f 23/4/1 19/4/1 18/4/1
f 24/3/1 20/3/1 19/3/1
f 24/4/1 19/4/1 23/4/1
f 25/4/1 21/4/1 20/4/1
f 25/3/1 20/3/1 24/3/1
f 26/3/1 22/3/1 21/3/1
f 26/4/1 21/4/1 25/4/1
f 27/3/1 23/3/1 17/3/1
f 27/3/1 24/3/1 23/3/1
f 28/4/1 25/4/1 24/4/1
f 28/3/1 24/3/1 27/3/1
f 29/3/1 26/3/1 25/3/1
f 29/4/1 25/4/1 28/4/1
f 30/3/1 22/3/1 26/3/1
f 30/3/1 26/3/1 29/3/1
f 31/3/1 27/3/1 17/3/1
f 32/4/1 28/4/1 27/4/1
f 32/3/1 27/3/1 31/3/1
f 33/3/1 29/3/1 28/3/1
f 33/4/1 28/4/1 32/4/1
f 34/4/1 30/4/1 29/4/1
f 34/3/1 29/3/1 33/3/1
f 35/3/1 22/3/1 30/3/1
f 35/4/1 30/4/1 34/4/1
f 36/3/1 22/3/1 35/3/1
f 37/4/1 32/4/1 31/4/1
f 38/3/1 34/3/1 33/3/1
f 38/4/1 32/4/1 37/4/1
f 38/3/1 33/3/1 32/3/1
f 38/3/1 35/3/1 34/3/1
f 39/4/1 36/4/1 35/4/1
f 39/3/1 35/3/1 38/3/1
f 40/4/1 36/4/1 39/4/1
f 43/3/1 42/3/1 41/3/1
f 44/3/1 42/3/1 43/3/1
f 45/3/1 42/3/1 44/3/1
f 46/3/1 42/3/1 45/3/1
f 51/3/1 48/3/1 47/3/1
f 52/3/1 50/3/1 49/3/1
f 53/3/1 51/3/1 47/3/1
f 54/3/1 50/3/1 52/3/1
f 55/3/1 53/3/1 47/3/1
f 56/3/1 53/3/1 55/3/1
f 57/3/1 50/3/1 54/3/1
f 58/3/1 50/3/1 57/3/1
f 63/3/1 60/3/1 59/3/1
f 63/3/1 62/3/1 61/3/1
f 63/3/1 61/3/1 60/3/1
f 64/3/1 62/3/1 63/3/1
f 65/3/2 66/3/2 67/3/2
f 67/3/2 66/3/2 68/3/2
f 68/3/2 66/3/2 69/3/2
f 69/3/2 66/3/2 70/3/2
f 71/3/2 72/3/2 75/3/2
f 73/3/2 74/3/2 76/3/2
f 71/3/2 75/3/2 77/3/2
f 76/3/2 74/3/2 78/3/2
f 71/3/2 77/3/2 79/3/2
f 79/3/2 77/3/2 80/3/2
f 78/3/2 74/3/2 81/3/2
f 81/3/2 74/3/2 82/3/2
f 83/3/2 84/3/2 87/3/2
f 85/3/2 86/3/2 87/3/2
f 84/3/2 85/3/2 87/3/2
f 87/3/2 86/3/2 88/3/2
f 89/4/2 90/4/2 93/4/2
f 90/3/2 91/3/2 94/3/2
f 93/4/2 90/4/2 94/4/2
f 94/3/2 91/3/2 95/3/2
f 95/3/2 91/3/2 96/3/2
f 91/4/2 92/4/2 97/4/2
f 96/3/2 91/3/2 97/3/2
f 97/4/2 92/4/2 98/4/2
f 93/3/2 94/3/2 99/3/2
f 94/4/2 95/4/2 99/4/2
f 95/3/2 96/3/2 100/3/2
f 99/4/2 95/4/2 100/4/2
f 96/4/2 97/4/2 101/4/2
f 100/3/2 96/3/2 101/3/2
f 97/3/2 98/3/2 102/3/2
f 101/4/2 97/4/2 102/4/2
f 93/3/2 99/3/2 103/3/2
f 99/3/2 100/3/2 103/3/2
f 100/4/2 101/4/2 104/4/2
f 103/3/2 100/3/2 104/3/2
f 101/3/2 102/3/2 105/3/2
f 104/4/2 101/4/2 105/4/2
f 102/3/2 98/3/2 106/3/2
f 105/3/2 102/3/2 106/3/2
f 93/3/2 103/3/2 107/3/2
f 103/4/2 104/4/2 108/4/2
f 107/3/2 103/3/2 108/3/2
f 104/3/2 105/3/2 109/3/2
f 108/4/2 104/4/2 109/4/2
f 105/4/2 106/4/2 110/4/2
f 109/3/2 105/3/2 110/3/2
f 106/3/2 98/3/2 111/3/2
f 110/4/2 106/4/2 111/4/2
f 111/3/2 98/3/2 112/3/2
f 107/4/2 108/4/2 113/4/2
f 109/3/2 110/3/2 114/3/2
f 113/4/2 108/4/2 114/4/2
f 108/3/2 109/3/2 114/3/2
f 110/3/2 111/3/2 114/3/2
f 111/4/2 112/4/2 115/4/2
f 114/3/2 111/3/2 115/3/2
f 115/4/2 112/4/2 116/4/2
f 117/4/2 118/4/2 119/4/2
f 119/4/2 118/4/2 120/4/2
f 119/3/2 120/3/2 121/3/2
f 121/3/2 120/3/2 122/3/2
f 119/3/2 121/3/2 123/3/2
f 122/3/2 120/3/2 124/3/2
f 117/4/2 119/4/2 125/4/2
f 123/3/2 124/3/2 125/3/2
f 119/3/2 123/3/2 125/3/2
f 124/3/2 120/3/2 126/3/2
f 125/3/2 124/3/2 126/3/2
f 120/4/2 118/4/2 126/4/2
f 117/4/2 125/4/2 127/4/2
f 125/4/2 126/4/2 127/4/2
f 126/4/2 118/4/2 128/4/2
f 127/4/2 126/4/2 128/4/2
f 131/4/3 130/4/3 129/4/3
f 132/4/3 130/4/3 131/4/3
f 133/3/3 132/3/3 131/3/3
f 134/3/3 132/3/3 133/3/3
f 135/3/3 133/3/3 131/3/3
f 136/3/3 132/3/3 134/3/3
f 137/4/3 131/4/3 129/4/3
f 137/3/3 136/3/3 135/3/3
f 137/3/3 135/3/3 131/3/3
f 138/3/3 132/3/3 136/3/3
f 138/3/3 136/3/3 137/3/3
f 138/4/3 130/4/3 132/4/3
f 139/4/3 137/4/3 129/4/3
f 139/4/3 138/4/3 137/4/3
f 140/4/3 130/4/3 138/4/3
f 140/4/3 138/4/3 139/4/3
f 145/4/3 142/4/3 141/4/3
f 146/3/3 143/3/3 142/3/3
f 146/4/3 142/4/3 145/4/3
f 147/3/3 143/3/3 146/3/3
f 148/3/3 143/3/3 147/3/3
f 149/4/3 144/4/3 143/4/3
f 149/3/3 143/3/3 148/3/3
f 150/4/3 144/4/3 149/4/3
f 151/3/3 146/3/3 145/3/3
f 151/4/3 147/4/3 146/4/3
f 152/3/3 148/3/3 147/3/3
f 152/4/3 147/4/3 151/4/3
f 153/4/3 149/4/3 148/4/3
f 153/3/3 148/3/3 152/3/3
f 154/3/3 150/3/3 149/3/3
f 154/4/3 149/4/3 153/4/3
f 155/3/3 151/3/3 145/3/3
f 155/3/3 152/3/3 151/3/3
f 156/4/3 153/4/3 152/4/3
f 156/3/3 152/3/3 155/3/3
f 157/3/3 154/3/3 153/3/3
f 157/4/3 153/4/3 156/4/3
f 158/3/3 150/3/3 154/3/3
f 158/3/3 154/3/3 157/3/3
f 159/3/3 155/3/3 145/3/3
f 160/4/3 156/4/3 155/4/3
f 160/3/3 155/3/3 159/3/3
f 161/3/3 157/3/3 156/3/3
f 161/4/3 156/4/3 160/4/3
f 162/4/3 158/4/3 157/4/3
f 162/3/3 157/3/3 161/3/3
f 163/3/3 150/3/3 158/3/3
f 163/4/3 158/4/3 162/4/3
f 164/3/3 150/3/3 163/3/3
f 165/4/3 160/4/3 159/4/3
f 166/3/3 162/3/3 161/3/3
f 166/4/3 160/4/3 165/4/3
f 166/3/3 161/3/3 160/3/3
f 166/3/3 163/3/3 162/3/3
f 167/4/3 164/4/3 163/4/3
f 167/3/3 163/3/3 166/3/3
f 168/4/3 164/4/3 167/4/3
f 171/3/3 170/3/3 169/3/3
f 172/3/3 170/3/3 171/3/3
f 173/3/3 170/3/3 172/3/3
f 174/3/3 170/3/3 173/3/3
f 179/3/3 176/3/3 175/3/3
f 180/3/3 178/3/3 177/3/3
f 181/3/3 179/3/3 175/3/3
f 182/3/3 178/3/3 180/3/3
f 183/3/3 181/3/3 175/3/3
f 184/3/3 181/3/3 183/3/3
f 185/3/3 178/3/3 182/3/3
f 186/3/3 178/3/3 185/3/3
f 191/3/3 188/3/3 187/3/3
f 191/3/3 190/3/3 189/3/3
f 191/3/3 189/3/3 188/3/3
f 192/3/3 190/3/3 191/3/3
f 193/3/4 194/3/4 195/3/4
f 195/3/4 194/3/4 196/3/4
f 196/3/4 194/3/4 197/3/4
f 197/3/4 194/3/4 198/3/4
f 199/3/4 200/3/4 203/3/4
f 201/3/4 202/3/4 204/3/4
f 199/3/4 203/3/4 205/3/4
f 204/3/4 202/3/4 206/3/4
f 199/3/4 205/3/4 207/3/4
f 207/3/4 205/3/4 208/3/4
f 206/3/4 202/3/4 209/3/4
f 209/3/4 202/3/4 210/3/4
f 211/3/4 212/3/4 215/3/4
f 213/3/4 214/3/4 215/3/4
f 212/3/4 213/3/4 215/3/4
f 215/3/4 214/3/4 216/3/4
f 217/4/4 218/4/4 221/4/4
f 218/3/4 219/3/4 222/3/4
f 221/4/4 218/4/4 222/4/4
f 222/3/4 219/3/4 223/3/4
f 223/3/4 219/3/4 224/3/4
f 219/4/4 220/4/4 225/4/4
f 224/3/4 219/3/4 225/3/4
f 225/4/4 220/4/4 226/4/4
f 221/3/4 222/3/4 227/3/4
f 222/4/4 223/4/4 227/4/4
f 223/3/4 224/3/4 228/3/4
f 227/4/4 223/4/4 228/4/4
f 224/4/4 225/4/4 229/4/4
f 228/3/4 224/3/4 229/3/4
f 225/3/4 226/3/4 230/3/4
f 229/4/4 225/4/4 230/4/4
f 221/3/4 227/3/4 231/3/4
f 227/3/4 228/3/4 231/3/4
f 228/4/4 229/4/4 232/4/4
f 231/3/4 228/3/4 232/3/4
f 229/3/4 230/3/4 233/3/4
f 232/4/4 229/4/4 233/4/4
f 230/3/4 226/3/4 234/3/4
f 233/3/4 230/3/4 234/3/4
f 221/3/4 231/3/4 235/3/4
f 231/4/4 232/4/4 236/4/4
f 235/3/4 231/3/4 236/3/4
f 232/3/4 233/3/4 237/3/4
f 236/4/4 232/4/4 237/4/4
f 233/4/4 234/4/4 238/4/4
f 237/3/4 233/3/4 238/3/4
f 234/3/4 226/3/4 239/3/4
f 238/4/4 234/4/4 239/4/4
f 239/3/4 226/3/4 240/3/4
f 235/4/4 236/4/4 241/4/4
f 237/3/4 238/3/4 242/3/4
f 241/4/4 236/4/4 242/4/4
f 236/3/4 237/3/4 242/3/4
f 238/3/4 239/3/4 242/3/4
f 239/4/4 240/4/4 243/4/4
f 242/3/4 239/3/4 243/3/4
f 243/4/4 240/4/4 244/4/4
f 245/4/4 246/4/4 247/4/4
f 247/4/4 246/4/4 248/4/4
f 247/3/4 248/3/4 249/3/4
f 249/3/4 248/3/4 250/3/4
f 247/3/4 249/3/4 251/3/4
f 250/3/4 248/3/4 252/3/4
f 245/4/4 247/4/4 253/4/4
f 251/3/4 252/3/4 253/3/4
f 247/3/4 251/3/4 253/3/4
f 252/3/4 248/3/4 254/3/4
f 253/3/4 252/3/4 254/3/4
f 248/4/4 246/4/4 254/4/4
f 245/4/4 253/4/4 255/4/4
f 253/4/4 254/4/4 255/4/4
f 254/4/4 246/4/4 256/4/4
f 255/4/4 254/4/4 256/4/4
f 259/4/5 258/4/5 257/4/5
f 260/4/5 258/4/5 259/4/5
f 261/3/5 260/3/5 259/3/5
f 262/3/5 260/3/5 261/3/5
f 263/3/5 261/3/5 259/3/5
f 264/3/5 260/3/5 262/3/5
f 265/4/5 259/4/5 257/4/5
f 265/3/5 264/3/5 263/3/5
f 265/3/5 263/3/5 259/3/5
f 266/3/5 260/3/5 264/3/5
f 266/3/5 264/3/5 265/3/5
f 266/4/5 258/4/5 260/4/5
f 267/4/5 265/4/5 257/4/5
f 267/4/5 266/4/5 265/4/5
f 268/4/5 258/4/5 266/4/5
f 268/4/5 266/4/5 267/4/5
f 273/4/5 270/4/5 269/4/5
f 274/3/5 271/3/5 270/3/5
f 274/4/5 270/4/5 273/4/5
f 275/3/5 271/3/5 274/3/5
f 276/3/5 271/3/5 275/3/5
f 277/4/5 272/4/5 271/4/5
f 277/3/5 271/3/5 276/3/5
f 278/4/5 272/4/5 277/4/5
f 279/3/5 274/3/5 273/3/5
f 279/4/5 275/4/5 274/4/5
f 280/3/5 276/3/5 275/3/5
f 280/4/5 275/4/5 279/4/5
f 281/4/5 277/4/5 276/4/5
f 281/3/5 276/3/5 280/3/5
f 282/3/5 278/3/5 277/3/5
f 282/4/5 277/4/5 281/4/5
f 283/3/5 279/3/5 273/3/5
f 283/3/5 280/3/5 279/3/5
f 284/4/5 281/4/5 280/4/5
f 284/3/5 280/3/5 283/3/5
f 285/3/5 282/3/5 281/3/5
f 285/4/5 281/4/5 284/4/5
f 286/3/5 278/3/5 282/3/5
f 286/3/5 282/3/5 285/3/5
f 287/3/5 283/3/5 273/3/5
f 288/4/5 284/4/5 283/4/5
f 288/3/5 283/3/5 287/3/5
f 289/3/5 285/3/5 284/3/5
f 289/4/5 284/4/5 288/4/5
f 290/4/5 286/4/5 285/4/5
f 290/3/5 285/3/5 289/3/5
f 291/3/5 278/3/5 286/3/5
f 291/4/5 286/4/5 290/4/5
f 292/3/5 278/3/5 291/3/5
f 293/4/5 288/4/5 287/4/5
f 294/3/5 290/3/5 289/3/5
f 294/4/5 288/4/5 293/4/5
f 294/3/5 289/3/5 288/3/5
f 294/3/5 291/3/5 290/3/5
f 295/4/5 292/4/5 291/4/5
f 295/3/5 291/3/5 294/3/5
f 296/4/5 292/4/5 295/4/5
f 299/3/5 298/3/5 297/3/5
f 300/3/5 298/3/5 299/3/5
f 301/3/5 298/3/5 300/3/5
f 302/3/5 298/3/5 301/3/5
f 307/3/5 304/3/5 303/3/5
f 308/3/5 306/3/5 305/3/5
f 309/3/5 307/3/5 303/3/5
f 310/3/5 306/3/5 308/3/5
f 311/3/5 309/3/5 303/3/5
f 312/3/5 309/3/5 311/3/5
f 313/3/5 306/3/5 310/3/5
f 314/3/5 306/3/5 313/3/5
f 319/3/5 316/3/5 315/3/5
f 319/3/5 318/3/5 317/3/5
f 319/3/5 317/3/5 316/3/5
f 320/3/5 318/3/5 319/3/5
f 321/3/6 322/3/6 323/3/6
f 323/3/6 322/3/6 324/3/6
f 324/3/6 322/3/6 325/3/6
f 325/3/6 322/3/6 326/3/6
f 327/3/6 328/3/6 331/3/6
f 329/3/6 330/3/6 332/3/6
f 327/3/6 331/3/6 333/3/6
f 332/3/6 330/3/6 334/3/6
f 327/3/6 333/3/6 335/3/6
f 335/3/6 333/3/6 336/3/6
f 334/3/6 330/3/6 337/3/6
f 337/3/6 330/3/6 338/3/6
f 339/3/6 340/3/6 343/3/6
f 341/3/6 342/3/6 343/3/6
f 340/3/6 341/3/6 343/3/6
f 343/3/6 342/3/6 344/3/6
f 345/4/6 346/4/6 349/4/6
f 346/3/6 347/3/6 350/3/6
f 349/4/6 346/4/6 350/4/6
f 350/3/6 347/3/6 351/3/6
f 351/3/6 347/3/6 352/3/6
f 347/4/6 348/4/6 353/4/6
f 352/3/6 347/3/6 353/3/6
f 353/4/6 348/4/6 354/4/6
f 349/3/6 350/3/6 355/3/6
f 350/4/6 351/4/6 355/4/6
f 351/3/6 352/3/6 356/3/6
f 355/4/6 351/4/6 356/4/6
f 352/4/6 353/4/6 357/4/6
f 356/3/6 352/3/6 357/3/6
f 353/3/6 354/3/6 358/3/6
f 357/4/6 353/4/6 358/4/6
f 349/3/6 355/3/6 359/3/6
f 355/3/6 356/3/6 359/3/6
f 356/4/6 357/4/6 360/4/6
f 359/3/6 356/3/6 360/3/6
f 357/3/6 358/3/6 361/3/6
f 360/4/6 357/4/6 361/4/6
f 358/3/6 354/3/6 362/3/6
f 361/3/6 358/3/6 362/3/6
f 349/3/6 359/3/6 363/3/6
f 359/4/6 360/4/6 364/4/6
f 363/3/6 359/3/6 364/3/6
f 360/3/6 361/3/6 365/3/6
f 364/4/6 360/4/6 365/4/6
f 361/4/6 362/4/6 366/4/6
f 365/3/6 361/3/6 366/3/6
f 362/3/6 354/3/6 367/3/6
f 366/4/6 362/4/6 367/4/6
f 367/3/6 354/3/6 368/3/6
f 363/4/6 364/4/6 369/4/6
f 365/3/6 366/3/6 370/3/6
f 369/4/6 364/4/6 370/4/6
f 364/3/6 365/3/6 370/3/6
f 366/3/6 367/3/6 370/3/6
f 367/4/6 368/4/6 371/4/6
f 370/3/6 367/3/6 371/3/6
f 371/4/6 368/4/6 372/4/6
f 373/4/6 374/4/6 375/4/6
f 375/4/6 374/4/6 376/4/6
f 375/3/6 376/3/6 377/3/6
f 377/3/6 376/3/6 378/3/6
f 375/3/6 377/3/6 379/3/6
f 378/3/6 376/3/6 380/3/6
f 373/4/6 375/4/6 381/4/6
f 379/3/6 380/3/6 381/3/6
f 375/3/6 379/3/6 381/3/6
f 380/3/6 376/3/6 382/3/6
f 381/3/6 380/3/6 382/3/6
f 376/4/6 374/4/6 382/4/6
f 373/4/6 381/4/6 383/4/6
f 381/4/6 382/4/6 383/4/6
f 382/4/6 374/4/6 384/4/6
f 383/4/6 382/4/6 384/4/6
