# MagicaVoxel @ Ephtracy

# group
o 

# material
mtllib box1.vox.mtl
usemtl palette

# normals
vn -1 0 0
vn 1 0 0
vn 0 0 1
vn 0 0 -1
vn 0 -1 0
vn 0 1 0

# texcoords
vt 0.607422 0.5
vt 0.611328 0.5
vt 0.951172 0.5
vt 0.955078 0.5

# verts
v -1 0 1
v -1 0 -1
v -1 0.2 0.8
v -1 0.2 -0.8
v -1 0.4 0.6
v -1 0.4 -0.6
v -1 0.8 0.8
v -1 0.8 0.6
v -1 0.8 -0.6
v -1 0.8 -0.8
v -1 1.2 0.8
v -1 1.2 0.6
v -1 1.2 -0.6
v -1 1.2 -0.8
v -1 1.6 0.6
v -1 1.6 -0.6
v -1 1.8 0.8
v -1 1.8 -0.8
v -1 2 1
v -1 2 -1
v -0.8 0.4 0.6
v -0.8 0.4 -0.6
v -0.8 0.8 0.6
v -0.8 0.8 -0.6
v -0.8 1.2 0.6
v -0.8 1.2 -0.6
v -0.8 1.6 0.6
v -0.8 1.6 -0.6
v 0.6 0 0.6
v 0.6 0 -0.6
v 0.6 0.2 0.6
v 0.6 0.2 -0.6
v 0.6 0.4 1
v 0.6 0.4 0.8
v 0.6 0.4 -0.8
v 0.6 0.4 -1
v 0.6 0.8 1
v 0.6 0.8 0.8
v 0.6 0.8 -0.8
v 0.6 0.8 -1
v 0.6 1.2 1
v 0.6 1.2 0.8
v 0.6 1.2 -0.8
v 0.6 1.2 -1
v 0.6 1.6 1
v 0.6 1.6 0.8
v 0.6 1.6 -0.8
v 0.6 1.6 -1
v 0.6 1.8 0.6
v 0.6 1.8 -0.6
v 0.6 2 0.6
v 0.6 2 -0.6
v -0.6 0 0.6
v -0.6 0 -0.6
v -0.6 0.2 0.6
v -0.6 0.2 -0.6
v -0.6 0.4 1
v -0.6 0.4 0.8
v -0.6 0.4 -0.8
v -0.6 0.4 -1
v -0.6 0.8 1
v -0.6 0.8 0.8
v -0.6 0.8 -0.8
v -0.6 0.8 -1
v -0.6 1.2 1
v -0.6 1.2 0.8
v -0.6 1.2 -0.8
v -0.6 1.2 -1
v -0.6 1.6 1
v -0.6 1.6 0.8
v -0.6 1.6 -0.8
v -0.6 1.6 -1
v -0.6 1.8 0.6
v -0.6 1.8 -0.6
v -0.6 2 0.6
v -0.6 2 -0.6
v 0.8 0.4 0.6
v 0.8 0.4 -0.6
v 0.8 0.8 0.6
v 0.8 0.8 -0.6
v 0.8 1.2 0.6
v 0.8 1.2 -0.6
v 0.8 1.6 0.6
v 0.8 1.6 -0.6
v 1 0 1
v 1 0 -1
v 1 0.2 0.8
v 1 0.2 -0.8
v 1 0.4 0.6
v 1 0.4 -0.6
v 1 0.8 0.8
v 1 0.8 0.6
v 1 0.8 -0.6
v 1 0.8 -0.8
v 1 1.2 0.8
v 1 1.2 0.6
v 1 1.2 -0.6
v 1 1.2 -0.8
v 1 1.6 0.6
v 1 1.6 -0.6
v 1 1.8 0.8
v 1 1.8 -0.8
v 1 2 1
v 1 2 -1
v -1 0 1
v -1 2 1
v -0.8 0.2 1
v -0.8 0.8 1
v -0.8 1.2 1
v -0.8 1.8 1
v -0.6 0.4 1
v -0.6 0.8 1
v -0.6 1.2 1
v -0.6 1.6 1
v 0.6 0.4 1
v 0.6 0.8 1
v 0.6 1.2 1
v 0.6 1.6 1
v 0.8 0.2 1
v 0.8 0.8 1
v 0.8 1.2 1
v 0.8 1.8 1
v 1 0 1
v 1 2 1
v -0.6 0.4 0.8
v -0.6 0.8 0.8
v -0.6 1.2 0.8
v -0.6 1.6 0.8
v 0.6 0.4 0.8
v 0.6 0.8 0.8
v 0.6 1.2 0.8
v 0.6 1.6 0.8
v -1 0.4 -0.6
v -1 0.8 -0.6
v -1 1.2 -0.6
v -1 1.6 -0.6
v -0.8 0.4 -0.6
v -0.8 0.8 -0.6
v -0.8 1.2 -0.6
v -0.8 1.6 -0.6
v -0.6 0 -0.6
v -0.6 0.2 -0.6
v -0.6 1.8 -0.6
v -0.6 2 -0.6
v -0.2 0 -0.6
v -0.2 0.2 -0.6
v -0.2 1.8 -0.6
v -0.2 2 -0.6
v 0.2 0 -0.6
v 0.2 0.2 -0.6
v 0.2 1.8 -0.6
v 0.2 2 -0.6
v 0.6 0 -0.6
v 0.6 0.2 -0.6
v 0.6 1.8 -0.6
v 0.6 2 -0.6
v 0.8 0.4 -0.6
v 0.8 0.8 -0.6
v 0.8 1.2 -0.6
v 0.8 1.6 -0.6
v 1 0.4 -0.6
v 1 0.8 -0.6
v 1 1.2 -0.6
v 1 1.6 -0.6
v -1 0.4 0.6
v -1 0.8 0.6
v -1 1.2 0.6
v -1 1.6 0.6
v -0.8 0.4 0.6
v -0.8 0.8 0.6
v -0.8 1.2 0.6
v -0.8 1.6 0.6
v -0.6 0 0.6
v -0.6 0.2 0.6
v -0.6 1.8 0.6
v -0.6 2 0.6
v -0.2 0 0.6
v -0.2 0.2 0.6
v -0.2 1.8 0.6
v -0.2 2 0.6
v 0.2 0 0.6
v 0.2 0.2 0.6
v 0.2 1.8 0.6
v 0.2 2 0.6
v 0.6 0 0.6
v 0.6 0.2 0.6
v 0.6 1.8 0.6
v 0.6 2 0.6
v 0.8 0.4 0.6
v 0.8 0.8 0.6
v 0.8 1.2 0.6
v 0.8 1.6 0.6
v 1 0.4 0.6
v 1 0.8 0.6
v 1 1.2 0.6
v 1 1.6 0.6
v -0.6 0.4 -0.8
v -0.6 0.8 -0.8
v -0.6 1.2 -0.8
v -0.6 1.6 -0.8
v 0.6 0.4 -0.8
v 0.6 0.8 -0.8
v 0.6 1.2 -0.8
v 0.6 1.6 -0.8
v -1 0 -1
v -1 2 -1
v -0.8 0.2 -1
v -0.8 0.8 -1
v -0.8 1.2 -1
v -0.8 1.8 -1
v -0.6 0.4 -1
v -0.6 0.8 -1
v -0.6 1.2 -1
v -0.6 1.6 -1
v 0.6 0.4 -1
v 0.6 0.8 -1
v 0.6 1.2 -1
v 0.6 1.6 -1
v 0.8 0.2 -1
v 0.8 0.8 -1
v 0.8 1.2 -1
v 0.8 1.8 -1
v 1 0 -1
v 1 2 -1
v -1 0 1
v 1 0 1
v -0.8 0 0.8
v -0.2 0 0.8
v 0.2 0 0.8
v 0.8 0 0.8
v -0.6 0 0.6
v -0.2 0 0.6
v 0.2 0 0.6
v 0.6 0 0.6
v -0.6 0 -0.6
v -0.2 0 -0.6
v 0.2 0 -0.6
v 0.6 0 -0.6
v -0.8 0 -0.8
v -0.2 0 -0.8
v 0.2 0 -0.8
v 0.8 0 -0.8
v -1 0 -1
v 1 0 -1
v -0.6 0.2 0.6
v -0.2 0.2 0.6
v 0.2 0.2 0.6
v 0.6 0.2 0.6
v -0.6 0.2 -0.6
v -0.2 0.2 -0.6
v 0.2 0.2 -0.6
v 0.6 0.2 -0.6
v -0.6 1.6 1
v 0.6 1.6 1
v -0.6 1.6 0.8
v 0.6 1.6 0.8
v -1 1.6 0.6
v -0.8 1.6 0.6
v 0.8 1.6 0.6
v 1 1.6 0.6
v -1 1.6 -0.6
v -0.8 1.6 -0.6
v 0.8 1.6 -0.6
v 1 1.6 -0.6
v -0.6 1.6 -0.8
v 0.6 1.6 -0.8
v -0.6 1.6 -1
v 0.6 1.6 -1
v -0.6 0.4 1
v 0.6 0.4 1
v -0.6 0.4 0.8
v 0.6 0.4 0.8
v -1 0.4 0.6
v -0.8 0.4 0.6
v 0.8 0.4 0.6
v 1 0.4 0.6
v -1 0.4 -0.6
v -0.8 0.4 -0.6
v 0.8 0.4 -0.6
v 1 0.4 -0.6
v -0.6 0.4 -0.8
v 0.6 0.4 -0.8
v -0.6 0.4 -1
v 0.6 0.4 -1
v -0.6 1.8 0.6
v -0.2 1.8 0.6
v 0.2 1.8 0.6
v 0.6 1.8 0.6
v -0.6 1.8 -0.6
v -0.2 1.8 -0.6
v 0.2 1.8 -0.6
v 0.6 1.8 -0.6
v -1 2 1
v 1 2 1
v -0.8 2 0.8
v -0.2 2 0.8
v 0.2 2 0.8
v 0.8 2 0.8
v -0.6 2 0.6
v -0.2 2 0.6
v 0.2 2 0.6
v 0.6 2 0.6
v -0.6 2 -0.6
v -0.2 2 -0.6
v 0.2 2 -0.6
v 0.6 2 -0.6
v -0.8 2 -0.8
v -0.2 2 -0.8
v 0.2 2 -0.8
v 0.8 2 -0.8
v -1 2 -1
v 1 2 -1

# faces
f 3/4/1 2/4/1 1/4/1
f 4/4/1 2/4/1 3/4/1
f 5/3/1 4/3/1 3/3/1
f 6/3/1 4/3/1 5/3/1
f 7/4/1 3/4/1 1/4/1
f 7/3/1 5/3/1 3/3/1
f 8/3/1 5/3/1 7/3/1
f 9/3/1 4/3/1 6/3/1
f 10/4/1 2/4/1 4/4/1
f 10/3/1 4/3/1 9/3/1
f 11/4/1 8/4/1 7/4/1
f 11/4/1 7/4/1 1/4/1
f 12/4/1 8/4/1 11/4/1
f 13/4/1 10/4/1 9/4/1
f 14/4/1 2/4/1 10/4/1
f 14/4/1 10/4/1 13/4/1
f 15/3/1 12/3/1 11/3/1
f 16/3/1 14/3/1 13/3/1
f 17/4/1 11/4/1 1/4/1
f 17/3/1 16/3/1 15/3/1
f 17/3/1 15/3/1 11/3/1
f 18/4/1 2/4/1 14/4/1
f 18/3/1 16/3/1 17/3/1
f 18/3/1 14/3/1 16/3/1
f 19/4/1 17/4/1 1/4/1
f 19/4/1 18/4/1 17/4/1
f 20/4/1 2/4/1 18/4/1
f 20/4/1 18/4/1 19/4/1
f 23/3/1 22/3/1 21/3/1
f 24/3/1 22/3/1 23/3/1
f 25/4/1 24/4/1 23/4/1
f 26/4/1 24/4/1 25/4/1
f 27/3/1 26/3/1 25/3/1
f 28/3/1 26/3/1 27/3/1
f 31/3/1 30/3/1 29/3/1
f 32/3/1 30/3/1 31/3/1
f 37/3/1 34/3/1 33/3/1
f 38/3/1 34/3/1 37/3/1
f 39/3/1 36/3/1 35/3/1
f 40/3/1 36/3/1 39/3/1
f 41/4/1 38/4/1 37/4/1
f 42/4/1 38/4/1 41/4/1
f 43/4/1 40/4/1 39/4/1
f 44/4/1 40/4/1 43/4/1
f 45/3/1 42/3/1 41/3/1
f 46/3/1 42/3/1 45/3/1
f 47/3/1 44/3/1 43/3/1
f 48/3/1 44/3/1 47/3/1
f 51/3/1 50/3/1 49/3/1
f 52/3/1 50/3/1 51/3/1
f 53/3/2 54/3/2 55/3/2
f 55/3/2 54/3/2 56/3/2
f 57/3/2 58/3/2 61/3/2
f 61/3/2 58/3/2 62/3/2
f 59/3/2 60/3/2 63/3/2
f 63/3/2 60/3/2 64/3/2
f 61/4/2 62/4/2 65/4/2
f 65/4/2 62/4/2 66/4/2
f 63/4/2 64/4/2 67/4/2
f 67/4/2 64/4/2 68/4/2
f 65/3/2 66/3/2 69/3/2
f 69/3/2 66/3/2 70/3/2
f 67/3/2 68/3/2 71/3/2
f 71/3/2 68/3/2 72/3/2
f 73/3/2 74/3/2 75/3/2
f 75/3/2 74/3/2 76/3/2
f 77/3/2 78/3/2 79/3/2
f 79/3/2 78/3/2 80/3/2
f 79/4/2 80/4/2 81/4/2
f 81/4/2 80/4/2 82/4/2
f 81/3/2 82/3/2 83/3/2
f 83/3/2 82/3/2 84/3/2
f 85/4/2 86/4/2 87/4/2
f 87/4/2 86/4/2 88/4/2
f 87/3/2 88/3/2 89/3/2
f 89/3/2 88/3/2 90/3/2
f 85/4/2 87/4/2 91/4/2
f 87/3/2 89/3/2 91/3/2
f 91/3/2 89/3/2 92/3/2
f 90/3/2 88/3/2 93/3/2
f 88/4/2 86/4/2 94/4/2
f 93/3/2 88/3/2 94/3/2
f 91/4/2 92/4/2 95/4/2
f 85/4/2 91/4/2 95/4/2
f 95/4/2 92/4/2 96/4/2
f 93/4/2 94/4/2 97/4/2
f 94/4/2 86/4/2 98/4/2
f 97/4/2 94/4/2 98/4/2
f 95/3/2 96/3/2 99/3/2
f 97/3/2 98/3/2 100/3/2
f 85/4/2 95/4/2 101/4/2
f 99/3/2 100/3/2 101/3/2
f 95/3/2 99/3/2 101/3/2
f 98/4/2 86/4/2 102/4/2
f 101/3/2 100/3/2 102/3/2
f 100/3/2 98/3/2 102/3/2
f 85/4/2 101/4/2 103/4/2
f 101/4/2 102/4/2 103/4/2
f 102/4/2 86/4/2 104/4/2
f 103/4/2 102/4/2 104/4/2
f 107/4/3 106/4/3 105/4/3
f 108/4/3 106/4/3 107/4/3
f 109/4/3 106/4/3 108/4/3
f 110/4/3 106/4/3 109/4/3
f 111/3/3 108/3/3 107/3/3
f 112/4/3 109/4/3 108/4/3
f 112/3/3 108/3/3 111/3/3
f 113/3/3 110/3/3 109/3/3
f 113/4/3 109/4/3 112/4/3
f 114/3/3 110/3/3 113/3/3
f 115/3/3 111/3/3 107/3/3
f 118/3/3 110/3/3 114/3/3
f 119/4/3 107/4/3 105/4/3
f 119/3/3 115/3/3 107/3/3
f 119/3/3 116/3/3 115/3/3
f 120/4/3 117/4/3 116/4/3
f 120/3/3 116/3/3 119/3/3
f 121/3/3 118/3/3 117/3/3
f 121/4/3 117/4/3 120/4/3
f 122/4/3 106/4/3 110/4/3
f 122/3/3 118/3/3 121/3/3
f 122/3/3 110/3/3 118/3/3
f 123/4/3 120/4/3 119/4/3
f 123/4/3 121/4/3 120/4/3
f 123/4/3 122/4/3 121/4/3
f 123/4/3 119/4/3 105/4/3
f 124/4/3 106/4/3 122/4/3
f 124/4/3 122/4/3 123/4/3
f 129/3/3 126/3/3 125/3/3
f 130/4/3 127/4/3 126/4/3
f 130/3/3 126/3/3 129/3/3
f 131/3/3 128/3/3 127/3/3
f 131/4/3 127/4/3 130/4/3
f 132/3/3 128/3/3 131/3/3
f 137/3/3 134/3/3 133/3/3
f 138/4/3 135/4/3 134/4/3
f 138/3/3 134/3/3 137/3/3
f 139/3/3 136/3/3 135/3/3
f 139/4/3 135/4/3 138/4/3
f 140/3/3 136/3/3 139/3/3
f 145/3/3 142/3/3 141/3/3
f 146/3/3 142/3/3 145/3/3
f 147/3/3 144/3/3 143/3/3
f 148/3/3 144/3/3 147/3/3
f 149/4/3 146/4/3 145/4/3
f 150/4/3 146/4/3 149/4/3
f 151/4/3 148/4/3 147/4/3
f 152/4/3 148/4/3 151/4/3
f 153/3/3 150/3/3 149/3/3
f 154/3/3 150/3/3 153/3/3
f 155/3/3 152/3/3 151/3/3
f 156/3/3 152/3/3 155/3/3
f 161/3/3 158/3/3 157/3/3
f 162/4/3 159/4/3 158/4/3
f 162/3/3 158/3/3 161/3/3
f 163/3/3 160/3/3 159/3/3
f 163/4/3 159/4/3 162/4/3
f 164/3/3 160/3/3 163/3/3
f 165/3/4 166/3/4 169/3/4
f 166/4/4 167/4/4 170/4/4
f 169/3/4 166/3/4 170/3/4
f 167/3/4 168/3/4 171/3/4
f 170/4/4 167/4/4 171/4/4
f 171/3/4 168/3/4 172/3/4
f 173/3/4 174/3/4 177/3/4
f 177/3/4 174/3/4 178/3/4
f 175/3/4 176/3/4 179/3/4
f 179/3/4 176/3/4 180/3/4
f 177/4/4 178/4/4 181/4/4
f 181/4/4 178/4/4 182/4/4
f 179/4/4 180/4/4 183/4/4
f 183/4/4 180/4/4 184/4/4
f 181/3/4 182/3/4 185/3/4
f 185/3/4 182/3/4 186/3/4
f 183/3/4 184/3/4 187/3/4
f 187/3/4 184/3/4 188/3/4
f 189/3/4 190/3/4 193/3/4
f 190/4/4 191/4/4 194/4/4
f 193/3/4 190/3/4 194/3/4
f 191/3/4 192/3/4 195/3/4
f 194/4/4 191/4/4 195/4/4
f 195/3/4 192/3/4 196/3/4
f 197/3/4 198/3/4 201/3/4
f 198/4/4 199/4/4 202/4/4
f 201/3/4 198/3/4 202/3/4
f 199/3/4 200/3/4 203/3/4
f 202/4/4 199/4/4 203/4/4
f 203/3/4 200/3/4 204/3/4
f 205/4/4 206/4/4 207/4/4
f 207/4/4 206/4/4 208/4/4
f 208/4/4 206/4/4 209/4/4
f 209/4/4 206/4/4 210/4/4
f 207/3/4 208/3/4 211/3/4
f 208/4/4 209/4/4 212/4/4
f 211/3/4 208/3/4 212/3/4
f 209/3/4 210/3/4 213/3/4
f 212/4/4 209/4/4 213/4/4
f 213/3/4 210/3/4 214/3/4
f 207/3/4 211/3/4 215/3/4
f 214/3/4 210/3/4 218/3/4
f 205/4/4 207/4/4 219/4/4
f 207/3/4 215/3/4 219/3/4
f 215/3/4 216/3/4 219/3/4
f 216/4/4 217/4/4 220/4/4
f 219/3/4 216/3/4 220/3/4
f 217/3/4 218/3/4 221/3/4
f 220/4/4 217/4/4 221/4/4
f 210/4/4 206/4/4 222/4/4
f 221/3/4 218/3/4 222/3/4
f 218/3/4 210/3/4 222/3/4
f 219/4/4 220/4/4 223/4/4
f 220/4/4 221/4/4 223/4/4
f 221/4/4 222/4/4 223/4/4
f 205/4/4 219/4/4 223/4/4
f 222/4/4 206/4/4 224/4/4
f 223/4/4 222/4/4 224/4/4
f 227/4/5 226/4/5 225/4/5
f 228/4/5 226/4/5 227/4/5
f 229/4/5 226/4/5 228/4/5
f 230/4/5 226/4/5 229/4/5
f 231/3/5 228/3/5 227/3/5
f 232/4/5 229/4/5 228/4/5
f 232/3/5 228/3/5 231/3/5
f 233/3/5 230/3/5 229/3/5
f 233/4/5 229/4/5 232/4/5
f 234/3/5 230/3/5 233/3/5
f 235/3/5 231/3/5 227/3/5
f 238/3/5 230/3/5 234/3/5
f 239/4/5 227/4/5 225/4/5
f 239/3/5 235/3/5 227/3/5
f 239/3/5 236/3/5 235/3/5
f 240/4/5 237/4/5 236/4/5
f 240/3/5 236/3/5 239/3/5
f 241/3/5 238/3/5 237/3/5
f 241/4/5 237/4/5 240/4/5
f 242/4/5 226/4/5 230/4/5
f 242/3/5 238/3/5 241/3/5
f 242/3/5 230/3/5 238/3/5
f 243/4/5 240/4/5 239/4/5
f 243/4/5 241/4/5 240/4/5
f 243/4/5 242/4/5 241/4/5
f 243/4/5 239/4/5 225/4/5
f 244/4/5 226/4/5 242/4/5
f 244/4/5 242/4/5 243/4/5
f 249/3/5 246/3/5 245/3/5
f 250/4/5 247/4/5 246/4/5
f 250/3/5 246/3/5 249/3/5
f 251/3/5 248/3/5 247/3/5
f 251/4/5 247/4/5 250/4/5
f 252/3/5 248/3/5 251/3/5
f 255/3/5 254/3/5 253/3/5
f 256/3/5 254/3/5 255/3/5
f 261/3/5 258/3/5 257/3/5
f 262/3/5 258/3/5 261/3/5
f 263/3/5 260/3/5 259/3/5
f 264/3/5 260/3/5 263/3/5
f 267/3/5 266/3/5 265/3/5
f 268/3/5 266/3/5 267/3/5
f 269/3/6 270/3/6 271/3/6
f 271/3/6 270/3/6 272/3/6
f 273/3/6 274/3/6 277/3/6
f 277/3/6 274/3/6 278/3/6
f 275/3/6 276/3/6 279/3/6
f 279/3/6 276/3/6 280/3/6
f 281/3/6 282/3/6 283/3/6
f 283/3/6 282/3/6 284/3/6
f 285/3/6 286/3/6 289/3/6
f 286/4/6 287/4/6 290/4/6
f 289/3/6 286/3/6 290/3/6
f 287/3/6 288/3/6 291/3/6
f 290/4/6 287/4/6 291/4/6
f 291/3/6 288/3/6 292/3/6
f 293/4/6 294/4/6 295/4/6
f 295/4/6 294/4/6 296/4/6
f 296/4/6 294/4/6 297/4/6
f 297/4/6 294/4/6 298/4/6
f 295/3/6 296/3/6 299/3/6
f 296/4/6 297/4/6 300/4/6
f 299/3/6 296/3/6 300/3/6
f 297/3/6 298/3/6 301/3/6
f 300/4/6 297/4/6 301/4/6
f 301/3/6 298/3/6 302/3/6
f 295/3/6 299/3/6 303/3/6
f 302/3/6 298/3/6 306/3/6
f 293/4/6 295/4/6 307/4/6
f 295/3/6 303/3/6 307/3/6
f 303/3/6 304/3/6 307/3/6
f 304/4/6 305/4/6 308/4/6
f 307/3/6 304/3/6 308/3/6
f 305/3/6 306/3/6 309/3/6
f 308/4/6 305/4/6 309/4/6
f 298/4/6 294/4/6 310/4/6
f 309/3/6 306/3/6 310/3/6
f 306/3/6 298/3/6 310/3/6
f 307/4/6 308/4/6 311/4/6
f 308/4/6 309/4/6 311/4/6
f 309/4/6 310/4/6 311/4/6
f 293/4/6 307/4/6 311/4/6
f 310/4/6 294/4/6 312/4/6
f 311/4/6 310/4/6 312/4/6
