# MagicaVoxel @ Ephtracy

# group
o 

# material
mtllib mole.vox.mtl
usemtl palette

# normals
vn -1 0 0
vn 1 0 0
vn 0 0 1
vn 0 0 -1
vn 0 -1 0
vn 0 1 0

# texcoords
vt 0.419922 0.5
vt 0.451172 0.5
vt 0.455078 0.5
vt 0.494141 0.5
vt 0.517578 0.5
vt 0.556641 0.5
vt 0.677734 0.5
vt 0.958984 0.5
vt 0.962891 0.5
vt 0.966797 0.5
vt 0.982422 0.5
vt 0.990234 0.5

# verts
v -1 0.2 0.9
v -1 0.2 -1.1
v -1 0.7 0.9
v -1 0.7 0.5
v -1 1.1 0.9
v -1 1.1 0.5
v -1 1.7 1
v -1 1.7 0.9
v -1 1.8 1
v -1 1.8 0.9
v -1 2 0.9
v -1 2 -1.1
v -0.9 0.2 -1.1
v -0.9 0.2 -1.4
v -0.9 0.6 -1.1
v -0.9 0.6 -1.4
v -0.9 1.8 1
v -0.9 1.8 0.9
v -0.9 1.9 1
v -0.9 1.9 0.9
v -0.8 0 0.7
v -0.8 0 0.3
v -0.8 0 -0.5
v -0.8 0 -1.1
v -0.8 0.2 0.7
v -0.8 0.2 0.3
v -0.8 0.2 -0.5
v -0.8 0.2 -1.1
v -0.8 1.9 1
v -0.8 1.9 0.9
v -0.8 2 0.9
v -0.8 2 0.8
v -0.8 2.1 1
v -0.8 2.1 0.8
v -0.7 1.6 1
v -0.7 1.6 0.9
v -0.7 1.7 1
v -0.7 1.7 0.9
v -0.7 2.1 1
v -0.7 2.1 0.8
v -0.7 2.2 1
v -0.7 2.2 0.8
v -0.3 0.8 1
v -0.3 0.8 0.9
v -0.3 1 0.9
v -0.3 1.1 1
v -0.3 1.1 0.9
v 0.2 1.7 1
v 0.2 1.7 0.9
v 0.2 1.8 1
v 0.2 1.8 0.9
v 0.2 2 1
v 0.2 2 0.8
v 0.2 2.1 1
v 0.2 2.1 0.8
v 0.3 1.6 1
v 0.3 1.6 0.9
v 0.3 1.7 1
v 0.3 1.7 0.9
v 0.3 2.1 1
v 0.3 2.1 0.8
v 0.3 2.2 1
v 0.3 2.2 0.8
v 0.4 0 0.7
v 0.4 0 0.3
v 0.4 0 -0.5
v 0.4 0 -1.1
v 0.4 0.2 0.7
v 0.4 0.2 0.3
v 0.4 0.2 -0.5
v 0.4 0.2 -1.1
v -0.4 0 0.7
v -0.4 0 0.3
v -0.4 0 -0.5
v -0.4 0 -1.1
v -0.4 0.2 0.7
v -0.4 0.2 0.3
v -0.4 0.2 -0.5
v -0.4 0.2 -1.1
v -0.3 1.6 1
v -0.3 1.6 0.9
v -0.3 1.7 1
v -0.3 1.7 0.9
v -0.3 2.1 1
v -0.3 2.1 0.8
v -0.3 2.2 1
v -0.3 2.2 0.8
v -0.2 1.7 1
v -0.2 1.7 0.9
v -0.2 1.8 1
v -0.2 1.8 0.9
v -0.2 2 1
v -0.2 2 0.8
v -0.2 2.1 1
v -0.2 2.1 0.8
v 0.3 0.8 1
v 0.3 0.8 0.9
v 0.3 1 0.9
v 0.3 1.1 1
v 0.3 1.1 0.9
v 0.7 1.6 1
v 0.7 1.6 0.9
v 0.7 1.7 1
v 0.7 1.7 0.9
v 0.7 2.1 1
v 0.7 2.1 0.8
v 0.7 2.2 1
v 0.7 2.2 0.8
v 0.8 0 0.7
v 0.8 0 0.3
v 0.8 0 -0.5
v 0.8 0 -1.1
v 0.8 0.2 0.7
v 0.8 0.2 0.3
v 0.8 0.2 -0.5
v 0.8 0.2 -1.1
v 0.8 1.9 1
v 0.8 1.9 0.9
v 0.8 2 0.9
v 0.8 2 0.8
v 0.8 2.1 1
v 0.8 2.1 0.8
v 0.9 0.2 -1.1
v 0.9 0.2 -1.4
v 0.9 0.6 -1.1
v 0.9 0.6 -1.4
v 0.9 1.8 1
v 0.9 1.8 0.9
v 0.9 1.9 1
v 0.9 1.9 0.9
v 1 0.2 0.9
v 1 0.2 -1.1
v 1 0.7 0.9
v 1 0.7 0.5
v 1 1.1 0.9
v 1 1.1 0.5
v 1 1.7 1
v 1 1.7 0.9
v 1 1.8 1
v 1 1.8 0.9
v 1 2 0.9
v 1 2 -1.1
v -1 1.7 1
v -1 1.8 1
v -0.9 1.8 1
v -0.9 1.9 1
v -0.8 1.9 1
v -0.8 2.1 1
v -0.7 1.6 1
v -0.7 1.7 1
v -0.7 2.1 1
v -0.7 2.2 1
v -0.6 1.8 1
v -0.6 2 1
v -0.4 1.8 1
v -0.4 2 1
v -0.3 0.8 1
v -0.3 1.1 1
v -0.3 1.6 1
v -0.3 1.7 1
v -0.3 2.1 1
v -0.3 2.2 1
v -0.2 1.7 1
v -0.2 1.8 1
v -0.2 2 1
v -0.2 2.1 1
v 0.2 1.7 1
v 0.2 1.8 1
v 0.2 2 1
v 0.2 2.1 1
v 0.3 0.8 1
v 0.3 1.1 1
v 0.3 1.6 1
v 0.3 1.7 1
v 0.3 2.1 1
v 0.3 2.2 1
v 0.4 1.8 1
v 0.4 2 1
v 0.6 1.8 1
v 0.6 2 1
v 0.7 1.6 1
v 0.7 1.7 1
v 0.7 2.1 1
v 0.7 2.2 1
v 0.8 1.9 1
v 0.8 2.1 1
v 0.9 1.8 1
v 0.9 1.9 1
v 1 1.7 1
v 1 1.8 1
v -1 0.2 0.9
v -1 0.7 0.9
v -1 1.1 0.9
v -1 1.7 0.9
v -1 1.8 0.9
v -1 2 0.9
v -0.9 1.8 0.9
v -0.9 1.9 0.9
v -0.8 1.9 0.9
v -0.8 2 0.9
v -0.7 1.6 0.9
v -0.7 1.7 0.9
v -0.6 0.7 0.9
v -0.6 1 0.9
v -0.6 1.1 0.9
v -0.6 1.4 0.9
v -0.3 0.8 0.9
v -0.3 1 0.9
v -0.3 1.1 0.9
v -0.3 1.4 0.9
v -0.3 1.6 0.9
v -0.3 1.7 0.9
v -0.2 1.7 0.9
v -0.2 1.8 0.9
v 0.2 1.7 0.9
v 0.2 1.8 0.9
v 0.3 0.8 0.9
v 0.3 1 0.9
v 0.3 1.1 0.9
v 0.3 1.4 0.9
v 0.3 1.6 0.9
v 0.3 1.7 0.9
v 0.6 0.7 0.9
v 0.6 1 0.9
v 0.6 1.1 0.9
v 0.6 1.4 0.9
v 0.7 1.6 0.9
v 0.7 1.7 0.9
v 0.8 1.9 0.9
v 0.8 2 0.9
v 0.9 1.8 0.9
v 0.9 1.9 0.9
v 1 0.2 0.9
v 1 0.7 0.9
v 1 1.1 0.9
v 1 1.7 0.9
v 1 1.8 0.9
v 1 2 0.9
v -0.8 0 0.7
v -0.8 0.2 0.7
v -0.4 0 0.7
v -0.4 0.2 0.7
v 0.4 0 0.7
v 0.4 0.2 0.7
v 0.8 0 0.7
v 0.8 0.2 0.7
v -0.8 0 -0.5
v -0.8 0.2 -0.5
v -0.4 0 -0.5
v -0.4 0.2 -0.5
v 0.4 0 -0.5
v 0.4 0.2 -0.5
v 0.8 0 -0.5
v 0.8 0.2 -0.5
v -0.8 2 0.8
v -0.8 2.1 0.8
v -0.7 2.1 0.8
v -0.7 2.2 0.8
v -0.3 2.1 0.8
v -0.3 2.2 0.8
v -0.2 2 0.8
v -0.2 2.1 0.8
v 0.2 2 0.8
v 0.2 2.1 0.8
v 0.3 2.1 0.8
v 0.3 2.2 0.8
v 0.7 2.1 0.8
v 0.7 2.2 0.8
v 0.8 2 0.8
v 0.8 2.1 0.8
v -0.8 0 0.3
v -0.8 0.2 0.3
v -0.4 0 0.3
v -0.4 0.2 0.3
v 0.4 0 0.3
v 0.4 0.2 0.3
v 0.8 0 0.3
v 0.8 0.2 0.3
v -1 0.2 -1.1
v -1 2 -1.1
v -0.9 0.2 -1.1
v -0.9 0.6 -1.1
v -0.8 0 -1.1
v -0.8 0.2 -1.1
v -0.4 0 -1.1
v -0.4 0.2 -1.1
v 0.4 0 -1.1
v 0.4 0.2 -1.1
v 0.8 0 -1.1
v 0.8 0.2 -1.1
v 0.9 0.2 -1.1
v 0.9 0.6 -1.1
v 1 0.2 -1.1
v 1 2 -1.1
v -0.9 0.2 -1.4
v -0.9 0.6 -1.4
v 0.9 0.2 -1.4
v 0.9 0.6 -1.4
v -0.8 0 0.7
v -0.4 0 0.7
v 0.4 0 0.7
v 0.8 0 0.7
v -0.8 0 0.3
v -0.4 0 0.3
v 0.4 0 0.3
v 0.8 0 0.3
v -0.8 0 -0.5
v -0.4 0 -0.5
v 0.4 0 -0.5
v 0.8 0 -0.5
v -0.8 0 -1.1
v -0.4 0 -1.1
v 0.4 0 -1.1
v 0.8 0 -1.1
v -1 0.2 0.9
v 1 0.2 0.9
v -0.8 0.2 0.7
v -0.4 0.2 0.7
v 0.4 0.2 0.7
v 0.8 0.2 0.7
v -0.8 0.2 0.3
v -0.4 0.2 0.3
v 0.4 0.2 0.3
v 0.8 0.2 0.3
v -0.8 0.2 -0.5
v -0.4 0.2 -0.5
v 0.4 0.2 -0.5
v 0.8 0.2 -0.5
v -1 0.2 -1.1
v -0.9 0.2 -1.1
v -0.8 0.2 -1.1
v -0.4 0.2 -1.1
v 0.4 0.2 -1.1
v 0.8 0.2 -1.1
v 0.9 0.2 -1.1
v 1 0.2 -1.1
v -0.9 0.2 -1.4
v 0.9 0.2 -1.4
v -0.3 0.8 1
v 0.3 0.8 1
v -0.3 0.8 0.9
v 0.3 0.8 0.9
v -0.7 1.6 1
v -0.3 1.6 1
v 0.3 1.6 1
v 0.7 1.6 1
v -0.7 1.6 0.9
v -0.3 1.6 0.9
v 0.3 1.6 0.9
v 0.7 1.6 0.9
v -1 1.7 1
v -0.7 1.7 1
v -0.3 1.7 1
v -0.2 1.7 1
v 0.2 1.7 1
v 0.3 1.7 1
v 0.7 1.7 1
v 1 1.7 1
v -1 1.7 0.9
v -0.7 1.7 0.9
v -0.3 1.7 0.9
v -0.2 1.7 0.9
v 0.2 1.7 0.9
v 0.3 1.7 0.9
v 0.7 1.7 0.9
v 1 1.7 0.9
v -0.2 1.8 1
v 0.2 1.8 1
v -0.2 1.8 0.9
v 0.2 1.8 0.9
v -0.9 0.6 -1.1
v 0.9 0.6 -1.1
v -0.9 0.6 -1.4
v 0.9 0.6 -1.4
v -0.3 1.1 1
v 0.3 1.1 1
v -0.3 1.1 0.9
v 0.3 1.1 0.9
v -1 1.8 1
v -0.9 1.8 1
v 0.9 1.8 1
v 1 1.8 1
v -1 1.8 0.9
v -0.9 1.8 0.9
v 0.9 1.8 0.9
v 1 1.8 0.9
v -0.9 1.9 1
v -0.8 1.9 1
v 0.8 1.9 1
v 0.9 1.9 1
v -0.9 1.9 0.9
v -0.8 1.9 0.9
v 0.8 1.9 0.9
v 0.9 1.9 0.9
v -0.2 2 1
v 0.2 2 1
v -1 2 0.9
v -0.8 2 0.9
v 0.8 2 0.9
v 1 2 0.9
v -0.8 2 0.8
v -0.2 2 0.8
v 0.2 2 0.8
v 0.8 2 0.8
v -1 2 -1.1
v 1 2 -1.1
v -0.8 2.1 1
v -0.7 2.1 1
v -0.3 2.1 1
v -0.2 2.1 1
v 0.2 2.1 1
v 0.3 2.1 1
v 0.7 2.1 1
v 0.8 2.1 1
v -0.8 2.1 0.8
v -0.7 2.1 0.8
v -0.3 2.1 0.8
v -0.2 2.1 0.8
v 0.2 2.1 0.8
v 0.3 2.1 0.8
v 0.7 2.1 0.8
v 0.8 2.1 0.8
v -0.7 2.2 1
v -0.3 2.2 1
v 0.3 2.2 1
v 0.7 2.2 1
v -0.7 2.2 0.8
v -0.3 2.2 0.8
v 0.3 2.2 0.8
v 0.7 2.2 0.8

# faces
f 3/3/1 2/3/1 1/3/1
f 4/3/1 2/3/1 3/3/1
f 5/4/1 4/4/1 3/4/1
f 6/3/1 2/3/1 4/3/1
f 6/4/1 4/4/1 5/4/1
f 8/3/1 6/3/1 5/3/1
f 9/11/1 8/11/1 7/11/1
f 10/3/1 6/3/1 8/3/1
f 10/11/1 8/11/1 9/11/1
f 11/3/1 6/3/1 10/3/1
f 12/3/1 2/3/1 6/3/1
f 12/3/1 6/3/1 11/3/1
f 15/4/1 14/4/1 13/4/1
f 16/4/1 14/4/1 15/4/1
f 19/11/1 18/11/1 17/11/1
f 20/11/1 18/11/1 19/11/1
f 25/3/1 22/3/1 21/3/1
f 26/3/1 22/3/1 25/3/1
f 27/3/1 24/3/1 23/3/1
f 28/3/1 24/3/1 27/3/1
f 31/11/1 30/11/1 29/11/1
f 33/11/1 31/11/1 29/11/1
f 33/11/1 32/11/1 31/11/1
f 34/11/1 32/11/1 33/11/1
f 37/11/1 36/11/1 35/11/1
f 38/11/1 36/11/1 37/11/1
f 41/11/1 40/11/1 39/11/1
f 42/11/1 40/11/1 41/11/1
f 45/2/1 44/2/1 43/2/1
f 46/2/1 45/2/1 43/2/1
f 47/2/1 45/2/1 46/2/1
f 50/11/1 49/11/1 48/11/1
f 51/11/1 49/11/1 50/11/1
f 54/11/1 53/11/1 52/11/1
f 55/11/1 53/11/1 54/11/1
f 58/11/1 57/11/1 56/11/1
f 59/11/1 57/11/1 58/11/1
f 62/11/1 61/11/1 60/11/1
f 63/11/1 61/11/1 62/11/1
f 68/3/1 65/3/1 64/3/1
f 69/3/1 65/3/1 68/3/1
f 70/3/1 67/3/1 66/3/1
f 71/3/1 67/3/1 70/3/1
f 72/3/2 73/3/2 76/3/2
f 76/3/2 73/3/2 77/3/2
f 74/3/2 75/3/2 78/3/2
f 78/3/2 75/3/2 79/3/2
f 80/11/2 81/11/2 82/11/2
f 82/11/2 81/11/2 83/11/2
f 84/11/2 85/11/2 86/11/2
f 86/11/2 85/11/2 87/11/2
f 88/11/2 89/11/2 90/11/2
f 90/11/2 89/11/2 91/11/2
f 92/11/2 93/11/2 94/11/2
f 94/11/2 93/11/2 95/11/2
f 96/2/2 97/2/2 98/2/2
f 96/2/2 98/2/2 99/2/2
f 99/2/2 98/2/2 100/2/2
f 101/11/2 102/11/2 103/11/2
f 103/11/2 102/11/2 104/11/2
f 105/11/2 106/11/2 107/11/2
f 107/11/2 106/11/2 108/11/2
f 109/3/2 110/3/2 113/3/2
f 113/3/2 110/3/2 114/3/2
f 111/3/2 112/3/2 115/3/2
f 115/3/2 112/3/2 116/3/2
f 117/11/2 118/11/2 119/11/2
f 117/11/2 119/11/2 121/11/2
f 119/11/2 120/11/2 121/11/2
f 121/11/2 120/11/2 122/11/2
f 123/4/2 124/4/2 125/4/2
f 125/4/2 124/4/2 126/4/2
f 127/11/2 128/11/2 129/11/2
f 129/11/2 128/11/2 130/11/2
f 131/3/2 132/3/2 133/3/2
f 133/3/2 132/3/2 134/3/2
f 133/4/2 134/4/2 135/4/2
f 134/3/2 132/3/2 136/3/2
f 135/4/2 134/4/2 136/4/2
f 135/3/2 136/3/2 138/3/2
f 137/11/2 138/11/2 139/11/2
f 138/3/2 136/3/2 140/3/2
f 139/11/2 138/11/2 140/11/2
f 140/3/2 136/3/2 141/3/2
f 136/3/2 132/3/2 142/3/2
f 141/3/2 136/3/2 142/3/2
f 145/11/3 144/11/3 143/11/3
f 147/11/3 146/11/3 145/11/3
f 150/11/3 145/11/3 143/11/3
f 150/11/3 148/11/3 147/11/3
f 150/11/3 147/11/3 145/11/3
f 151/11/3 148/11/3 150/11/3
f 153/11/3 150/11/3 149/11/3
f 153/11/3 152/11/3 151/11/3
f 153/11/3 151/11/3 150/11/3
f 154/11/3 152/11/3 153/11/3
f 155/11/3 153/11/3 149/11/3
f 155/1/3 154/1/3 153/1/3
f 156/11/3 152/11/3 154/11/3
f 156/1/3 154/1/3 155/1/3
f 159/11/3 155/11/3 149/11/3
f 159/11/3 156/11/3 155/11/3
f 160/11/3 156/11/3 159/11/3
f 161/11/3 152/11/3 156/11/3
f 161/11/3 156/11/3 160/11/3
f 162/11/3 152/11/3 161/11/3
f 163/11/3 161/11/3 160/11/3
f 164/11/3 161/11/3 163/11/3
f 165/11/3 161/11/3 164/11/3
f 166/11/3 161/11/3 165/11/3
f 168/11/3 165/11/3 164/11/3
f 169/11/3 165/11/3 168/11/3
f 171/2/3 158/2/3 157/2/3
f 172/2/3 158/2/3 171/2/3
f 174/11/3 170/11/3 169/11/3
f 174/11/3 168/11/3 167/11/3
f 174/11/3 169/11/3 168/11/3
f 175/11/3 170/11/3 174/11/3
f 177/11/3 176/11/3 175/11/3
f 177/11/3 174/11/3 173/11/3
f 177/11/3 175/11/3 174/11/3
f 178/11/3 176/11/3 177/11/3
f 179/11/3 177/11/3 173/11/3
f 179/1/3 178/1/3 177/1/3
f 180/11/3 176/11/3 178/11/3
f 180/1/3 178/1/3 179/1/3
f 181/11/3 179/11/3 173/11/3
f 181/11/3 180/11/3 179/11/3
f 182/11/3 180/11/3 181/11/3
f 183/11/3 176/11/3 180/11/3
f 183/11/3 180/11/3 182/11/3
f 184/11/3 176/11/3 183/11/3
f 185/11/3 183/11/3 182/11/3
f 186/11/3 183/11/3 185/11/3
f 187/11/3 185/11/3 182/11/3
f 188/11/3 185/11/3 187/11/3
f 189/11/3 187/11/3 182/11/3
f 190/11/3 187/11/3 189/11/3
f 197/3/3 196/3/3 195/3/3
f 198/3/3 196/3/3 197/3/3
f 199/3/3 196/3/3 198/3/3
f 200/3/3 196/3/3 199/3/3
f 201/3/3 194/3/3 193/3/3
f 202/3/3 194/3/3 201/3/3
f 203/3/3 192/3/3 191/3/3
f 203/4/3 193/4/3 192/4/3
f 204/4/3 193/4/3 203/4/3
f 205/3/3 201/3/3 193/3/3
f 205/4/3 193/4/3 204/4/3
f 206/3/3 201/3/3 205/3/3
f 207/3/3 204/3/3 203/3/3
f 208/12/3 205/12/3 204/12/3
f 208/3/3 204/3/3 207/3/3
f 208/12/3 206/12/3 205/12/3
f 209/12/3 206/12/3 208/12/3
f 210/3/3 201/3/3 206/3/3
f 210/12/3 206/12/3 209/12/3
f 211/3/3 201/3/3 210/3/3
f 213/3/3 212/3/3 211/3/3
f 213/3/3 211/3/3 210/3/3
f 213/3/3 210/3/3 209/3/3
f 215/3/3 213/3/3 209/3/3
f 215/3/3 214/3/3 213/3/3
f 216/3/3 214/3/3 215/3/3
f 217/3/3 207/3/3 203/3/3
f 219/3/3 215/3/3 209/3/3
f 220/3/3 215/3/3 219/3/3
f 221/3/3 215/3/3 220/3/3
f 222/3/3 215/3/3 221/3/3
f 223/3/3 203/3/3 191/3/3
f 223/3/3 218/3/3 217/3/3
f 223/3/3 217/3/3 203/3/3
f 224/12/3 220/12/3 219/12/3
f 224/3/3 218/3/3 223/3/3
f 224/12/3 219/12/3 218/12/3
f 225/12/3 220/12/3 224/12/3
f 226/3/3 221/3/3 220/3/3
f 226/12/3 220/12/3 225/12/3
f 227/3/3 226/3/3 225/3/3
f 227/3/3 221/3/3 226/3/3
f 232/3/3 230/3/3 229/3/3
f 233/3/3 223/3/3 191/3/3
f 234/4/3 225/4/3 224/4/3
f 234/3/3 223/3/3 233/3/3
f 234/4/3 224/4/3 223/4/3
f 235/3/3 228/3/3 227/3/3
f 235/4/3 225/4/3 234/4/3
f 235/3/3 227/3/3 225/3/3
f 236/3/3 228/3/3 235/3/3
f 237/3/3 232/3/3 231/3/3
f 238/3/3 230/3/3 232/3/3
f 238/3/3 232/3/3 237/3/3
f 241/3/3 240/3/3 239/3/3
f 242/3/3 240/3/3 241/3/3
f 245/3/3 244/3/3 243/3/3
f 246/3/3 244/3/3 245/3/3
f 249/3/3 248/3/3 247/3/3
f 250/3/3 248/3/3 249/3/3
f 253/3/3 252/3/3 251/3/3
f 254/3/3 252/3/3 253/3/3
f 255/11/4 256/11/4 257/11/4
f 255/11/4 257/11/4 259/11/4
f 257/11/4 258/11/4 259/11/4
f 259/11/4 258/11/4 260/11/4
f 255/11/4 259/11/4 261/11/4
f 261/11/4 259/11/4 262/11/4
f 263/11/4 264/11/4 265/11/4
f 263/11/4 265/11/4 267/11/4
f 265/11/4 266/11/4 267/11/4
f 267/11/4 266/11/4 268/11/4
f 263/11/4 267/11/4 269/11/4
f 269/11/4 267/11/4 270/11/4
f 271/3/4 272/3/4 273/3/4
f 273/3/4 272/3/4 274/3/4
f 275/3/4 276/3/4 277/3/4
f 277/3/4 276/3/4 278/3/4
f 279/3/4 280/3/4 281/3/4
f 281/3/4 280/3/4 282/3/4
f 283/3/4 284/3/4 285/3/4
f 285/3/4 284/3/4 286/3/4
f 287/3/4 288/3/4 289/3/4
f 289/3/4 288/3/4 290/3/4
f 282/3/4 280/3/4 292/3/4
f 291/3/4 292/3/4 293/3/4
f 292/3/4 280/3/4 294/3/4
f 293/3/4 292/3/4 294/3/4
f 295/4/4 296/4/4 297/4/4
f 297/4/4 296/4/4 298/4/4
f 303/3/5 300/3/5 299/3/5
f 304/3/5 300/3/5 303/3/5
f 305/3/5 302/3/5 301/3/5
f 306/3/5 302/3/5 305/3/5
f 311/3/5 308/3/5 307/3/5
f 312/3/5 308/3/5 311/3/5
f 313/3/5 310/3/5 309/3/5
f 314/3/5 310/3/5 313/3/5
f 317/3/5 316/3/5 315/3/5
f 318/3/5 316/3/5 317/3/5
f 319/3/5 316/3/5 318/3/5
f 320/3/5 316/3/5 319/3/5
f 321/3/5 317/3/5 315/3/5
f 322/3/5 319/3/5 318/3/5
f 323/3/5 319/3/5 322/3/5
f 324/3/5 316/3/5 320/3/5
f 325/3/5 323/3/5 322/3/5
f 325/3/5 324/3/5 323/3/5
f 325/3/5 321/3/5 315/3/5
f 325/3/5 322/3/5 321/3/5
f 326/3/5 324/3/5 325/3/5
f 327/3/5 324/3/5 326/3/5
f 328/3/5 316/3/5 324/3/5
f 328/3/5 324/3/5 327/3/5
f 329/3/5 325/3/5 315/3/5
f 330/3/5 325/3/5 329/3/5
f 331/3/5 325/3/5 330/3/5
f 332/3/5 327/3/5 326/3/5
f 333/3/5 327/3/5 332/3/5
f 334/3/5 316/3/5 328/3/5
f 335/3/5 316/3/5 334/3/5
f 336/3/5 316/3/5 335/3/5
f 337/4/5 331/4/5 330/4/5
f 337/4/5 333/4/5 332/4/5
f 337/4/5 335/4/5 334/4/5
f 337/4/5 334/4/5 333/4/5
f 337/4/5 332/4/5 331/4/5
f 338/4/5 335/4/5 337/4/5
f 341/2/5 340/2/5 339/2/5
f 342/2/5 340/2/5 341/2/5
f 347/11/5 344/11/5 343/11/5
f 348/11/5 344/11/5 347/11/5
f 349/11/5 346/11/5 345/11/5
f 350/11/5 346/11/5 349/11/5
f 359/11/5 352/11/5 351/11/5
f 360/11/5 352/11/5 359/11/5
f 361/11/5 354/11/5 353/11/5
f 362/11/5 354/11/5 361/11/5
f 363/11/5 356/11/5 355/11/5
f 364/11/5 356/11/5 363/11/5
f 365/11/5 358/11/5 357/11/5
f 366/11/5 358/11/5 365/11/5
f 369/11/5 368/11/5 367/11/5
f 370/11/5 368/11/5 369/11/5
f 371/4/6 372/4/6 373/4/6
f 373/4/6 372/4/6 374/4/6
f 375/2/6 376/2/6 377/2/6
f 377/2/6 376/2/6 378/2/6
f 379/11/6 380/11/6 383/11/6
f 383/11/6 380/11/6 384/11/6
f 381/11/6 382/11/6 385/11/6
f 385/11/6 382/11/6 386/11/6
f 387/11/6 388/11/6 391/11/6
f 391/11/6 388/11/6 392/11/6
f 389/11/6 390/11/6 393/11/6
f 393/11/6 390/11/6 394/11/6
f 397/3/6 398/3/6 401/3/6
f 395/11/6 396/11/6 402/11/6
f 402/11/6 396/11/6 403/11/6
f 399/3/6 400/3/6 404/3/6
f 397/3/6 401/3/6 405/3/6
f 403/3/6 404/3/6 405/3/6
f 402/3/6 403/3/6 405/3/6
f 401/3/6 402/3/6 405/3/6
f 404/3/6 400/3/6 406/3/6
f 405/3/6 404/3/6 406/3/6
f 407/11/6 408/11/6 415/11/6
f 415/11/6 408/11/6 416/11/6
f 409/11/6 410/11/6 417/11/6
f 417/11/6 410/11/6 418/11/6
f 411/11/6 412/11/6 419/11/6
f 419/11/6 412/11/6 420/11/6
f 413/11/6 414/11/6 421/11/6
f 421/11/6 414/11/6 422/11/6
f 423/11/6 424/11/6 427/11/6
f 427/11/6 424/11/6 428/11/6
f 425/11/6 426/11/6 429/11/6
f 429/11/6 426/11/6 430/11/6
