# MagicaVoxel @ Ephtracy

# group
o 

# material
mtllib bunny.vox.mtl
usemtl palette

# normals
vn -1 0 0
vn 1 0 0
vn 0 0 1
vn 0 0 -1
vn 0 -1 0
vn 0 1 0

# texcoords
vt 0.958984 0.5
vt 0.962891 0.5
vt 0.966797 0.5
vt 0.990234 0.5

# verts
v -1 0.2 0.9
v -1 0.2 -1.1
v -1 0.7 0.9
v -1 0.7 0.5
v -1 1.1 0.9
v -1 1.1 0.5
v -1 2 0.9
v -1 2 -1.1
v -0.8 0 0.7
v -0.8 0 0.3
v -0.8 0 -0.5
v -0.8 0 -0.9
v -0.8 0.2 0.7
v -0.8 0.2 0.3
v -0.8 0.2 -0.5
v -0.8 0.2 -0.9
v -0.8 2 0.1
v -0.8 2 -0.3
v -0.8 2.8 0.1
v -0.8 2.8 -0.3
v 0.2 2 0.1
v 0.2 2 -0.3
v 0.2 2.8 0.1
v 0.2 2.8 -0.3
v 0.4 0 0.7
v 0.4 0 0.3
v 0.4 0 -0.5
v 0.4 0 -0.9
v 0.4 0.2 0.7
v 0.4 0.2 0.3
v 0.4 0.2 -0.5
v 0.4 0.2 -0.9
v -0.4 0 0.7
v -0.4 0 0.3
v -0.4 0 -0.5
v -0.4 0 -0.9
v -0.4 0.2 0.7
v -0.4 0.2 0.3
v -0.4 0.2 -0.5
v -0.4 0.2 -0.9
v -0.2 2 0.1
v -0.2 2 -0.3
v -0.2 2.8 0.1
v -0.2 2.8 -0.3
v 0.8 0 0.7
v 0.8 0 0.3
v 0.8 0 -0.5
v 0.8 0 -0.9
v 0.8 0.2 0.7
v 0.8 0.2 0.3
v 0.8 0.2 -0.5
v 0.8 0.2 -0.9
v 0.8 2 0.1
v 0.8 2 -0.3
v 0.8 2.8 0.1
v 0.8 2.8 -0.3
v 1 0.2 0.9
v 1 0.2 -1.1
v 1 0.7 0.9
v 1 0.7 0.5
v 1 1.1 0.9
v 1 1.1 0.5
v 1 2 0.9
v 1 2 -1.1
v -1 0.2 0.9
v -1 0.7 0.9
v -1 1.1 0.9
v -1 2 0.9
v -0.6 0.7 0.9
v -0.6 1 0.9
v -0.6 1.1 0.9
v -0.6 1.4 0.9
v -0.3 1 0.9
v -0.3 1.4 0.9
v -0.2 0.9 0.9
v -0.2 1 0.9
v -0.1 1 0.9
v -0.1 1.2 0.9
v 0.1 1 0.9
v 0.1 1.2 0.9
v 0.2 0.9 0.9
v 0.2 1 0.9
v 0.3 1 0.9
v 0.3 1.4 0.9
v 0.6 0.7 0.9
v 0.6 1 0.9
v 0.6 1.1 0.9
v 0.6 1.4 0.9
v 1 0.2 0.9
v 1 0.7 0.9
v 1 1.1 0.9
v 1 2 0.9
v -0.8 0 0.7
v -0.8 0.2 0.7
v -0.4 0 0.7
v -0.4 0.2 0.7
v 0.4 0 0.7
v 0.4 0.2 0.7
v 0.8 0 0.7
v 0.8 0.2 0.7
v -0.8 2 0.1
v -0.8 2.8 0.1
v -0.6 2 0.1
v -0.6 2.5 0.1
v -0.4 2 0.1
v -0.4 2.5 0.1
v -0.2 2 0.1
v -0.2 2.8 0.1
v 0.2 2 0.1
v 0.2 2.8 0.1
v 0.4 2 0.1
v 0.4 2.5 0.1
v 0.6 2 0.1
v 0.6 2.5 0.1
v 0.8 2 0.1
v 0.8 2.8 0.1
v -0.8 0 -0.5
v -0.8 0.2 -0.5
v -0.4 0 -0.5
v -0.4 0.2 -0.5
v 0.4 0 -0.5
v 0.4 0.2 -0.5
v 0.8 0 -0.5
v 0.8 0.2 -0.5
v -0.8 0 0.3
v -0.8 0.2 0.3
v -0.4 0 0.3
v -0.4 0.2 0.3
v 0.4 0 0.3
v 0.4 0.2 0.3
v 0.8 0 0.3
v 0.8 0.2 0.3
v -0.8 2 -0.3
v -0.8 2.8 -0.3
v -0.2 2 -0.3
v -0.2 2.8 -0.3
v 0.2 2 -0.3
v 0.2 2.8 -0.3
v 0.8 2 -0.3
v 0.8 2.8 -0.3
v -0.8 0 -0.9
v -0.8 0.2 -0.9
v -0.4 0 -0.9
v -0.4 0.2 -0.9
v 0.4 0 -0.9
v 0.4 0.2 -0.9
v 0.8 0 -0.9
v 0.8 0.2 -0.9
v -1 0.2 -1.1
v -1 2 -1.1
v 1 0.2 -1.1
v 1 2 -1.1
v -0.8 0 0.7
v -0.4 0 0.7
v 0.4 0 0.7
v 0.8 0 0.7
v -0.8 0 0.3
v -0.4 0 0.3
v 0.4 0 0.3
v 0.8 0 0.3
v -0.8 0 -0.5
v -0.4 0 -0.5
v 0.4 0 -0.5
v 0.8 0 -0.5
v -0.8 0 -0.9
v -0.4 0 -0.9
v 0.4 0 -0.9
v 0.8 0 -0.9
v -1 0.2 0.9
v 1 0.2 0.9
v -0.8 0.2 0.7
v -0.4 0.2 0.7
v 0.4 0.2 0.7
v 0.8 0.2 0.7
v -0.8 0.2 0.3
v -0.4 0.2 0.3
v 0.4 0.2 0.3
v 0.8 0.2 0.3
v -0.8 0.2 -0.5
v -0.4 0.2 -0.5
v 0.4 0.2 -0.5
v 0.8 0.2 -0.5
v -0.8 0.2 -0.9
v -0.4 0.2 -0.9
v 0.4 0.2 -0.9
v 0.8 0.2 -0.9
v -1 0.2 -1.1
v 1 0.2 -1.1
v -1 2 0.9
v 1 2 0.9
v -0.8 2 0.1
v -0.6 2 0.1
v -0.4 2 0.1
v -0.2 2 0.1
v 0.2 2 0.1
v 0.4 2 0.1
v 0.6 2 0.1
v 0.8 2 0.1
v -0.8 2 -0.3
v -0.2 2 -0.3
v 0.2 2 -0.3
v 0.8 2 -0.3
v -1 2 -1.1
v 1 2 -1.1
v -0.8 2.8 0.1
v -0.2 2.8 0.1
v 0.2 2.8 0.1
v 0.8 2.8 0.1
v -0.8 2.8 -0.3
v -0.2 2.8 -0.3
v 0.2 2.8 -0.3
v 0.8 2.8 -0.3

# faces
f 3/2/1 2/2/1 1/2/1
f 4/2/1 2/2/1 3/2/1
f 5/3/1 4/3/1 3/3/1
f 6/2/1 2/2/1 4/2/1
f 6/3/1 4/3/1 5/3/1
f 7/2/1 6/2/1 5/2/1
f 8/2/1 2/2/1 6/2/1
f 8/2/1 6/2/1 7/2/1
f 13/2/1 10/2/1 9/2/1
f 14/2/1 10/2/1 13/2/1
f 15/2/1 12/2/1 11/2/1
f 16/2/1 12/2/1 15/2/1
f 19/2/1 18/2/1 17/2/1
f 20/2/1 18/2/1 19/2/1
f 23/2/1 22/2/1 21/2/1
f 24/2/1 22/2/1 23/2/1
f 29/2/1 26/2/1 25/2/1
f 30/2/1 26/2/1 29/2/1
f 31/2/1 28/2/1 27/2/1
f 32/2/1 28/2/1 31/2/1
f 33/2/2 34/2/2 37/2/2
f 37/2/2 34/2/2 38/2/2
f 35/2/2 36/2/2 39/2/2
f 39/2/2 36/2/2 40/2/2
f 41/2/2 42/2/2 43/2/2
f 43/2/2 42/2/2 44/2/2
f 45/2/2 46/2/2 49/2/2
f 49/2/2 46/2/2 50/2/2
f 47/2/2 48/2/2 51/2/2
f 51/2/2 48/2/2 52/2/2
f 53/2/2 54/2/2 55/2/2
f 55/2/2 54/2/2 56/2/2
f 57/2/2 58/2/2 59/2/2
f 59/2/2 58/2/2 60/2/2
f 59/3/2 60/3/2 61/3/2
f 60/2/2 58/2/2 62/2/2
f 61/3/2 60/3/2 62/3/2
f 61/2/2 62/2/2 63/2/2
f 62/2/2 58/2/2 64/2/2
f 63/2/2 62/2/2 64/2/2
f 69/2/3 66/2/3 65/2/3
f 69/3/3 67/3/3 66/3/3
f 70/3/3 67/3/3 69/3/3
f 71/2/3 68/2/3 67/2/3
f 71/3/3 67/3/3 70/3/3
f 72/2/3 68/2/3 71/2/3
f 73/2/3 70/2/3 69/2/3
f 73/4/3 71/4/3 70/4/3
f 73/4/3 72/4/3 71/4/3
f 74/2/3 68/2/3 72/2/3
f 74/4/3 72/4/3 73/4/3
f 75/2/3 73/2/3 69/2/3
f 75/2/3 74/2/3 73/2/3
f 76/2/3 74/2/3 75/2/3
f 77/3/3 76/3/3 75/3/3
f 77/2/3 74/2/3 76/2/3
f 78/2/3 74/2/3 77/2/3
f 79/3/3 77/3/3 75/3/3
f 79/3/3 78/3/3 77/3/3
f 80/2/3 74/2/3 78/2/3
f 80/3/3 78/3/3 79/3/3
f 81/2/3 75/2/3 69/2/3
f 81/3/3 79/3/3 75/3/3
f 82/2/3 80/2/3 79/2/3
f 82/3/3 79/3/3 81/3/3
f 83/2/3 82/2/3 81/2/3
f 83/2/3 80/2/3 82/2/3
f 84/2/3 68/2/3 74/2/3
f 84/2/3 80/2/3 83/2/3
f 84/2/3 74/2/3 80/2/3
f 85/2/3 83/2/3 81/2/3
f 85/2/3 69/2/3 65/2/3
f 85/2/3 81/2/3 69/2/3
f 86/4/3 84/4/3 83/4/3
f 86/2/3 83/2/3 85/2/3
f 87/4/3 84/4/3 86/4/3
f 88/2/3 68/2/3 84/2/3
f 88/4/3 84/4/3 87/4/3
f 89/2/3 85/2/3 65/2/3
f 90/3/3 87/3/3 86/3/3
f 90/2/3 85/2/3 89/2/3
f 90/3/3 86/3/3 85/3/3
f 91/2/3 88/2/3 87/2/3
f 91/3/3 87/3/3 90/3/3
f 92/2/3 68/2/3 88/2/3
f 92/2/3 88/2/3 91/2/3
f 95/2/3 94/2/3 93/2/3
f 96/2/3 94/2/3 95/2/3
f 99/2/3 98/2/3 97/2/3
f 100/2/3 98/2/3 99/2/3
f 103/2/3 102/2/3 101/2/3
f 104/2/3 102/2/3 103/2/3
f 105/3/3 104/3/3 103/3/3
f 106/2/3 102/2/3 104/2/3
f 106/3/3 104/3/3 105/3/3
f 107/2/3 106/2/3 105/2/3
f 108/2/3 102/2/3 106/2/3
f 108/2/3 106/2/3 107/2/3
f 111/2/3 110/2/3 109/2/3
f 112/2/3 110/2/3 111/2/3
f 113/3/3 112/3/3 111/3/3
f 114/2/3 110/2/3 112/2/3
f 114/3/3 112/3/3 113/3/3
f 115/2/3 114/2/3 113/2/3
f 116/2/3 110/2/3 114/2/3
f 116/2/3 114/2/3 115/2/3
f 119/2/3 118/2/3 117/2/3
f 120/2/3 118/2/3 119/2/3
f 123/2/3 122/2/3 121/2/3
f 124/2/3 122/2/3 123/2/3
f 125/2/4 126/2/4 127/2/4
f 127/2/4 126/2/4 128/2/4
f 129/2/4 130/2/4 131/2/4
f 131/2/4 130/2/4 132/2/4
f 133/2/4 134/2/4 135/2/4
f 135/2/4 134/2/4 136/2/4
f 137/2/4 138/2/4 139/2/4
f 139/2/4 138/2/4 140/2/4
f 141/2/4 142/2/4 143/2/4
f 143/2/4 142/2/4 144/2/4
f 145/2/4 146/2/4 147/2/4
f 147/2/4 146/2/4 148/2/4
f 149/2/4 150/2/4 151/2/4
f 151/2/4 150/2/4 152/2/4
f 157/2/5 154/2/5 153/2/5
f 158/2/5 154/2/5 157/2/5
f 159/2/5 156/2/5 155/2/5
f 160/2/5 156/2/5 159/2/5
f 165/2/5 162/2/5 161/2/5
f 166/2/5 162/2/5 165/2/5
f 167/2/5 164/2/5 163/2/5
f 168/2/5 164/2/5 167/2/5
f 171/2/5 170/2/5 169/2/5
f 172/2/5 170/2/5 171/2/5
f 173/2/5 170/2/5 172/2/5
f 174/2/5 170/2/5 173/2/5
f 175/2/5 171/2/5 169/2/5
f 176/2/5 173/2/5 172/2/5
f 177/2/5 173/2/5 176/2/5
f 178/2/5 170/2/5 174/2/5
f 179/2/5 177/2/5 176/2/5
f 179/2/5 178/2/5 177/2/5
f 179/2/5 175/2/5 169/2/5
f 179/2/5 176/2/5 175/2/5
f 180/2/5 178/2/5 179/2/5
f 181/2/5 178/2/5 180/2/5
f 182/2/5 170/2/5 178/2/5
f 182/2/5 178/2/5 181/2/5
f 183/2/5 179/2/5 169/2/5
f 184/2/5 181/2/5 180/2/5
f 185/2/5 181/2/5 184/2/5
f 186/2/5 170/2/5 182/2/5
f 187/2/5 183/2/5 169/2/5
f 187/2/5 186/2/5 185/2/5
f 187/2/5 185/2/5 184/2/5
f 187/2/5 184/2/5 183/2/5
f 188/2/5 170/2/5 186/2/5
f 188/2/5 186/2/5 187/2/5
f 189/2/6 190/2/6 191/2/6
f 191/2/6 190/2/6 192/2/6
f 192/2/6 190/2/6 193/2/6
f 193/2/6 190/2/6 194/2/6
f 194/2/6 190/2/6 195/2/6
f 195/2/6 190/2/6 196/2/6
f 196/2/6 190/2/6 197/2/6
f 197/2/6 190/2/6 198/2/6
f 189/2/6 191/2/6 199/2/6
f 194/2/6 195/2/6 200/2/6
f 200/2/6 195/2/6 201/2/6
f 198/2/6 190/2/6 202/2/6
f 200/2/6 201/2/6 203/2/6
f 201/2/6 202/2/6 203/2/6
f 189/2/6 199/2/6 203/2/6
f 199/2/6 200/2/6 203/2/6
f 202/2/6 190/2/6 204/2/6
f 203/2/6 202/2/6 204/2/6
f 205/2/6 206/2/6 209/2/6
f 209/2/6 206/2/6 210/2/6
f 207/2/6 208/2/6 211/2/6
f 211/2/6 208/2/6 212/2/6
