# MagicaVoxel @ Ephtracy

# group
o 

# material
mtllib unicorn.vox.mtl
usemtl palette

# normals
vn -1 0 0
vn 1 0 0
vn 0 0 1
vn 0 0 -1
vn 0 -1 0
vn 0 1 0

# texcoords
vt 0.111328 0.5
vt 0.244141 0.5
vt 0.255859 0.5
vt 0.279297 0.5
vt 0.384766 0.5
vt 0.517578 0.5
vt 0.541016 0.5
vt 0.556641 0.5
vt 0.587891 0.5
vt 0.958984 0.5
vt 0.962891 0.5
vt 0.966797 0.5
vt 0.990234 0.5

# verts
v -1 0.2 0.9
v -1 0.2 -1.1
v -1 0.7 0.9
v -1 0.7 0.5
v -1 1.1 0.9
v -1 1.1 0.5
v -1 2 0.9
v -1 2 -1.1
v -0.8 0 0.7
v -0.8 0 0.3
v -0.8 0 -0.5
v -0.8 0 -0.9
v -0.8 0.2 0.7
v -0.8 0.2 0.3
v -0.8 0.2 -0.5
v -0.8 0.2 -0.9
v -0.8 2 0.1
v -0.8 2 -0.3
v -0.8 2.5 0.1
v -0.8 2.5 -0.3
v -0.4 1.1 -1.1
v -0.4 1.1 -1.5
v -0.4 1.6 -1.1
v -0.4 1.6 -1.5
v -0.4 2 -0.3
v -0.4 2 -0.9
v -0.4 2 -1.1
v -0.4 2.1 -1.1
v -0.4 2.1 -1.5
v -0.4 2.4 -0.3
v -0.4 2.4 -0.9
v -0.4 2.4 -1.1
v -0.3 0.7 1
v -0.3 0.7 0.9
v -0.3 1 0.9
v -0.3 1.1 1
v -0.3 1.1 0.9
v -0.3 2 0.4
v -0.3 2 0.1
v -0.3 2.3 0.4
v -0.3 2.3 0.1
v -0.2 2.3 0.3
v -0.2 2.3 0.1
v -0.2 2.5 0.1
v -0.2 2.5 -0.1
v -0.2 2.6 0.3
v -0.2 2.6 -0.1
v -0.1 2.6 0.2
v -0.1 2.6 0
v -0.1 2.8 0.2
v -0.1 2.8 0
v 0.2 2.3 -0.1
v 0.2 2.3 -0.2
v 0.2 2.4 -0.2
v 0.2 2.4 -0.3
v 0.2 2.5 -0.1
v 0.2 2.5 -0.3
v 0.4 0 0.7
v 0.4 0 0.3
v 0.4 0 -0.5
v 0.4 0 -0.9
v 0.4 0.2 0.7
v 0.4 0.2 0.3
v 0.4 0.2 -0.5
v 0.4 0.2 -0.9
v -0.4 0 0.7
v -0.4 0 0.3
v -0.4 0 -0.5
v -0.4 0 -0.9
v -0.4 0.2 0.7
v -0.4 0.2 0.3
v -0.4 0.2 -0.5
v -0.4 0.2 -0.9
v -0.2 2.3 -0.1
v -0.2 2.3 -0.2
v -0.2 2.4 -0.2
v -0.2 2.4 -0.3
v -0.2 2.5 -0.1
v -0.2 2.5 -0.3
v 0.1 2.6 0.2
v 0.1 2.6 0
v 0.1 2.8 0.2
v 0.1 2.8 0
v 0.2 2.3 0.3
v 0.2 2.3 0.1
v 0.2 2.5 0.1
v 0.2 2.5 -0.1
v 0.2 2.6 0.3
v 0.2 2.6 -0.1
v 0.3 0.7 1
v 0.3 0.7 0.9
v 0.3 1 0.9
v 0.3 1.1 1
v 0.3 1.1 0.9
v 0.3 2 0.4
v 0.3 2 0.1
v 0.3 2.3 0.4
v 0.3 2.3 0.1
v 0.4 1.1 -1.1
v 0.4 1.1 -1.5
v 0.4 1.6 -1.1
v 0.4 1.6 -1.5
v 0.4 2 -0.3
v 0.4 2 -0.9
v 0.4 2 -1.1
v 0.4 2.1 -1.1
v 0.4 2.1 -1.5
v 0.4 2.4 -0.3
v 0.4 2.4 -0.9
v 0.4 2.4 -1.1
v 0.8 0 0.7
v 0.8 0 0.3
v 0.8 0 -0.5
v 0.8 0 -0.9
v 0.8 0.2 0.7
v 0.8 0.2 0.3
v 0.8 0.2 -0.5
v 0.8 0.2 -0.9
v 0.8 2 0.1
v 0.8 2 -0.3
v 0.8 2.5 0.1
v 0.8 2.5 -0.3
v 1 0.2 0.9
v 1 0.2 -1.1
v 1 0.7 0.9
v 1 0.7 0.5
v 1 1.1 0.9
v 1 1.1 0.5
v 1 2 0.9
v 1 2 -1.1
v -0.3 0.7 1
v -0.3 1.1 1
v -0.2 0.8 1
v -0.2 1 1
v -0.1 0.8 1
v -0.1 1 1
v 0.1 0.8 1
v 0.1 1 1
v 0.2 0.8 1
v 0.2 1 1
v 0.3 0.7 1
v 0.3 1.1 1
v -1 0.2 0.9
v -1 0.7 0.9
v -1 1.1 0.9
v -1 2 0.9
v -0.6 0.7 0.9
v -0.6 1 0.9
v -0.6 1.1 0.9
v -0.6 1.4 0.9
v -0.3 0.7 0.9
v -0.3 1 0.9
v -0.3 1.1 0.9
v -0.3 1.4 0.9
v 0.3 0.7 0.9
v 0.3 1 0.9
v 0.3 1.1 0.9
v 0.3 1.4 0.9
v 0.6 0.7 0.9
v 0.6 1 0.9
v 0.6 1.1 0.9
v 0.6 1.4 0.9
v 1 0.2 0.9
v 1 0.7 0.9
v 1 1.1 0.9
v 1 2 0.9
v -0.8 0 0.7
v -0.8 0.2 0.7
v -0.4 0 0.7
v -0.4 0.2 0.7
v 0.4 0 0.7
v 0.4 0.2 0.7
v 0.8 0 0.7
v 0.8 0.2 0.7
v -0.3 2 0.4
v -0.3 2.3 0.4
v 0.3 2 0.4
v 0.3 2.3 0.4
v -0.2 2.3 0.3
v -0.2 2.6 0.3
v 0.2 2.3 0.3
v 0.2 2.6 0.3
v -0.1 2.6 0.2
v -0.1 2.8 0.2
v 0.1 2.6 0.2
v 0.1 2.8 0.2
v -0.8 2 0.1
v -0.8 2.5 0.1
v -0.6 2 0.1
v -0.6 2.3 0.1
v -0.4 2 0.1
v -0.4 2.3 0.1
v -0.3 2 0.1
v -0.3 2.3 0.1
v -0.2 2.3 0.1
v -0.2 2.5 0.1
v 0.2 2.3 0.1
v 0.2 2.5 0.1
v 0.3 2 0.1
v 0.3 2.3 0.1
v 0.4 2 0.1
v 0.4 2.3 0.1
v 0.6 2 0.1
v 0.6 2.3 0.1
v 0.8 2 0.1
v 0.8 2.5 0.1
v -0.2 2.3 -0.2
v -0.2 2.4 -0.2
v 0.2 2.3 -0.2
v 0.2 2.4 -0.2
v -0.8 0 -0.5
v -0.8 0.2 -0.5
v -0.4 0 -0.5
v -0.4 0.2 -0.5
v 0.4 0 -0.5
v 0.4 0.2 -0.5
v 0.8 0 -0.5
v 0.8 0.2 -0.5
v -0.8 0 0.3
v -0.8 0.2 0.3
v -0.4 0 0.3
v -0.4 0.2 0.3
v 0.4 0 0.3
v 0.4 0.2 0.3
v 0.8 0 0.3
v 0.8 0.2 0.3
v -0.1 2.6 0
v -0.1 2.8 0
v 0.1 2.6 0
v 0.1 2.8 0
v -0.2 2.3 -0.1
v -0.2 2.5 -0.1
v -0.2 2.6 -0.1
v 0.2 2.3 -0.1
v 0.2 2.5 -0.1
v 0.2 2.6 -0.1
v -0.8 2 -0.3
v -0.8 2.5 -0.3
v -0.4 2 -0.3
v -0.4 2.4 -0.3
v -0.2 2.4 -0.3
v -0.2 2.5 -0.3
v 0.2 2.4 -0.3
v 0.2 2.5 -0.3
v 0.4 2 -0.3
v 0.4 2.4 -0.3
v 0.8 2 -0.3
v 0.8 2.5 -0.3
v -0.8 0 -0.9
v -0.8 0.2 -0.9
v -0.4 0 -0.9
v -0.4 0.2 -0.9
v 0.4 0 -0.9
v 0.4 0.2 -0.9
v 0.8 0 -0.9
v 0.8 0.2 -0.9
v -1 0.2 -1.1
v -1 2 -1.1
v -0.4 1.1 -1.1
v -0.4 1.6 -1.1
v -0.4 2 -1.1
v -0.4 2.1 -1.1
v -0.4 2.4 -1.1
v 0.4 1.1 -1.1
v 0.4 1.6 -1.1
v 0.4 2 -1.1
v 0.4 2.1 -1.1
v 0.4 2.4 -1.1
v 1 0.2 -1.1
v 1 2 -1.1
v -0.4 1.1 -1.5
v -0.4 1.6 -1.5
v -0.4 2.1 -1.5
v 0.4 1.1 -1.5
v 0.4 1.6 -1.5
v 0.4 2.1 -1.5
v -0.8 0 0.7
v -0.4 0 0.7
v 0.4 0 0.7
v 0.8 0 0.7
v -0.8 0 0.3
v -0.4 0 0.3
v 0.4 0 0.3
v 0.8 0 0.3
v -0.8 0 -0.5
v -0.4 0 -0.5
v 0.4 0 -0.5
v 0.8 0 -0.5
v -0.8 0 -0.9
v -0.4 0 -0.9
v 0.4 0 -0.9
v 0.8 0 -0.9
v -1 0.2 0.9
v 1 0.2 0.9
v -0.8 0.2 0.7
v -0.4 0.2 0.7
v 0.4 0.2 0.7
v 0.8 0.2 0.7
v -0.8 0.2 0.3
v -0.4 0.2 0.3
v 0.4 0.2 0.3
v 0.8 0.2 0.3
v -0.8 0.2 -0.5
v -0.4 0.2 -0.5
v 0.4 0.2 -0.5
v 0.8 0.2 -0.5
v -0.8 0.2 -0.9
v -0.4 0.2 -0.9
v 0.4 0.2 -0.9
v 0.8 0.2 -0.9
v -1 0.2 -1.1
v 1 0.2 -1.1
v -0.3 0.7 1
v 0.3 0.7 1
v -0.3 0.7 0.9
v 0.3 0.7 0.9
v -0.4 1.1 -1.1
v 0.4 1.1 -1.1
v -0.4 1.1 -1.5
v 0.4 1.1 -1.5
v -0.3 1.1 1
v 0.3 1.1 1
v -0.3 1.1 0.9
v 0.3 1.1 0.9
v -1 2 0.9
v 1 2 0.9
v -0.3 2 0.4
v 0.3 2 0.4
v -0.8 2 0.1
v -0.6 2 0.1
v -0.4 2 0.1
v -0.3 2 0.1
v 0.3 2 0.1
v 0.4 2 0.1
v 0.6 2 0.1
v 0.8 2 0.1
v -0.8 2 -0.3
v -0.4 2 -0.3
v 0.4 2 -0.3
v 0.8 2 -0.3
v -0.4 2 -0.9
v 0.4 2 -0.9
v -1 2 -1.1
v -0.4 2 -1.1
v 0.4 2 -1.1
v 1 2 -1.1
v -0.4 2.1 -1.1
v 0.4 2.1 -1.1
v -0.4 2.1 -1.5
v 0.4 2.1 -1.5
v -0.3 2.3 0.4
v 0.3 2.3 0.4
v -0.2 2.3 0.3
v 0.2 2.3 0.3
v -0.3 2.3 0.1
v -0.2 2.3 0.1
v 0.2 2.3 0.1
v 0.3 2.3 0.1
v -0.2 2.3 -0.1
v 0.2 2.3 -0.1
v -0.2 2.3 -0.2
v 0.2 2.3 -0.2
v -0.2 2.4 -0.2
v 0.2 2.4 -0.2
v -0.4 2.4 -0.3
v -0.2 2.4 -0.3
v 0.2 2.4 -0.3
v 0.4 2.4 -0.3
v -0.4 2.4 -0.9
v 0.4 2.4 -0.9
v -0.4 2.4 -1.1
v 0.4 2.4 -1.1
v -0.8 2.5 0.1
v -0.2 2.5 0.1
v 0.2 2.5 0.1
v 0.8 2.5 0.1
v -0.2 2.5 -0.1
v 0.2 2.5 -0.1
v -0.8 2.5 -0.3
v -0.2 2.5 -0.3
v 0.2 2.5 -0.3
v 0.8 2.5 -0.3
v -0.2 2.6 0.3
v 0.2 2.6 0.3
v -0.1 2.6 0.2
v 0.1 2.6 0.2
v -0.1 2.6 0
v 0.1 2.6 0
v -0.2 2.6 -0.1
v 0.2 2.6 -0.1
v -0.1 2.8 0.2
v 0.1 2.8 0.2
v -0.1 2.8 0
v 0.1 2.8 0

# faces
f 3/11/1 2/11/1 1/11/1
f 4/11/1 2/11/1 3/11/1
f 5/12/1 4/12/1 3/12/1
f 6/11/1 2/11/1 4/11/1
f 6/12/1 4/12/1 5/12/1
f 7/11/1 6/11/1 5/11/1
f 8/11/1 2/11/1 6/11/1
f 8/11/1 6/11/1 7/11/1
f 13/11/1 10/11/1 9/11/1
f 14/11/1 10/11/1 13/11/1
f 15/11/1 12/11/1 11/11/1
f 16/11/1 12/11/1 15/11/1
f 19/11/1 18/11/1 17/11/1
f 20/11/1 18/11/1 19/11/1
f 23/4/1 22/4/1 21/4/1
f 24/4/1 22/4/1 23/4/1
f 27/3/1 24/3/1 23/3/1
f 28/3/1 24/3/1 27/3/1
f 28/3/1 27/3/1 26/3/1
f 29/3/1 24/3/1 28/3/1
f 30/5/1 26/5/1 25/5/1
f 31/3/1 28/3/1 26/3/1
f 31/5/1 26/5/1 30/5/1
f 32/3/1 28/3/1 31/3/1
f 35/12/1 34/12/1 33/12/1
f 36/12/1 35/12/1 33/12/1
f 37/12/1 35/12/1 36/12/1
f 40/2/1 39/2/1 38/2/1
f 41/2/1 39/2/1 40/2/1
f 44/9/1 43/9/1 42/9/1
f 46/9/1 44/9/1 42/9/1
f 46/9/1 45/9/1 44/9/1
f 47/9/1 45/9/1 46/9/1
f 50/7/1 49/7/1 48/7/1
f 51/7/1 49/7/1 50/7/1
f 54/11/1 53/11/1 52/11/1
f 56/11/1 54/11/1 52/11/1
f 56/11/1 55/11/1 54/11/1
f 57/11/1 55/11/1 56/11/1
f 62/11/1 59/11/1 58/11/1
f 63/11/1 59/11/1 62/11/1
f 64/11/1 61/11/1 60/11/1
f 65/11/1 61/11/1 64/11/1
f 66/11/2 67/11/2 70/11/2
f 70/11/2 67/11/2 71/11/2
f 68/11/2 69/11/2 72/11/2
f 72/11/2 69/11/2 73/11/2
f 74/11/2 75/11/2 76/11/2
f 74/11/2 76/11/2 78/11/2
f 76/11/2 77/11/2 78/11/2
f 78/11/2 77/11/2 79/11/2
f 80/7/2 81/7/2 82/7/2
f 82/7/2 81/7/2 83/7/2
f 84/9/2 85/9/2 86/9/2
f 84/9/2 86/9/2 88/9/2
f 86/9/2 87/9/2 88/9/2
f 88/9/2 87/9/2 89/9/2
f 90/12/2 91/12/2 92/12/2
f 90/12/2 92/12/2 93/12/2
f 93/12/2 92/12/2 94/12/2
f 95/2/2 96/2/2 97/2/2
f 97/2/2 96/2/2 98/2/2
f 99/4/2 100/4/2 101/4/2
f 101/4/2 100/4/2 102/4/2
f 101/3/2 102/3/2 105/3/2
f 105/3/2 102/3/2 106/3/2
f 104/3/2 105/3/2 106/3/2
f 106/3/2 102/3/2 107/3/2
f 103/5/2 104/5/2 108/5/2
f 104/3/2 106/3/2 109/3/2
f 108/5/2 104/5/2 109/5/2
f 109/3/2 106/3/2 110/3/2
f 111/11/2 112/11/2 115/11/2
f 115/11/2 112/11/2 116/11/2
f 113/11/2 114/11/2 117/11/2
f 117/11/2 114/11/2 118/11/2
f 119/11/2 120/11/2 121/11/2
f 121/11/2 120/11/2 122/11/2
f 123/11/2 124/11/2 125/11/2
f 125/11/2 124/11/2 126/11/2
f 125/12/2 126/12/2 127/12/2
f 126/11/2 124/11/2 128/11/2
f 127/12/2 126/12/2 128/12/2
f 127/11/2 128/11/2 129/11/2
f 128/11/2 124/11/2 130/11/2
f 129/11/2 128/11/2 130/11/2
f 133/12/3 132/12/3 131/12/3
f 134/12/3 132/12/3 133/12/3
f 135/12/3 133/12/3 131/12/3
f 135/1/3 134/1/3 133/1/3
f 136/12/3 132/12/3 134/12/3
f 136/1/3 134/1/3 135/1/3
f 137/12/3 135/12/3 131/12/3
f 137/12/3 136/12/3 135/12/3
f 138/12/3 132/12/3 136/12/3
f 138/12/3 136/12/3 137/12/3
f 139/12/3 137/12/3 131/12/3
f 139/1/3 138/1/3 137/1/3
f 140/12/3 132/12/3 138/12/3
f 140/1/3 138/1/3 139/1/3
f 141/12/3 139/12/3 131/12/3
f 141/12/3 140/12/3 139/12/3
f 142/12/3 132/12/3 140/12/3
f 142/12/3 140/12/3 141/12/3
f 147/11/3 144/11/3 143/11/3
f 147/12/3 145/12/3 144/12/3
f 148/12/3 145/12/3 147/12/3
f 149/11/3 146/11/3 145/11/3
f 149/12/3 145/12/3 148/12/3
f 150/11/3 146/11/3 149/11/3
f 151/11/3 148/11/3 147/11/3
f 151/11/3 147/11/3 143/11/3
f 152/13/3 150/13/3 149/13/3
f 152/11/3 148/11/3 151/11/3
f 152/13/3 149/13/3 148/13/3
f 153/13/3 150/13/3 152/13/3
f 154/11/3 146/11/3 150/11/3
f 154/13/3 150/13/3 153/13/3
f 155/11/3 151/11/3 143/11/3
f 157/11/3 154/11/3 153/11/3
f 158/11/3 146/11/3 154/11/3
f 158/11/3 154/11/3 157/11/3
f 159/11/3 156/11/3 155/11/3
f 159/11/3 155/11/3 143/11/3
f 160/13/3 157/13/3 156/13/3
f 160/11/3 156/11/3 159/11/3
f 160/13/3 158/13/3 157/13/3
f 161/13/3 158/13/3 160/13/3
f 162/11/3 146/11/3 158/11/3
f 162/13/3 158/13/3 161/13/3
f 163/11/3 159/11/3 143/11/3
f 164/12/3 161/12/3 160/12/3
f 164/11/3 159/11/3 163/11/3
f 164/12/3 160/12/3 159/12/3
f 165/11/3 162/11/3 161/11/3
f 165/12/3 161/12/3 164/12/3
f 166/11/3 146/11/3 162/11/3
f 166/11/3 162/11/3 165/11/3
f 169/11/3 168/11/3 167/11/3
f 170/11/3 168/11/3 169/11/3
f 173/11/3 172/11/3 171/11/3
f 174/11/3 172/11/3 173/11/3
f 177/2/3 176/2/3 175/2/3
f 178/2/3 176/2/3 177/2/3
f 181/9/3 180/9/3 179/9/3
f 182/9/3 180/9/3 181/9/3
f 185/7/3 184/7/3 183/7/3
f 186/7/3 184/7/3 185/7/3
f 189/11/3 188/11/3 187/11/3
f 190/11/3 188/11/3 189/11/3
f 191/12/3 190/12/3 189/12/3
f 192/11/3 188/11/3 190/11/3
f 192/12/3 190/12/3 191/12/3
f 193/11/3 192/11/3 191/11/3
f 194/11/3 188/11/3 192/11/3
f 194/11/3 192/11/3 193/11/3
f 195/11/3 188/11/3 194/11/3
f 196/11/3 188/11/3 195/11/3
f 200/11/3 198/11/3 197/11/3
f 201/11/3 200/11/3 199/11/3
f 202/11/3 198/11/3 200/11/3
f 202/11/3 200/11/3 201/11/3
f 203/12/3 202/12/3 201/12/3
f 204/11/3 198/11/3 202/11/3
f 204/12/3 202/12/3 203/12/3
f 205/11/3 204/11/3 203/11/3
f 206/11/3 198/11/3 204/11/3
f 206/11/3 204/11/3 205/11/3
f 209/5/3 208/5/3 207/5/3
f 210/5/3 208/5/3 209/5/3
f 213/11/3 212/11/3 211/11/3
f 214/11/3 212/11/3 213/11/3
f 217/11/3 216/11/3 215/11/3
f 218/11/3 216/11/3 217/11/3
f 219/11/4 220/11/4 221/11/4
f 221/11/4 220/11/4 222/11/4
f 223/11/4 224/11/4 225/11/4
f 225/11/4 224/11/4 226/11/4
f 227/7/4 228/7/4 229/7/4
f 229/7/4 228/7/4 230/7/4
f 231/9/4 232/9/4 234/9/4
f 232/9/4 233/9/4 234/9/4
f 234/9/4 233/9/4 235/9/4
f 235/9/4 233/9/4 236/9/4
f 237/11/4 238/11/4 239/11/4
f 239/11/4 238/11/4 240/11/4
f 240/11/4 238/11/4 241/11/4
f 241/11/4 238/11/4 242/11/4
f 243/11/4 244/11/4 246/11/4
f 245/11/4 246/11/4 247/11/4
f 246/11/4 244/11/4 248/11/4
f 247/11/4 246/11/4 248/11/4
f 249/11/4 250/11/4 251/11/4
f 251/11/4 250/11/4 252/11/4
f 253/11/4 254/11/4 255/11/4
f 255/11/4 254/11/4 256/11/4
f 257/11/4 258/11/4 259/11/4
f 259/11/4 258/11/4 260/11/4
f 260/11/4 258/11/4 261/11/4
f 257/11/4 259/11/4 264/11/4
f 262/3/4 263/3/4 267/3/4
f 267/3/4 263/3/4 268/3/4
f 265/11/4 266/11/4 269/11/4
f 257/11/4 264/11/4 269/11/4
f 264/11/4 265/11/4 269/11/4
f 269/11/4 266/11/4 270/11/4
f 271/4/4 272/4/4 274/4/4
f 272/3/4 273/3/4 275/3/4
f 274/4/4 272/4/4 275/4/4
f 275/3/4 273/3/4 276/3/4
f 281/11/5 278/11/5 277/11/5
f 282/11/5 278/11/5 281/11/5
f 283/11/5 280/11/5 279/11/5
f 284/11/5 280/11/5 283/11/5
f 289/11/5 286/11/5 285/11/5
f 290/11/5 286/11/5 289/11/5
f 291/11/5 288/11/5 287/11/5
f 292/11/5 288/11/5 291/11/5
f 295/11/5 294/11/5 293/11/5
f 296/11/5 294/11/5 295/11/5
f 297/11/5 294/11/5 296/11/5
f 298/11/5 294/11/5 297/11/5
f 299/11/5 295/11/5 293/11/5
f 300/11/5 297/11/5 296/11/5
f 301/11/5 297/11/5 300/11/5
f 302/11/5 294/11/5 298/11/5
f 303/11/5 301/11/5 300/11/5
f 303/11/5 302/11/5 301/11/5
f 303/11/5 299/11/5 293/11/5
f 303/11/5 300/11/5 299/11/5
f 304/11/5 302/11/5 303/11/5
f 305/11/5 302/11/5 304/11/5
f 306/11/5 294/11/5 302/11/5
f 306/11/5 302/11/5 305/11/5
f 307/11/5 303/11/5 293/11/5
f 308/11/5 305/11/5 304/11/5
f 309/11/5 305/11/5 308/11/5
f 310/11/5 294/11/5 306/11/5
f 311/11/5 307/11/5 293/11/5
f 311/11/5 310/11/5 309/11/5
f 311/11/5 309/11/5 308/11/5
f 311/11/5 308/11/5 307/11/5
f 312/11/5 294/11/5 310/11/5
f 312/11/5 310/11/5 311/11/5
f 315/12/5 314/12/5 313/12/5
f 316/12/5 314/12/5 315/12/5
f 319/4/5 318/4/5 317/4/5
f 320/4/5 318/4/5 319/4/5
f 321/12/6 322/12/6 323/12/6
f 323/12/6 322/12/6 324/12/6
f 325/11/6 326/11/6 327/11/6
f 327/11/6 326/11/6 328/11/6
f 325/11/6 327/11/6 329/11/6
f 329/11/6 327/11/6 330/11/6
f 330/11/6 327/11/6 331/11/6
f 331/11/6 327/11/6 332/11/6
f 328/11/6 326/11/6 333/11/6
f 333/11/6 326/11/6 334/11/6
f 334/11/6 326/11/6 335/11/6
f 335/11/6 326/11/6 336/11/6
f 325/11/6 329/11/6 337/11/6
f 336/11/6 326/11/6 340/11/6
f 337/11/6 338/11/6 341/11/6
f 339/11/6 340/11/6 342/11/6
f 337/11/6 341/11/6 343/11/6
f 325/11/6 337/11/6 343/11/6
f 343/11/6 341/11/6 344/11/6
f 342/11/6 340/11/6 345/11/6
f 340/11/6 326/11/6 346/11/6
f 345/11/6 340/11/6 346/11/6
f 347/3/6 348/3/6 349/3/6
f 349/3/6 348/3/6 350/3/6
f 351/2/6 352/2/6 353/2/6
f 353/2/6 352/2/6 354/2/6
f 351/2/6 353/2/6 355/2/6
f 355/2/6 353/2/6 356/2/6
f 354/2/6 352/2/6 357/2/6
f 357/2/6 352/2/6 358/2/6
f 359/2/6 360/2/6 361/2/6
f 361/2/6 360/2/6 362/2/6
f 363/5/6 364/5/6 366/5/6
f 366/5/6 364/5/6 367/5/6
f 365/5/6 366/5/6 369/5/6
f 367/5/6 368/5/6 369/5/6
f 366/5/6 367/5/6 369/5/6
f 369/5/6 368/5/6 370/5/6
f 369/3/6 370/3/6 371/3/6
f 371/3/6 370/3/6 372/3/6
f 373/11/6 374/11/6 377/11/6
f 375/11/6 376/11/6 378/11/6
f 373/11/6 377/11/6 379/11/6
f 379/11/6 377/11/6 380/11/6
f 378/11/6 376/11/6 381/11/6
f 381/11/6 376/11/6 382/11/6
f 383/9/6 384/9/6 385/9/6
f 385/9/6 384/9/6 386/9/6
f 383/9/6 385/9/6 387/9/6
f 386/9/6 384/9/6 388/9/6
f 383/9/6 387/9/6 389/9/6
f 387/9/6 388/9/6 389/9/6
f 388/9/6 384/9/6 390/9/6
f 389/9/6 388/9/6 390/9/6
f 391/7/6 392/7/6 393/7/6
f 393/7/6 392/7/6 394/7/6
