# MagicaVoxel @ Ephtracy

# group
o 

# material
mtllib grassflower2.vox.mtl
usemtl palette

# normals
vn -1 0 0
vn 1 0 0
vn 0 0 1
vn 0 0 -1
vn 0 -1 0
vn 0 1 0

# texcoords
vt 0.0175781 0.5
vt 0.423828 0.5
vt 0.427734 0.5
vt 0.845703 0.5

# verts
v -1 0 1
v -1 0 -1
v -1 1.2 1
v -1 1.2 -1
v -1 2 1
v -1 2 -1
v -0.6 2 0.2
v -0.6 2 -0.4
v -0.6 2.2 0.2
v -0.6 2.2 -0.4
v 0 2 0.2
v 0 2 -0.4
v 0 2.2 0.2
v 0 2.2 -0.4
v 1 0 1
v 1 0 -1
v 1 1.2 1
v 1 1.2 -1
v 1 2 1
v 1 2 -1
v -1 0 1
v -1 1.2 1
v -1 2 1
v 1 0 1
v 1 1.2 1
v 1 2 1
v -0.6 2 0.2
v -0.6 2.2 0.2
v 0 2 0.2
v 0 2.2 0.2
v -0.6 2 -0.4
v -0.6 2.2 -0.4
v 0 2 -0.4
v 0 2.2 -0.4
v -1 0 -1
v -1 1.2 -1
v -1 2 -1
v 1 0 -1
v 1 1.2 -1
v 1 2 -1
v -1 0 1
v 1 0 1
v -1 0 -1
v 1 0 -1
v -1 2 1
v 1 2 1
v -0.6 2 0.2
v 0 2 0.2
v -0.6 2 -0.4
v 0 2 -0.4
v -1 2 -1
v 1 2 -1
v -0.6 2.2 0.2
v 0 2.2 0.2
v -0.4 2.2 0
v -0.2 2.2 0
v -0.4 2.2 -0.2
v -0.2 2.2 -0.2
v -0.6 2.2 -0.4
v 0 2.2 -0.4

# faces
f 3/3/1 2/3/1 1/3/1
f 4/3/1 2/3/1 3/3/1
f 5/2/1 4/2/1 3/2/1
f 6/2/1 4/2/1 5/2/1
f 9/4/1 8/4/1 7/4/1
f 10/4/1 8/4/1 9/4/1
f 11/4/2 12/4/2 13/4/2
f 13/4/2 12/4/2 14/4/2
f 15/3/2 16/3/2 17/3/2
f 17/3/2 16/3/2 18/3/2
f 17/2/2 18/2/2 19/2/2
f 19/2/2 18/2/2 20/2/2
f 24/3/3 22/3/3 21/3/3
f 25/2/3 23/2/3 22/2/3
f 25/3/3 22/3/3 24/3/3
f 26/2/3 23/2/3 25/2/3
f 29/4/3 28/4/3 27/4/3
f 30/4/3 28/4/3 29/4/3
f 31/4/4 32/4/4 33/4/4
f 33/4/4 32/4/4 34/4/4
f 35/3/4 36/3/4 38/3/4
f 36/2/4 37/2/4 39/2/4
f 38/3/4 36/3/4 39/3/4
f 39/2/4 37/2/4 40/2/4
f 43/3/5 42/3/5 41/3/5
f 44/3/5 42/3/5 43/3/5
f 45/2/6 46/2/6 47/2/6
f 47/2/6 46/2/6 48/2/6
f 45/2/6 47/2/6 49/2/6
f 48/2/6 46/2/6 50/2/6
f 45/2/6 49/2/6 51/2/6
f 49/2/6 50/2/6 51/2/6
f 50/2/6 46/2/6 52/2/6
f 51/2/6 50/2/6 52/2/6
f 53/4/6 54/4/6 55/4/6
f 55/4/6 54/4/6 56/4/6
f 53/4/6 55/4/6 57/4/6
f 55/1/6 56/1/6 57/1/6
f 56/4/6 54/4/6 58/4/6
f 57/1/6 56/1/6 58/1/6
f 53/4/6 57/4/6 59/4/6
f 57/4/6 58/4/6 59/4/6
f 58/4/6 54/4/6 60/4/6
f 59/4/6 58/4/6 60/4/6
