# MagicaVoxel @ Ephtracy

# group
o 

# material
mtllib grassmushroom.vox.mtl
usemtl palette

# normals
vn -1 0 0
vn 1 0 0
vn 0 0 1
vn 0 0 -1
vn 0 -1 0
vn 0 1 0

# texcoords
vt 0.423828 0.5
vt 0.427734 0.5
vt 0.689453 0.5
vt 0.720703 0.5
vt 0.732422 0.5
vt 0.916016 0.5
vt 0.939453 0.5
vt 0.958984 0.5

# verts
v -1 0 1
v -1 0 -1
v -1 1.2 1
v -1 1.2 -1
v -1 2 1
v -1 2 -1
v -0.4 2.2 0.3
v -0.4 2.2 -0.3
v -0.4 2.3 0
v -0.4 2.3 -0.1
v -0.4 2.4 0
v -0.4 2.4 -0.1
v -0.4 2.5 0.3
v -0.4 2.5 -0.3
v -0.3 2.2 0.4
v -0.3 2.2 0.3
v -0.3 2.2 -0.3
v -0.3 2.2 -0.4
v -0.3 2.5 0.4
v -0.3 2.5 0.3
v -0.3 2.5 0.2
v -0.3 2.5 -0.2
v -0.3 2.5 -0.3
v -0.3 2.5 -0.4
v -0.3 2.6 0.2
v -0.3 2.6 -0.2
v -0.2 2 0.2
v -0.2 2 -0.2
v -0.2 2.2 0.2
v -0.2 2.2 -0.2
v -0.2 2.5 0.3
v -0.2 2.5 0.2
v -0.2 2.5 -0.2
v -0.2 2.5 -0.3
v -0.2 2.6 0.3
v -0.2 2.6 0.2
v -0.2 2.6 -0.2
v -0.2 2.6 -0.3
v 0.2 2 0.2
v 0.2 2 -0.2
v 0.2 2.2 0.2
v 0.2 2.2 -0.2
v 0.2 2.5 0.3
v 0.2 2.5 0.2
v 0.2 2.5 -0.2
v 0.2 2.5 -0.3
v 0.2 2.6 0.3
v 0.2 2.6 0.2
v 0.2 2.6 -0.2
v 0.2 2.6 -0.3
v 0.3 2.2 0.4
v 0.3 2.2 0.3
v 0.3 2.2 -0.3
v 0.3 2.2 -0.4
v 0.3 2.5 0.4
v 0.3 2.5 0.3
v 0.3 2.5 0.2
v 0.3 2.5 -0.2
v 0.3 2.5 -0.3
v 0.3 2.5 -0.4
v 0.3 2.6 0.2
v 0.3 2.6 -0.2
v 0.4 2.2 0.3
v 0.4 2.2 -0.3
v 0.4 2.3 -0.1
v 0.4 2.3 -0.2
v 0.4 2.4 -0.1
v 0.4 2.4 -0.2
v 0.4 2.5 0.3
v 0.4 2.5 -0.3
v 1 0 1
v 1 0 -1
v 1 1.2 1
v 1 1.2 -1
v 1 2 1
v 1 2 -1
v -1 0 1
v -1 1.2 1
v -1 2 1
v 1 0 1
v 1 1.2 1
v 1 2 1
v -0.3 2.2 0.4
v -0.3 2.5 0.4
v -0.2 2.3 0.4
v -0.2 2.4 0.4
v -0.1 2.3 0.4
v -0.1 2.4 0.4
v 0.3 2.2 0.4
v 0.3 2.5 0.4
v -0.4 2.2 0.3
v -0.4 2.5 0.3
v -0.3 2.2 0.3
v -0.3 2.5 0.3
v -0.2 2.5 0.3
v -0.2 2.6 0.3
v 0.2 2.5 0.3
v 0.2 2.6 0.3
v 0.3 2.2 0.3
v 0.3 2.5 0.3
v 0.4 2.2 0.3
v 0.4 2.5 0.3
v -0.3 2.5 0.2
v -0.3 2.6 0.2
v -0.2 2 0.2
v -0.2 2.2 0.2
v -0.2 2.5 0.2
v -0.2 2.6 0.2
v 0.2 2 0.2
v 0.2 2.2 0.2
v 0.2 2.5 0.2
v 0.2 2.6 0.2
v 0.3 2.5 0.2
v 0.3 2.6 0.2
v -0.3 2.5 -0.2
v -0.3 2.6 -0.2
v -0.2 2 -0.2
v -0.2 2.2 -0.2
v -0.2 2.5 -0.2
v -0.2 2.6 -0.2
v 0.2 2 -0.2
v 0.2 2.2 -0.2
v 0.2 2.5 -0.2
v 0.2 2.6 -0.2
v 0.3 2.5 -0.2
v 0.3 2.6 -0.2
v -0.4 2.2 -0.3
v -0.4 2.5 -0.3
v -0.3 2.2 -0.3
v -0.3 2.5 -0.3
v -0.2 2.5 -0.3
v -0.2 2.6 -0.3
v 0.2 2.5 -0.3
v 0.2 2.6 -0.3
v 0.3 2.2 -0.3
v 0.3 2.5 -0.3
v 0.4 2.2 -0.3
v 0.4 2.5 -0.3
v -0.3 2.2 -0.4
v -0.3 2.5 -0.4
v -0.1 2.2 -0.4
v -0.1 2.3 -0.4
v 0 2.2 -0.4
v 0 2.3 -0.4
v 0.3 2.2 -0.4
v 0.3 2.5 -0.4
v -1 0 -1
v -1 1.2 -1
v -1 2 -1
v 1 0 -1
v 1 1.2 -1
v 1 2 -1
v -1 0 1
v 1 0 1
v -1 0 -1
v 1 0 -1
v -0.3 2.2 0.4
v 0.3 2.2 0.4
v -0.4 2.2 0.3
v -0.3 2.2 0.3
v 0.3 2.2 0.3
v 0.4 2.2 0.3
v -0.2 2.2 0.2
v 0.2 2.2 0.2
v -0.2 2.2 -0.2
v 0.2 2.2 -0.2
v -0.4 2.2 -0.3
v -0.3 2.2 -0.3
v -0.1 2.2 -0.3
v 0 2.2 -0.3
v 0.3 2.2 -0.3
v 0.4 2.2 -0.3
v -0.3 2.2 -0.4
v -0.1 2.2 -0.4
v 0 2.2 -0.4
v 0.3 2.2 -0.4
v -1 2 1
v 1 2 1
v -0.2 2 0.2
v 0.2 2 0.2
v -0.2 2 -0.2
v 0.2 2 -0.2
v -1 2 -1
v 1 2 -1
v -0.3 2.5 0.4
v 0.3 2.5 0.4
v -0.4 2.5 0.3
v -0.3 2.5 0.3
v -0.2 2.5 0.3
v 0.2 2.5 0.3
v 0.3 2.5 0.3
v 0.4 2.5 0.3
v -0.3 2.5 0.2
v -0.2 2.5 0.2
v 0.2 2.5 0.2
v 0.3 2.5 0.2
v -0.3 2.5 -0.2
v -0.2 2.5 -0.2
v 0.2 2.5 -0.2
v 0.3 2.5 -0.2
v -0.4 2.5 -0.3
v -0.3 2.5 -0.3
v -0.2 2.5 -0.3
v 0.2 2.5 -0.3
v 0.3 2.5 -0.3
v 0.4 2.5 -0.3
v -0.3 2.5 -0.4
v 0.3 2.5 -0.4
v -0.2 2.6 0.3
v 0.2 2.6 0.3
v -0.3 2.6 0.2
v -0.2 2.6 0.2
v 0.1 2.6 0.2
v 0.2 2.6 0.2
v 0.3 2.6 0.2
v 0.1 2.6 0.1
v 0.2 2.6 0.1
v -0.2 2.6 -0.1
v -0.1 2.6 -0.1
v -0.3 2.6 -0.2
v -0.2 2.6 -0.2
v -0.1 2.6 -0.2
v 0.2 2.6 -0.2
v 0.3 2.6 -0.2
v -0.2 2.6 -0.3
v 0.2 2.6 -0.3

# faces
f 3/7/1 2/7/1 1/7/1
f 4/7/1 2/7/1 3/7/1
f 5/6/1 4/6/1 3/6/1
f 6/6/1 4/6/1 5/6/1
f 9/5/1 8/5/1 7/5/1
f 10/5/1 8/5/1 9/5/1
f 11/5/1 9/5/1 7/5/1
f 11/8/1 10/8/1 9/8/1
f 12/5/1 8/5/1 10/5/1
f 12/8/1 10/8/1 11/8/1
f 13/5/1 11/5/1 7/5/1
f 13/5/1 12/5/1 11/5/1
f 14/5/1 8/5/1 12/5/1
f 14/5/1 12/5/1 13/5/1
f 19/5/1 16/5/1 15/5/1
f 20/5/1 16/5/1 19/5/1
f 23/5/1 18/5/1 17/5/1
f 24/5/1 18/5/1 23/5/1
f 25/5/1 22/5/1 21/5/1
f 26/5/1 22/5/1 25/5/1
f 29/3/1 28/3/1 27/3/1
f 30/3/1 28/3/1 29/3/1
f 35/5/1 32/5/1 31/5/1
f 36/5/1 32/5/1 35/5/1
f 37/5/1 34/5/1 33/5/1
f 38/5/1 34/5/1 37/5/1
f 39/3/2 40/3/2 41/3/2
f 41/3/2 40/3/2 42/3/2
f 43/5/2 44/5/2 47/5/2
f 47/5/2 44/5/2 48/5/2
f 45/5/2 46/5/2 49/5/2
f 49/5/2 46/5/2 50/5/2
f 51/5/2 52/5/2 55/5/2
f 55/5/2 52/5/2 56/5/2
f 53/5/2 54/5/2 59/5/2
f 59/5/2 54/5/2 60/5/2
f 57/5/2 58/5/2 61/5/2
f 61/5/2 58/5/2 62/5/2
f 63/5/2 64/5/2 65/5/2
f 65/5/2 64/5/2 66/5/2
f 63/5/2 65/5/2 67/5/2
f 65/8/2 66/8/2 67/8/2
f 66/5/2 64/5/2 68/5/2
f 67/8/2 66/8/2 68/8/2
f 63/5/2 67/5/2 69/5/2
f 67/5/2 68/5/2 69/5/2
f 68/5/2 64/5/2 70/5/2
f 69/5/2 68/5/2 70/5/2
f 71/7/2 72/7/2 73/7/2
f 73/7/2 72/7/2 74/7/2
f 73/6/2 74/6/2 75/6/2
f 75/6/2 74/6/2 76/6/2
f 80/7/3 78/7/3 77/7/3
f 81/6/3 79/6/3 78/6/3
f 81/7/3 78/7/3 80/7/3
f 82/6/3 79/6/3 81/6/3
f 85/5/3 84/5/3 83/5/3
f 86/5/3 84/5/3 85/5/3
f 87/5/3 85/5/3 83/5/3
f 87/8/3 86/8/3 85/8/3
f 88/5/3 84/5/3 86/5/3
f 88/8/3 86/8/3 87/8/3
f 89/5/3 87/5/3 83/5/3
f 89/5/3 88/5/3 87/5/3
f 90/5/3 84/5/3 88/5/3
f 90/5/3 88/5/3 89/5/3
f 93/5/3 92/5/3 91/5/3
f 94/5/3 92/5/3 93/5/3
f 97/5/3 96/5/3 95/5/3
f 98/5/3 96/5/3 97/5/3
f 101/5/3 100/5/3 99/5/3
f 102/5/3 100/5/3 101/5/3
f 107/5/3 104/5/3 103/5/3
f 108/5/3 104/5/3 107/5/3
f 109/3/3 106/3/3 105/3/3
f 110/3/3 106/3/3 109/3/3
f 113/5/3 112/5/3 111/5/3
f 114/5/3 112/5/3 113/5/3
f 115/5/4 116/5/4 119/5/4
f 119/5/4 116/5/4 120/5/4
f 117/3/4 118/3/4 121/3/4
f 121/3/4 118/3/4 122/3/4
f 123/5/4 124/5/4 125/5/4
f 125/5/4 124/5/4 126/5/4
f 127/5/4 128/5/4 129/5/4
f 129/5/4 128/5/4 130/5/4
f 131/5/4 132/5/4 133/5/4
f 133/5/4 132/5/4 134/5/4
f 135/5/4 136/5/4 137/5/4
f 137/5/4 136/5/4 138/5/4
f 139/5/4 140/5/4 141/5/4
f 141/5/4 140/5/4 142/5/4
f 141/8/4 142/8/4 143/8/4
f 142/5/4 140/5/4 144/5/4
f 143/8/4 142/8/4 144/8/4
f 143/5/4 144/5/4 145/5/4
f 144/5/4 140/5/4 146/5/4
f 145/5/4 144/5/4 146/5/4
f 147/7/4 148/7/4 150/7/4
f 148/6/4 149/6/4 151/6/4
f 150/7/4 148/7/4 151/7/4
f 151/6/4 149/6/4 152/6/4
f 155/7/5 154/7/5 153/7/5
f 156/7/5 154/7/5 155/7/5
f 160/5/5 158/5/5 157/5/5
f 161/5/5 158/5/5 160/5/5
f 163/8/5 161/8/5 160/8/5
f 164/8/5 161/8/5 163/8/5
f 165/8/5 163/8/5 160/8/5
f 166/8/5 161/8/5 164/8/5
f 167/5/5 160/5/5 159/5/5
f 168/8/5 166/8/5 165/8/5
f 168/5/5 160/5/5 167/5/5
f 168/8/5 165/8/5 160/8/5
f 169/8/5 166/8/5 168/8/5
f 170/8/5 166/8/5 169/8/5
f 171/5/5 162/5/5 161/5/5
f 171/8/5 166/8/5 170/8/5
f 171/8/5 161/8/5 166/8/5
f 172/5/5 162/5/5 171/5/5
f 173/5/5 169/5/5 168/5/5
f 174/8/5 170/8/5 169/8/5
f 174/5/5 169/5/5 173/5/5
f 175/5/5 171/5/5 170/5/5
f 175/8/5 170/8/5 174/8/5
f 176/5/5 171/5/5 175/5/5
f 177/6/6 178/6/6 179/6/6
f 179/6/6 178/6/6 180/6/6
f 177/6/6 179/6/6 181/6/6
f 180/6/6 178/6/6 182/6/6
f 177/6/6 181/6/6 183/6/6
f 181/6/6 182/6/6 183/6/6
f 182/6/6 178/6/6 184/6/6
f 183/6/6 182/6/6 184/6/6
f 185/5/6 186/5/6 188/5/6
f 188/5/6 186/5/6 189/5/6
f 189/5/6 186/5/6 190/5/6
f 190/5/6 186/5/6 191/5/6
f 187/5/6 188/5/6 193/5/6
f 188/5/6 189/5/6 193/5/6
f 193/5/6 189/5/6 194/5/6
f 191/5/6 192/5/6 195/5/6
f 190/5/6 191/5/6 195/5/6
f 195/5/6 192/5/6 196/5/6
f 187/5/6 193/5/6 197/5/6
f 196/5/6 192/5/6 200/5/6
f 197/5/6 198/5/6 201/5/6
f 187/5/6 197/5/6 201/5/6
f 201/5/6 198/5/6 202/5/6
f 202/5/6 198/5/6 203/5/6
f 199/5/6 200/5/6 204/5/6
f 200/5/6 192/5/6 205/5/6
f 204/5/6 200/5/6 205/5/6
f 205/5/6 192/5/6 206/5/6
f 202/5/6 203/5/6 207/5/6
f 203/5/6 204/5/6 207/5/6
f 204/5/6 205/5/6 207/5/6
f 207/5/6 205/5/6 208/5/6
f 209/5/6 210/5/6 212/5/6
f 212/5/6 210/5/6 213/5/6
f 213/5/6 210/5/6 214/5/6
f 211/5/6 212/5/6 216/5/6
f 212/5/6 213/5/6 216/5/6
f 213/8/6 214/8/6 216/8/6
f 214/5/6 215/5/6 217/5/6
f 216/8/6 214/8/6 217/8/6
f 211/5/6 216/5/6 218/5/6
f 216/5/6 217/5/6 218/5/6
f 218/5/6 217/5/6 219/5/6
f 211/5/6 218/5/6 220/5/6
f 218/8/6 219/8/6 221/8/6
f 220/5/6 218/5/6 221/5/6
f 219/5/6 217/5/6 222/5/6
f 221/8/6 219/8/6 222/8/6
f 217/5/6 215/5/6 223/5/6
f 222/5/6 217/5/6 223/5/6
f 223/5/6 215/5/6 224/5/6
f 221/5/6 222/5/6 225/5/6
f 222/5/6 223/5/6 225/5/6
f 225/5/6 223/5/6 226/5/6
