# MagicaVoxel @ Ephtracy

# group
o 

# material
mtllib dog.vox.mtl
usemtl palette

# normals
vn -1 0 0
vn 1 0 0
vn 0 0 1
vn 0 0 -1
vn 0 -1 0
vn 0 1 0

# texcoords
vt 0.263672 0.5
vt 0.267578 0.5
vt 0.380859 0.5
vt 0.412109 0.5
vt 0.517578 0.5
vt 0.556641 0.5
vt 0.560547 0.5
vt 0.677734 0.5
vt 0.958984 0.5
vt 0.962891 0.5
vt 0.966797 0.5
vt 0.990234 0.5

# verts
v -1 0.2 0.9
v -1 0.2 -1.1
v -1 0.7 0.9
v -1 0.7 0.5
v -1 1.1 0.9
v -1 1.1 0.5
v -1 2 0.9
v -1 2 -1.1
v -0.8 0 0.7
v -0.8 0 0.3
v -0.8 0 -0.5
v -0.8 0 -0.9
v -0.8 0.2 0.7
v -0.8 0.2 0.3
v -0.8 0.2 -0.5
v -0.8 0.2 -0.9
v -0.8 2 0.1
v -0.8 2 -0.3
v -0.8 2.4 0.1
v -0.8 2.4 -0.3
v -0.3 0.6 1
v -0.3 0.6 0.9
v -0.3 1 0.9
v -0.3 1.1 1
v -0.3 1.1 0.9
v 0.2 2 0.1
v 0.2 2 -0.3
v 0.2 2.4 0.1
v 0.2 2.4 -0.3
v 0.4 0 0.7
v 0.4 0 0.3
v 0.4 0 -0.5
v 0.4 0 -0.9
v 0.4 0.2 0.7
v 0.4 0.2 0.3
v 0.4 0.2 -0.5
v 0.4 0.2 -0.9
v -0.4 0 0.7
v -0.4 0 0.3
v -0.4 0 -0.5
v -0.4 0 -0.9
v -0.4 0.2 0.7
v -0.4 0.2 0.3
v -0.4 0.2 -0.5
v -0.4 0.2 -0.9
v -0.2 2 0.1
v -0.2 2 -0.3
v -0.2 2.4 0.1
v -0.2 2.4 -0.3
v 0.3 0.6 1
v 0.3 0.6 0.9
v 0.3 1 0.9
v 0.3 1.1 1
v 0.3 1.1 0.9
v 0.8 0 0.7
v 0.8 0 0.3
v 0.8 0 -0.5
v 0.8 0 -0.9
v 0.8 0.2 0.7
v 0.8 0.2 0.3
v 0.8 0.2 -0.5
v 0.8 0.2 -0.9
v 0.8 2 0.1
v 0.8 2 -0.3
v 0.8 2.4 0.1
v 0.8 2.4 -0.3
v 1 0.2 0.9
v 1 0.2 -1.1
v 1 0.7 0.9
v 1 0.7 0.5
v 1 1.1 0.9
v 1 1.1 0.5
v 1 2 0.9
v 1 2 -1.1
v -0.3 0.6 1
v -0.3 1.1 1
v -0.1 0.8 1
v -0.1 1 1
v 0.1 0.8 1
v 0.1 1 1
v 0.3 0.6 1
v 0.3 1.1 1
v -1 0.2 0.9
v -1 0.7 0.9
v -1 1.1 0.9
v -1 2 0.9
v -0.6 0.7 0.9
v -0.6 1 0.9
v -0.6 1.1 0.9
v -0.6 1.4 0.9
v -0.3 0.6 0.9
v -0.3 1 0.9
v -0.3 1.1 0.9
v -0.3 1.4 0.9
v 0.3 0.6 0.9
v 0.3 1 0.9
v 0.3 1.1 0.9
v 0.3 1.4 0.9
v 0.6 0.7 0.9
v 0.6 1 0.9
v 0.6 1.1 0.9
v 0.6 1.4 0.9
v 1 0.2 0.9
v 1 0.7 0.9
v 1 1.1 0.9
v 1 2 0.9
v -0.8 0 0.7
v -0.8 0.2 0.7
v -0.4 0 0.7
v -0.4 0.2 0.7
v 0.4 0 0.7
v 0.4 0.2 0.7
v 0.8 0 0.7
v 0.8 0.2 0.7
v -0.8 2 0.1
v -0.8 2.4 0.1
v -0.6 2 0.1
v -0.6 2.2 0.1
v -0.4 2 0.1
v -0.4 2.2 0.1
v -0.2 2 0.1
v -0.2 2.4 0.1
v 0.2 2 0.1
v 0.2 2.4 0.1
v 0.4 2 0.1
v 0.4 2.2 0.1
v 0.6 2 0.1
v 0.6 2.2 0.1
v 0.8 2 0.1
v 0.8 2.4 0.1
v -0.8 0 -0.5
v -0.8 0.2 -0.5
v -0.4 0 -0.5
v -0.4 0.2 -0.5
v 0.4 0 -0.5
v 0.4 0.2 -0.5
v 0.8 0 -0.5
v 0.8 0.2 -0.5
v -0.8 0 0.3
v -0.8 0.2 0.3
v -0.4 0 0.3
v -0.4 0.2 0.3
v 0.4 0 0.3
v 0.4 0.2 0.3
v 0.8 0 0.3
v 0.8 0.2 0.3
v -0.8 2 -0.3
v -0.8 2.4 -0.3
v -0.2 2 -0.3
v -0.2 2.4 -0.3
v 0.2 2 -0.3
v 0.2 2.4 -0.3
v 0.8 2 -0.3
v 0.8 2.4 -0.3
v -0.8 0 -0.9
v -0.8 0.2 -0.9
v -0.4 0 -0.9
v -0.4 0.2 -0.9
v 0.4 0 -0.9
v 0.4 0.2 -0.9
v 0.8 0 -0.9
v 0.8 0.2 -0.9
v -1 0.2 -1.1
v -1 2 -1.1
v 1 0.2 -1.1
v 1 2 -1.1
v -0.8 0 0.7
v -0.4 0 0.7
v 0.4 0 0.7
v 0.8 0 0.7
v -0.8 0 0.3
v -0.4 0 0.3
v 0.4 0 0.3
v 0.8 0 0.3
v -0.8 0 -0.5
v -0.4 0 -0.5
v 0.4 0 -0.5
v 0.8 0 -0.5
v -0.8 0 -0.9
v -0.4 0 -0.9
v 0.4 0 -0.9
v 0.8 0 -0.9
v -1 0.2 0.9
v 1 0.2 0.9
v -0.8 0.2 0.7
v -0.4 0.2 0.7
v 0.4 0.2 0.7
v 0.8 0.2 0.7
v -0.8 0.2 0.3
v -0.4 0.2 0.3
v 0.4 0.2 0.3
v 0.8 0.2 0.3
v -0.8 0.2 -0.5
v -0.4 0.2 -0.5
v 0.4 0.2 -0.5
v 0.8 0.2 -0.5
v -0.8 0.2 -0.9
v -0.4 0.2 -0.9
v 0.4 0.2 -0.9
v 0.8 0.2 -0.9
v -1 0.2 -1.1
v 1 0.2 -1.1
v -0.3 0.6 1
v 0.3 0.6 1
v -0.3 0.6 0.9
v 0.3 0.6 0.9
v -0.3 1.1 1
v 0.3 1.1 1
v -0.3 1.1 0.9
v 0.3 1.1 0.9
v -1 2 0.9
v 1 2 0.9
v -0.8 2 0.1
v -0.6 2 0.1
v -0.4 2 0.1
v -0.2 2 0.1
v 0.2 2 0.1
v 0.4 2 0.1
v 0.6 2 0.1
v 0.8 2 0.1
v -0.8 2 -0.3
v -0.2 2 -0.3
v 0.2 2 -0.3
v 0.8 2 -0.3
v -1 2 -1.1
v 1 2 -1.1
v -0.8 2.4 0.1
v -0.2 2.4 0.1
v 0.2 2.4 0.1
v 0.8 2.4 0.1
v -0.8 2.4 -0.3
v -0.2 2.4 -0.3
v 0.2 2.4 -0.3
v 0.8 2.4 -0.3

# faces
f 3/1/1 2/1/1 1/1/1
f 4/1/1 2/1/1 3/1/1
f 5/2/1 4/2/1 3/2/1
f 6/1/1 2/1/1 4/1/1
f 6/2/1 4/2/1 5/2/1
f 7/1/1 6/1/1 5/1/1
f 8/1/1 2/1/1 6/1/1
f 8/1/1 6/1/1 7/1/1
f 13/2/1 10/2/1 9/2/1
f 14/2/1 10/2/1 13/2/1
f 15/2/1 12/2/1 11/2/1
f 16/2/1 12/2/1 15/2/1
f 19/2/1 18/2/1 17/2/1
f 20/2/1 18/2/1 19/2/1
f 23/1/1 22/1/1 21/1/1
f 24/1/1 23/1/1 21/1/1
f 25/1/1 23/1/1 24/1/1
f 28/2/1 27/2/1 26/2/1
f 29/2/1 27/2/1 28/2/1
f 34/2/1 31/2/1 30/2/1
f 35/2/1 31/2/1 34/2/1
f 36/2/1 33/2/1 32/2/1
f 37/2/1 33/2/1 36/2/1
f 38/2/2 39/2/2 42/2/2
f 42/2/2 39/2/2 43/2/2
f 40/2/2 41/2/2 44/2/2
f 44/2/2 41/2/2 45/2/2
f 46/2/2 47/2/2 48/2/2
f 48/2/2 47/2/2 49/2/2
f 50/1/2 51/1/2 52/1/2
f 50/1/2 52/1/2 53/1/2
f 53/1/2 52/1/2 54/1/2
f 55/2/2 56/2/2 59/2/2
f 59/2/2 56/2/2 60/2/2
f 57/2/2 58/2/2 61/2/2
f 61/2/2 58/2/2 62/2/2
f 63/2/2 64/2/2 65/2/2
f 65/2/2 64/2/2 66/2/2
f 67/1/2 68/1/2 69/1/2
f 69/1/2 68/1/2 70/1/2
f 69/2/2 70/2/2 71/2/2
f 70/1/2 68/1/2 72/1/2
f 71/2/2 70/2/2 72/2/2
f 71/1/2 72/1/2 73/1/2
f 72/1/2 68/1/2 74/1/2
f 73/1/2 72/1/2 74/1/2
f 77/1/3 76/1/3 75/1/3
f 78/1/3 76/1/3 77/1/3
f 79/1/3 77/1/3 75/1/3
f 79/7/3 78/7/3 77/7/3
f 80/1/3 76/1/3 78/1/3
f 80/7/3 78/7/3 79/7/3
f 81/1/3 79/1/3 75/1/3
f 81/1/3 80/1/3 79/1/3
f 82/1/3 76/1/3 80/1/3
f 82/1/3 80/1/3 81/1/3
f 87/1/3 84/1/3 83/1/3
f 87/2/3 85/2/3 84/2/3
f 88/2/3 85/2/3 87/2/3
f 89/1/3 86/1/3 85/1/3
f 89/2/3 85/2/3 88/2/3
f 90/1/3 86/1/3 89/1/3
f 91/1/3 88/1/3 87/1/3
f 91/1/3 87/1/3 83/1/3
f 92/12/3 90/12/3 89/12/3
f 92/1/3 88/1/3 91/1/3
f 92/12/3 89/12/3 88/12/3
f 93/12/3 90/12/3 92/12/3
f 94/1/3 86/1/3 90/1/3
f 94/12/3 90/12/3 93/12/3
f 95/1/3 91/1/3 83/1/3
f 97/1/3 94/1/3 93/1/3
f 98/1/3 86/1/3 94/1/3
f 98/1/3 94/1/3 97/1/3
f 99/1/3 96/1/3 95/1/3
f 100/12/3 97/12/3 96/12/3
f 100/1/3 96/1/3 99/1/3
f 100/12/3 98/12/3 97/12/3
f 101/12/3 98/12/3 100/12/3
f 102/1/3 86/1/3 98/1/3
f 102/12/3 98/12/3 101/12/3
f 103/1/3 99/1/3 95/1/3
f 103/1/3 95/1/3 83/1/3
f 104/2/3 101/2/3 100/2/3
f 104/1/3 99/1/3 103/1/3
f 104/2/3 100/2/3 99/2/3
f 105/1/3 102/1/3 101/1/3
f 105/2/3 101/2/3 104/2/3
f 106/1/3 86/1/3 102/1/3
f 106/1/3 102/1/3 105/1/3
f 109/2/3 108/2/3 107/2/3
f 110/2/3 108/2/3 109/2/3
f 113/2/3 112/2/3 111/2/3
f 114/2/3 112/2/3 113/2/3
f 117/2/3 116/2/3 115/2/3
f 118/2/3 116/2/3 117/2/3
f 119/1/3 118/1/3 117/1/3
f 120/2/3 116/2/3 118/2/3
f 120/1/3 118/1/3 119/1/3
f 121/2/3 120/2/3 119/2/3
f 122/2/3 116/2/3 120/2/3
f 122/2/3 120/2/3 121/2/3
f 125/2/3 124/2/3 123/2/3
f 126/2/3 124/2/3 125/2/3
f 127/1/3 126/1/3 125/1/3
f 128/2/3 124/2/3 126/2/3
f 128/1/3 126/1/3 127/1/3
f 129/2/3 128/2/3 127/2/3
f 130/2/3 124/2/3 128/2/3
f 130/2/3 128/2/3 129/2/3
f 133/2/3 132/2/3 131/2/3
f 134/2/3 132/2/3 133/2/3
f 137/2/3 136/2/3 135/2/3
f 138/2/3 136/2/3 137/2/3
f 139/2/4 140/2/4 141/2/4
f 141/2/4 140/2/4 142/2/4
f 143/2/4 144/2/4 145/2/4
f 145/2/4 144/2/4 146/2/4
f 147/2/4 148/2/4 149/2/4
f 149/2/4 148/2/4 150/2/4
f 151/2/4 152/2/4 153/2/4
f 153/2/4 152/2/4 154/2/4
f 155/2/4 156/2/4 157/2/4
f 157/2/4 156/2/4 158/2/4
f 159/2/4 160/2/4 161/2/4
f 161/2/4 160/2/4 162/2/4
f 163/1/4 164/1/4 165/1/4
f 165/1/4 164/1/4 166/1/4
f 171/2/5 168/2/5 167/2/5
f 172/2/5 168/2/5 171/2/5
f 173/2/5 170/2/5 169/2/5
f 174/2/5 170/2/5 173/2/5
f 179/2/5 176/2/5 175/2/5
f 180/2/5 176/2/5 179/2/5
f 181/2/5 178/2/5 177/2/5
f 182/2/5 178/2/5 181/2/5
f 185/1/5 184/1/5 183/1/5
f 186/1/5 184/1/5 185/1/5
f 187/1/5 184/1/5 186/1/5
f 188/1/5 184/1/5 187/1/5
f 189/1/5 185/1/5 183/1/5
f 190/1/5 187/1/5 186/1/5
f 191/1/5 187/1/5 190/1/5
f 192/1/5 184/1/5 188/1/5
f 193/1/5 191/1/5 190/1/5
f 193/1/5 192/1/5 191/1/5
f 193/1/5 189/1/5 183/1/5
f 193/1/5 190/1/5 189/1/5
f 194/1/5 192/1/5 193/1/5
f 195/1/5 192/1/5 194/1/5
f 196/1/5 184/1/5 192/1/5
f 196/1/5 192/1/5 195/1/5
f 197/1/5 193/1/5 183/1/5
f 198/1/5 195/1/5 194/1/5
f 199/1/5 195/1/5 198/1/5
f 200/1/5 184/1/5 196/1/5
f 201/1/5 197/1/5 183/1/5
f 201/1/5 200/1/5 199/1/5
f 201/1/5 199/1/5 198/1/5
f 201/1/5 198/1/5 197/1/5
f 202/1/5 184/1/5 200/1/5
f 202/1/5 200/1/5 201/1/5
f 205/1/5 204/1/5 203/1/5
f 206/1/5 204/1/5 205/1/5
f 207/1/6 208/1/6 209/1/6
f 209/1/6 208/1/6 210/1/6
f 211/1/6 212/1/6 213/1/6
f 213/1/6 212/1/6 214/1/6
f 214/1/6 212/1/6 215/1/6
f 215/1/6 212/1/6 216/1/6
f 216/1/6 212/1/6 217/1/6
f 217/1/6 212/1/6 218/1/6
f 218/1/6 212/1/6 219/1/6
f 219/1/6 212/1/6 220/1/6
f 211/1/6 213/1/6 221/1/6
f 216/1/6 217/1/6 222/1/6
f 222/1/6 217/1/6 223/1/6
f 220/1/6 212/1/6 224/1/6
f 222/1/6 223/1/6 225/1/6
f 223/1/6 224/1/6 225/1/6
f 211/1/6 221/1/6 225/1/6
f 221/1/6 222/1/6 225/1/6
f 224/1/6 212/1/6 226/1/6
f 225/1/6 224/1/6 226/1/6
f 227/2/6 228/2/6 231/2/6
f 231/2/6 228/2/6 232/2/6
f 229/2/6 230/2/6 233/2/6
f 233/2/6 230/2/6 234/2/6
