# MagicaVoxel @ Ephtracy

# group
o 

# material
mtllib panda.vox.mtl
usemtl palette

# normals
vn -1 0 0
vn 1 0 0
vn 0 0 1
vn 0 0 -1
vn 0 -1 0
vn 0 1 0

# texcoords
vt 0.263672 0.5
vt 0.267578 0.5
vt 0.517578 0.5
vt 0.556641 0.5
vt 0.677734 0.5
vt 0.865234 0.5
vt 0.958984 0.5
vt 0.962891 0.5
vt 0.966797 0.5
vt 0.990234 0.5

# verts
v -1 0.2 0.9
v -1 0.2 -1.1
v -1 0.7 0.9
v -1 0.7 0.5
v -1 1.1 0.9
v -1 1.1 0.5
v -1 2 0.9
v -1 2 -1.1
v -0.8 0 0.7
v -0.8 0 0.3
v -0.8 0 -0.5
v -0.8 0 -0.9
v -0.8 0.2 0.7
v -0.8 0.2 0.3
v -0.8 0.2 -0.5
v -0.8 0.2 -0.9
v -0.8 2 0.1
v -0.8 2 -0.3
v -0.8 2.4 0.1
v -0.8 2.4 -0.3
v -0.3 0.6 1
v -0.3 0.6 0.9
v -0.3 0.9 0.9
v -0.3 1 0.9
v -0.3 1.1 1
v -0.3 1.1 0.9
v 0.2 2 0.1
v 0.2 2 -0.3
v 0.2 2.4 0.1
v 0.2 2.4 -0.3
v 0.4 0 0.7
v 0.4 0 0.3
v 0.4 0 -0.5
v 0.4 0 -0.9
v 0.4 0.2 0.7
v 0.4 0.2 0.3
v 0.4 0.2 -0.5
v 0.4 0.2 -0.9
v -0.4 0 0.7
v -0.4 0 0.3
v -0.4 0 -0.5
v -0.4 0 -0.9
v -0.4 0.2 0.7
v -0.4 0.2 0.3
v -0.4 0.2 -0.5
v -0.4 0.2 -0.9
v -0.2 2 0.1
v -0.2 2 -0.3
v -0.2 2.4 0.1
v -0.2 2.4 -0.3
v 0.3 0.6 1
v 0.3 0.6 0.9
v 0.3 0.9 0.9
v 0.3 1 0.9
v 0.3 1.1 1
v 0.3 1.1 0.9
v 0.8 0 0.7
v 0.8 0 0.3
v 0.8 0 -0.5
v 0.8 0 -0.9
v 0.8 0.2 0.7
v 0.8 0.2 0.3
v 0.8 0.2 -0.5
v 0.8 0.2 -0.9
v 0.8 2 0.1
v 0.8 2 -0.3
v 0.8 2.4 0.1
v 0.8 2.4 -0.3
v 1 0.2 0.9
v 1 0.2 -1.1
v 1 0.7 0.9
v 1 0.7 0.5
v 1 1.1 0.9
v 1 1.1 0.5
v 1 2 0.9
v 1 2 -1.1
v -0.3 0.6 1
v -0.3 1.1 1
v -0.1 0.8 1
v -0.1 1 1
v 0.1 0.8 1
v 0.1 1 1
v 0.3 0.6 1
v 0.3 1.1 1
v -1 0.2 0.9
v -1 0.7 0.9
v -1 1.1 0.9
v -1 2 0.9
v -0.8 0.9 0.9
v -0.8 1.1 0.9
v -0.8 1.6 0.9
v -0.6 0.7 0.9
v -0.6 0.9 0.9
v -0.6 1 0.9
v -0.6 1.4 0.9
v -0.3 0.6 0.9
v -0.3 0.9 0.9
v -0.3 1 0.9
v -0.3 1.1 0.9
v -0.3 1.4 0.9
v -0.2 1.1 0.9
v -0.2 1.6 0.9
v 0.2 1.1 0.9
v 0.2 1.6 0.9
v 0.3 0.6 0.9
v 0.3 0.9 0.9
v 0.3 1 0.9
v 0.3 1.1 0.9
v 0.3 1.4 0.9
v 0.6 0.7 0.9
v 0.6 0.9 0.9
v 0.6 1 0.9
v 0.6 1.4 0.9
v 0.8 0.9 0.9
v 0.8 1.1 0.9
v 0.8 1.6 0.9
v 1 0.2 0.9
v 1 0.7 0.9
v 1 1.1 0.9
v 1 2 0.9
v -0.8 0 0.7
v -0.8 0.2 0.7
v -0.4 0 0.7
v -0.4 0.2 0.7
v 0.4 0 0.7
v 0.4 0.2 0.7
v 0.8 0 0.7
v 0.8 0.2 0.7
v -0.8 2 0.1
v -0.8 2.4 0.1
v -0.6 2 0.1
v -0.6 2.2 0.1
v -0.4 2 0.1
v -0.4 2.2 0.1
v -0.2 2 0.1
v -0.2 2.4 0.1
v 0.2 2 0.1
v 0.2 2.4 0.1
v 0.4 2 0.1
v 0.4 2.2 0.1
v 0.6 2 0.1
v 0.6 2.2 0.1
v 0.8 2 0.1
v 0.8 2.4 0.1
v -0.8 0 -0.5
v -0.8 0.2 -0.5
v -0.4 0 -0.5
v -0.4 0.2 -0.5
v 0.4 0 -0.5
v 0.4 0.2 -0.5
v 0.8 0 -0.5
v 0.8 0.2 -0.5
v -0.8 0 0.3
v -0.8 0.2 0.3
v -0.4 0 0.3
v -0.4 0.2 0.3
v 0.4 0 0.3
v 0.4 0.2 0.3
v 0.8 0 0.3
v 0.8 0.2 0.3
v -0.8 2 -0.3
v -0.8 2.4 -0.3
v -0.2 2 -0.3
v -0.2 2.4 -0.3
v 0.2 2 -0.3
v 0.2 2.4 -0.3
v 0.8 2 -0.3
v 0.8 2.4 -0.3
v -0.8 0 -0.9
v -0.8 0.2 -0.9
v -0.4 0 -0.9
v -0.4 0.2 -0.9
v 0.4 0 -0.9
v 0.4 0.2 -0.9
v 0.8 0 -0.9
v 0.8 0.2 -0.9
v -1 0.2 -1.1
v -1 2 -1.1
v 1 0.2 -1.1
v 1 2 -1.1
v -0.8 0 0.7
v -0.4 0 0.7
v 0.4 0 0.7
v 0.8 0 0.7
v -0.8 0 0.3
v -0.4 0 0.3
v 0.4 0 0.3
v 0.8 0 0.3
v -0.8 0 -0.5
v -0.4 0 -0.5
v 0.4 0 -0.5
v 0.8 0 -0.5
v -0.8 0 -0.9
v -0.4 0 -0.9
v 0.4 0 -0.9
v 0.8 0 -0.9
v -1 0.2 0.9
v 1 0.2 0.9
v -0.8 0.2 0.7
v -0.4 0.2 0.7
v 0.4 0.2 0.7
v 0.8 0.2 0.7
v -0.8 0.2 0.3
v -0.4 0.2 0.3
v 0.4 0.2 0.3
v 0.8 0.2 0.3
v -0.8 0.2 -0.5
v -0.4 0.2 -0.5
v 0.4 0.2 -0.5
v 0.8 0.2 -0.5
v -0.8 0.2 -0.9
v -0.4 0.2 -0.9
v 0.4 0.2 -0.9
v 0.8 0.2 -0.9
v -1 0.2 -1.1
v 1 0.2 -1.1
v -0.3 0.6 1
v 0.3 0.6 1
v -0.3 0.6 0.9
v 0.3 0.6 0.9
v -0.3 1.1 1
v 0.3 1.1 1
v -0.3 1.1 0.9
v -0.2 1.1 0.9
v 0.2 1.1 0.9
v 0.3 1.1 0.9
v -1 2 0.9
v 1 2 0.9
v -0.8 2 0.1
v -0.6 2 0.1
v -0.4 2 0.1
v -0.2 2 0.1
v 0.2 2 0.1
v 0.4 2 0.1
v 0.6 2 0.1
v 0.8 2 0.1
v -0.8 2 -0.3
v -0.2 2 -0.3
v 0.2 2 -0.3
v 0.8 2 -0.3
v -1 2 -1.1
v 1 2 -1.1
v -0.8 2.4 0.1
v -0.2 2.4 0.1
v 0.2 2.4 0.1
v 0.8 2.4 0.1
v -0.8 2.4 -0.3
v -0.2 2.4 -0.3
v 0.2 2.4 -0.3
v 0.8 2.4 -0.3

# faces
f 3/8/1 2/8/1 1/8/1
f 4/8/1 2/8/1 3/8/1
f 5/9/1 4/9/1 3/9/1
f 6/8/1 2/8/1 4/8/1
f 6/9/1 4/9/1 5/9/1
f 7/8/1 6/8/1 5/8/1
f 8/8/1 2/8/1 6/8/1
f 8/8/1 6/8/1 7/8/1
f 13/6/1 10/6/1 9/6/1
f 14/6/1 10/6/1 13/6/1
f 15/6/1 12/6/1 11/6/1
f 16/6/1 12/6/1 15/6/1
f 19/6/1 18/6/1 17/6/1
f 20/6/1 18/6/1 19/6/1
f 23/8/1 22/8/1 21/8/1
f 24/8/1 23/8/1 21/8/1
f 25/8/1 24/8/1 21/8/1
f 26/8/1 24/8/1 25/8/1
f 29/6/1 28/6/1 27/6/1
f 30/6/1 28/6/1 29/6/1
f 35/6/1 32/6/1 31/6/1
f 36/6/1 32/6/1 35/6/1
f 37/6/1 34/6/1 33/6/1
f 38/6/1 34/6/1 37/6/1
f 39/6/2 40/6/2 43/6/2
f 43/6/2 40/6/2 44/6/2
f 41/6/2 42/6/2 45/6/2
f 45/6/2 42/6/2 46/6/2
f 47/6/2 48/6/2 49/6/2
f 49/6/2 48/6/2 50/6/2
f 51/8/2 52/8/2 53/8/2
f 51/8/2 53/8/2 54/8/2
f 51/8/2 54/8/2 55/8/2
f 55/8/2 54/8/2 56/8/2
f 57/6/2 58/6/2 61/6/2
f 61/6/2 58/6/2 62/6/2
f 59/6/2 60/6/2 63/6/2
f 63/6/2 60/6/2 64/6/2
f 65/6/2 66/6/2 67/6/2
f 67/6/2 66/6/2 68/6/2
f 69/8/2 70/8/2 71/8/2
f 71/8/2 70/8/2 72/8/2
f 71/9/2 72/9/2 73/9/2
f 72/8/2 70/8/2 74/8/2
f 73/9/2 72/9/2 74/9/2
f 73/8/2 74/8/2 75/8/2
f 74/8/2 70/8/2 76/8/2
f 75/8/2 74/8/2 76/8/2
f 79/8/3 78/8/3 77/8/3
f 80/8/3 78/8/3 79/8/3
f 81/8/3 79/8/3 77/8/3
f 81/6/3 80/6/3 79/6/3
f 82/8/3 78/8/3 80/8/3
f 82/6/3 80/6/3 81/6/3
f 83/8/3 81/8/3 77/8/3
f 83/8/3 82/8/3 81/8/3
f 84/8/3 78/8/3 82/8/3
f 84/8/3 82/8/3 83/8/3
f 89/9/3 87/9/3 86/9/3
f 90/8/3 88/8/3 87/8/3
f 90/9/3 87/9/3 89/9/3
f 91/8/3 88/8/3 90/8/3
f 92/8/3 86/8/3 85/8/3
f 92/9/3 89/9/3 86/9/3
f 93/6/3 91/6/3 90/6/3
f 93/9/3 89/9/3 92/9/3
f 93/6/3 90/6/3 89/6/3
f 94/6/3 91/6/3 93/6/3
f 95/6/3 91/6/3 94/6/3
f 96/8/3 92/8/3 85/8/3
f 96/8/3 93/8/3 92/8/3
f 97/6/3 94/6/3 93/6/3
f 97/8/3 93/8/3 96/8/3
f 98/10/3 95/10/3 94/10/3
f 98/6/3 94/6/3 97/6/3
f 99/10/3 95/10/3 98/10/3
f 100/6/3 91/6/3 95/6/3
f 100/10/3 95/10/3 99/10/3
f 101/6/3 100/6/3 99/6/3
f 102/8/3 88/8/3 91/8/3
f 102/6/3 100/6/3 101/6/3
f 102/6/3 91/6/3 100/6/3
f 103/8/3 102/8/3 101/8/3
f 104/8/3 88/8/3 102/8/3
f 104/8/3 102/8/3 103/8/3
f 105/8/3 96/8/3 85/8/3
f 108/6/3 104/6/3 103/6/3
f 109/6/3 104/6/3 108/6/3
f 110/8/3 106/8/3 105/8/3
f 111/6/3 107/6/3 106/6/3
f 111/8/3 106/8/3 110/8/3
f 112/10/3 108/10/3 107/10/3
f 112/6/3 107/6/3 111/6/3
f 112/10/3 109/10/3 108/10/3
f 113/6/3 104/6/3 109/6/3
f 113/10/3 109/10/3 112/10/3
f 114/6/3 112/6/3 111/6/3
f 114/9/3 111/9/3 110/9/3
f 114/6/3 113/6/3 112/6/3
f 115/6/3 113/6/3 114/6/3
f 116/8/3 88/8/3 104/8/3
f 116/6/3 113/6/3 115/6/3
f 116/6/3 104/6/3 113/6/3
f 117/8/3 110/8/3 105/8/3
f 117/8/3 105/8/3 85/8/3
f 118/9/3 115/9/3 114/9/3
f 118/8/3 110/8/3 117/8/3
f 118/9/3 114/9/3 110/9/3
f 119/8/3 116/8/3 115/8/3
f 119/9/3 115/9/3 118/9/3
f 120/8/3 88/8/3 116/8/3
f 120/8/3 116/8/3 119/8/3
f 123/6/3 122/6/3 121/6/3
f 124/6/3 122/6/3 123/6/3
f 127/6/3 126/6/3 125/6/3
f 128/6/3 126/6/3 127/6/3
f 131/6/3 130/6/3 129/6/3
f 132/6/3 130/6/3 131/6/3
f 133/9/3 132/9/3 131/9/3
f 134/6/3 130/6/3 132/6/3
f 134/9/3 132/9/3 133/9/3
f 135/6/3 134/6/3 133/6/3
f 136/6/3 130/6/3 134/6/3
f 136/6/3 134/6/3 135/6/3
f 139/6/3 138/6/3 137/6/3
f 140/6/3 138/6/3 139/6/3
f 141/9/3 140/9/3 139/9/3
f 142/6/3 138/6/3 140/6/3
f 142/9/3 140/9/3 141/9/3
f 143/6/3 142/6/3 141/6/3
f 144/6/3 138/6/3 142/6/3
f 144/6/3 142/6/3 143/6/3
f 147/6/3 146/6/3 145/6/3
f 148/6/3 146/6/3 147/6/3
f 151/6/3 150/6/3 149/6/3
f 152/6/3 150/6/3 151/6/3
f 153/6/4 154/6/4 155/6/4
f 155/6/4 154/6/4 156/6/4
f 157/6/4 158/6/4 159/6/4
f 159/6/4 158/6/4 160/6/4
f 161/6/4 162/6/4 163/6/4
f 163/6/4 162/6/4 164/6/4
f 165/6/4 166/6/4 167/6/4
f 167/6/4 166/6/4 168/6/4
f 169/6/4 170/6/4 171/6/4
f 171/6/4 170/6/4 172/6/4
f 173/6/4 174/6/4 175/6/4
f 175/6/4 174/6/4 176/6/4
f 177/8/4 178/8/4 179/8/4
f 179/8/4 178/8/4 180/8/4
f 185/6/5 182/6/5 181/6/5
f 186/6/5 182/6/5 185/6/5
f 187/6/5 184/6/5 183/6/5
f 188/6/5 184/6/5 187/6/5
f 193/6/5 190/6/5 189/6/5
f 194/6/5 190/6/5 193/6/5
f 195/6/5 192/6/5 191/6/5
f 196/6/5 192/6/5 195/6/5
f 199/8/5 198/8/5 197/8/5
f 200/8/5 198/8/5 199/8/5
f 201/8/5 198/8/5 200/8/5
f 202/8/5 198/8/5 201/8/5
f 203/8/5 199/8/5 197/8/5
f 204/8/5 201/8/5 200/8/5
f 205/8/5 201/8/5 204/8/5
f 206/8/5 198/8/5 202/8/5
f 207/8/5 205/8/5 204/8/5
f 207/8/5 206/8/5 205/8/5
f 207/8/5 203/8/5 197/8/5
f 207/8/5 204/8/5 203/8/5
f 208/8/5 206/8/5 207/8/5
f 209/8/5 206/8/5 208/8/5
f 210/8/5 198/8/5 206/8/5
f 210/8/5 206/8/5 209/8/5
f 211/8/5 207/8/5 197/8/5
f 212/8/5 209/8/5 208/8/5
f 213/8/5 209/8/5 212/8/5
f 214/8/5 198/8/5 210/8/5
f 215/8/5 211/8/5 197/8/5
f 215/8/5 214/8/5 213/8/5
f 215/8/5 213/8/5 212/8/5
f 215/8/5 212/8/5 211/8/5
f 216/8/5 198/8/5 214/8/5
f 216/8/5 214/8/5 215/8/5
f 219/8/5 218/8/5 217/8/5
f 220/8/5 218/8/5 219/8/5
f 221/8/6 222/8/6 223/8/6
f 223/8/6 222/8/6 224/8/6
f 224/8/6 222/8/6 225/8/6
f 225/8/6 222/8/6 226/8/6
f 227/8/6 228/8/6 229/8/6
f 229/8/6 228/8/6 230/8/6
f 230/8/6 228/8/6 231/8/6
f 231/8/6 228/8/6 232/8/6
f 232/8/6 228/8/6 233/8/6
f 233/8/6 228/8/6 234/8/6
f 234/8/6 228/8/6 235/8/6
f 235/8/6 228/8/6 236/8/6
f 227/8/6 229/8/6 237/8/6
f 232/8/6 233/8/6 238/8/6
f 238/8/6 233/8/6 239/8/6
f 236/8/6 228/8/6 240/8/6
f 238/8/6 239/8/6 241/8/6
f 239/8/6 240/8/6 241/8/6
f 227/8/6 237/8/6 241/8/6
f 237/8/6 238/8/6 241/8/6
f 240/8/6 228/8/6 242/8/6
f 241/8/6 240/8/6 242/8/6
f 243/6/6 244/6/6 247/6/6
f 247/6/6 244/6/6 248/6/6
f 245/6/6 246/6/6 249/6/6
f 249/6/6 246/6/6 250/6/6
