# MagicaVoxel @ Ephtracy

# group
o 

# material
mtllib honey.vox.mtl
usemtl palette

# normals
vn -1 0 0
vn 1 0 0
vn 0 0 1
vn 0 0 -1
vn 0 -1 0
vn 0 1 0

# texcoords
vt 0.404297 0.5
vt 0.619141 0.5
vt 0.708984 0.5
vt 0.958984 0.5

# verts
v -0.4 0 0.4
v -0.4 0 -0.4
v -0.4 0.9 0.4
v -0.4 0.9 -0.4
v -0.3 0.9 0.3
v -0.3 0.9 -0.3
v -0.3 1.1 0.3
v -0.3 1.1 -0.3
v 0.3 0.9 0.3
v 0.3 0.9 -0.3
v 0.3 1.1 0.3
v 0.3 1.1 -0.3
v 0.4 0 0.4
v 0.4 0 -0.4
v 0.4 0.9 0.4
v 0.4 0.9 -0.4
v -0.4 0 0.4
v -0.4 0.9 0.4
v -0.3 0.3 0.4
v -0.3 0.6 0.4
v -0.2 0.4 0.4
v -0.2 0.5 0.4
v 0.2 0.4 0.4
v 0.2 0.5 0.4
v 0.3 0.3 0.4
v 0.3 0.6 0.4
v 0.4 0 0.4
v 0.4 0.9 0.4
v -0.3 0.9 0.3
v -0.3 1.1 0.3
v 0.3 0.9 0.3
v 0.3 1.1 0.3
v -0.3 0.9 -0.3
v -0.3 1.1 -0.3
v 0.3 0.9 -0.3
v 0.3 1.1 -0.3
v -0.4 0 -0.4
v -0.4 0.9 -0.4
v -0.3 0.3 -0.4
v -0.3 0.6 -0.4
v -0.2 0.4 -0.4
v -0.2 0.5 -0.4
v 0.2 0.4 -0.4
v 0.2 0.5 -0.4
v 0.3 0.3 -0.4
v 0.3 0.6 -0.4
v 0.4 0 -0.4
v 0.4 0.9 -0.4
v -0.4 0 0.4
v 0.4 0 0.4
v -0.4 0 -0.4
v 0.4 0 -0.4
v -0.4 0.9 0.4
v 0.4 0.9 0.4
v -0.3 0.9 0.3
v 0.3 0.9 0.3
v -0.3 0.9 -0.3
v 0.3 0.9 -0.3
v -0.4 0.9 -0.4
v 0.4 0.9 -0.4
v -0.3 1.1 0.3
v 0.3 1.1 0.3
v -0.3 1.1 -0.3
v 0.3 1.1 -0.3

# faces
f 3/1/1 2/1/1 1/1/1
f 4/1/1 2/1/1 3/1/1
f 7/2/1 6/2/1 5/2/1
f 8/2/1 6/2/1 7/2/1
f 9/2/2 10/2/2 11/2/2
f 11/2/2 10/2/2 12/2/2
f 13/1/2 14/1/2 15/1/2
f 15/1/2 14/1/2 16/1/2
f 19/1/3 18/1/3 17/1/3
f 20/1/3 18/1/3 19/1/3
f 21/4/3 20/4/3 19/4/3
f 22/4/3 20/4/3 21/4/3
f 23/4/3 21/4/3 19/4/3
f 23/2/3 22/2/3 21/2/3
f 24/4/3 20/4/3 22/4/3
f 24/2/3 22/2/3 23/2/3
f 25/1/3 19/1/3 17/1/3
f 25/4/3 23/4/3 19/4/3
f 25/4/3 24/4/3 23/4/3
f 26/4/3 20/4/3 24/4/3
f 26/4/3 24/4/3 25/4/3
f 26/1/3 18/1/3 20/1/3
f 27/1/3 25/1/3 17/1/3
f 27/1/3 26/1/3 25/1/3
f 28/1/3 18/1/3 26/1/3
f 28/1/3 26/1/3 27/1/3
f 31/2/3 30/2/3 29/2/3
f 32/2/3 30/2/3 31/2/3
f 33/2/4 34/2/4 35/2/4
f 35/2/4 34/2/4 36/2/4
f 37/1/4 38/1/4 39/1/4
f 39/1/4 38/1/4 40/1/4
f 39/4/4 40/4/4 41/4/4
f 41/4/4 40/4/4 42/4/4
f 39/4/4 41/4/4 43/4/4
f 41/2/4 42/2/4 43/2/4
f 42/4/4 40/4/4 44/4/4
f 43/2/4 42/2/4 44/2/4
f 37/1/4 39/1/4 45/1/4
f 39/4/4 43/4/4 45/4/4
f 43/4/4 44/4/4 45/4/4
f 44/4/4 40/4/4 46/4/4
f 45/4/4 44/4/4 46/4/4
f 40/1/4 38/1/4 46/1/4
f 37/1/4 45/1/4 47/1/4
f 45/1/4 46/1/4 47/1/4
f 46/1/4 38/1/4 48/1/4
f 47/1/4 46/1/4 48/1/4
f 51/1/5 50/1/5 49/1/5
f 52/1/5 50/1/5 51/1/5
f 53/1/6 54/1/6 55/1/6
f 55/1/6 54/1/6 56/1/6
f 53/1/6 55/1/6 57/1/6
f 56/1/6 54/1/6 58/1/6
f 53/1/6 57/1/6 59/1/6
f 57/1/6 58/1/6 59/1/6
f 58/1/6 54/1/6 60/1/6
f 59/1/6 58/1/6 60/1/6
f 61/2/6 62/2/6 63/2/6
f 63/2/6 62/2/6 64/2/6
